<svg width="32" height="26" viewBox="0 0 32 26" fill="none" xmlns="http://www.w3.org/2000/svg">
<path d="M1 6.14292L10.0832 12.3714C12.2216 13.8377 13.2908 14.5709 14.4463 14.8558C15.4677 15.1074 16.5323 15.1074 17.5537 14.8558C18.7092 14.5708 19.7785 13.8377 21.9168 12.3714L31 6.14292M6.33333 25.0001H25.6667C27.5335 25.0001 28.467 25.0001 29.18 24.6264C29.8072 24.2977 30.3172 23.7732 30.6367 23.1281C31 22.3947 31 21.4345 31 19.5144V6.48578C31 4.5656 31 3.6055 30.6367 2.8721C30.3172 2.22696 29.8072 1.70246 29.18 1.37376C28.467 1.00006 27.5335 1.00006 25.6667 1.00006H6.33333C4.4665 1.00006 3.53307 1.00006 2.82003 1.37376C2.19282 1.70245 1.68288 2.22696 1.36332 2.8721C1 3.6055 1 4.56559 1 6.48578V19.5143C1 21.4345 1 22.3947 1.36332 23.1281C1.68288 23.7731 2.19282 24.2977 2.82003 24.6263C3.53307 25.0001 4.46648 25.0001 6.33333 25.0001Z" stroke="#EEEEEE" stroke-width="1.99941" stroke-linecap="round" stroke-linejoin="round"/>
</svg>
