<svg width="40" height="29" viewBox="0 0 40 29" fill="none" xmlns="http://www.w3.org/2000/svg" aria-label="English">
<path d="M0 4.51V8.88889H6.25333L0 4.51ZM5.18222 28.8889H14.4444V22.4033L5.18222 28.8889ZM25.5556 22.4044V28.8889H34.8167L25.5556 22.4044ZM0 20V24.3789L6.25556 20H0ZM34.8189 0H25.5556V6.48556L34.8189 0ZM40 24.38V20H33.7433L40 24.38ZM40 8.88889V4.51L33.7456 8.88889H40ZM14.4444 0H5.18222L14.4444 6.48556V0Z" fill="#00247D"/>
<path d="M27.9347 20L38.7258 27.5567C39.2528 27.0138 39.6315 26.3446 39.8258 25.6134L31.8091 20H27.9347ZM14.4458 20H12.0669L1.27689 27.5556C1.85578 28.1445 2.598 28.5656 3.43023 28.7611L14.4458 21.0478V20ZM25.5569 8.88892H27.9358L38.7258 1.33336C38.137 0.735891 37.3906 0.317837 36.5736 0.127808L25.5569 7.84114V8.88892ZM12.0669 8.88892L1.27689 1.33336C0.750174 1.87667 0.371131 2.54563 0.175781 3.2767L8.19245 8.88892H12.0669Z" fill="#CF1B2B"/>
<path d="M40 17.7778H23.3333V28.8889H25.5556V22.4044L34.8167 28.8889H35.5556C36.1459 28.889 36.7302 28.7712 37.2744 28.5424C37.8185 28.3137 38.3115 27.9785 38.7244 27.5567L27.9333 20H31.8078L39.8244 25.6133C39.9278 25.2389 40 24.8511 40 24.4444V24.38L33.7433 20H40V17.7778ZM0 17.7778V20H6.25556L0 24.3789V24.4444C0 25.6567 0.487778 26.7533 1.27556 27.5556L12.0656 20H14.4444V21.0478L3.42889 28.76C3.75556 28.8378 4.09333 28.8889 4.44444 28.8889H5.18222L14.4444 22.4033V28.8889H16.6667V17.7778H0ZM40 4.44445C40.0007 3.27998 39.5424 2.16217 38.7244 1.33333L27.9344 8.88889H25.5556V7.84111L36.5722 0.127778C36.2394 0.0461416 35.8982 0.0032645 35.5556 4.2042e-07H34.8189L25.5556 6.48556V4.2042e-07H23.3333V11.1111H40V8.88889H33.7456L40 4.51V4.44445ZM14.4444 4.2042e-07V6.48556L5.18222 4.2042e-07H4.44444C3.85403 -0.000256858 3.26952 0.117571 2.72531 0.34655C2.1811 0.57553 1.68818 0.911037 1.27556 1.33333L12.0656 8.88889H8.19111L0.174444 3.27667C0.0642002 3.65634 0.00552601 4.04913 0 4.44445L0 4.51L6.25333 8.88889H0V11.1111H16.6667V4.2042e-07H14.4444Z" fill="#EEEEEE"/>
<path d="M23.3333 11.1111V0H16.6667V11.1111H0V17.7778H16.6667V28.8889H23.3333V17.7778H40V11.1111H23.3333Z" fill="#CF1B2B"/>
</svg>
