<svg width="40" height="29" viewBox="0 0 40 29" fill="none" xmlns="http://www.w3.org/2000/svg" aria-label="Estonian">
<path d="M35.5556 0H4.44444C3.2657 0 2.13524 0.468252 1.30175 1.30175C0.468253 2.13524 0 3.2657 0 4.44444L0 10H40V4.44444C40 3.2657 39.5317 2.13524 38.6983 1.30175C37.8648 0.468252 36.7343 0 35.5556 0Z" fill="#4891D9"/>
<path d="M0 10H40V20H0V10Z" fill="#131313"/>
<path d="M35.5556 28.8889H4.44444C3.2657 28.8889 2.13524 28.4206 1.30175 27.5871C0.468253 26.7536 0 25.6232 0 24.4444V20H40V24.4444C40 25.6232 39.5317 26.7536 38.6983 27.5871C37.8648 28.4206 36.7343 28.8889 35.5556 28.8889Z" fill="#EEEEEE"/>
</svg>
