<svg width="40" height="40" viewBox="0 0 40 40" fill="none" xmlns="http://www.w3.org/2000/svg">
<path fill-rule="evenodd" clip-rule="evenodd" d="M20 0C31.046 0 40 9.17985 40 20.5058C40 29.5638 34.276 37.2479 26.334 39.9619C25.32 40.1639 24.96 39.5235 24.96 38.9775C24.96 38.3015 24.984 36.0936 24.984 33.3496C24.984 31.4376 24.344 30.1897 23.626 29.5537C28.08 29.0457 32.76 27.3115 32.76 19.4355C32.76 17.1955 31.984 15.3676 30.7 13.9316C30.908 13.4136 31.594 11.3279 30.504 8.5039C30.504 8.5039 28.828 7.95444 25.01 10.6064C23.412 10.1524 21.7 9.924 20 9.916C18.3 9.916 16.59 10.1524 14.994 10.6064C11.172 7.95444 9.492 8.5039 9.492 8.5039C8.406 11.3279 9.092 13.4136 9.298 13.9316C8.02 15.3676 7.23801 17.1955 7.23801 19.4355C7.23801 27.2915 11.908 29.0523 16.35 29.5703C15.778 30.0823 15.26 30.9855 15.08 32.3115C13.94 32.8355 11.044 33.7424 9.25999 30.6084C9.25999 30.6084 8.202 28.6381 6.194 28.4941C6.194 28.4941 4.244 28.4682 6.058 29.7402C6.058 29.7402 7.368 30.3702 8.278 32.7402C8.278 32.7402 9.45201 36.4001 15.016 35.1601C15.026 36.8741 15.044 38.4895 15.044 38.9775C15.044 39.5195 14.676 40.1538 13.678 39.9638C5.72999 37.2538 0 29.5658 0 20.5058C0 9.17985 8.956 0 20 0Z" fill="#EEEEEE"/>
</svg>
