<svg width="76" height="24" viewBox="0 0 76 24" fill="none" xmlns="http://www.w3.org/2000/svg">
<path d="M27.7501 20.5875H24.0377V12.2961C24.0377 11.1492 23.8161 10.2938 23.3728 9.72973C22.948 9.16569 22.357 8.88367 21.5997 8.88367C21.1565 8.88367 20.6855 9.01528 20.1868 9.2785C19.6881 9.54172 19.2356 9.90834 18.8293 10.3784C18.4414 10.8296 18.1551 11.3561 17.9704 11.9577V20.5875H14.258V0H17.9704V8.54524C18.5061 7.60517 19.2356 6.87191 20.1591 6.34548C21.0826 5.81904 22.0892 5.55582 23.1789 5.55582C24.1208 5.55582 24.8873 5.72503 25.4783 6.06345C26.0694 6.38308 26.5311 6.82491 26.8636 7.38895C27.196 7.9342 27.4269 8.55464 27.5562 9.25029C27.6855 9.92714 27.7501 10.6322 27.7501 11.3655V20.5875Z" fill="#EEEEEE"/>
<path d="M30.8396 15.0599V5.80963H34.552V14.2421C34.552 15.3702 34.7551 16.2256 35.1615 16.8085C35.5678 17.3725 36.1681 17.6545 36.9623 17.6545C37.4425 17.6545 37.9134 17.5605 38.3752 17.3725C38.8554 17.1657 39.2894 16.8649 39.6773 16.47C40.0836 16.0752 40.4253 15.577 40.7024 14.9753V5.80963H44.4148V16.3572C44.4148 16.7521 44.4794 17.0341 44.6087 17.2033C44.7564 17.3725 44.9873 17.4759 45.3013 17.5135V20.5875C44.9319 20.6439 44.6179 20.6816 44.3594 20.7004C44.1192 20.738 43.8976 20.7568 43.6944 20.7568C43.0295 20.7568 42.4847 20.6063 42.0599 20.3055C41.6535 19.9859 41.4134 19.5535 41.3396 19.0082L41.2565 17.8237C40.61 18.8202 39.7789 19.5817 38.7631 20.1081C37.7472 20.6157 36.6298 20.8696 35.4108 20.8696C33.9148 20.8696 32.7789 20.3807 32.0032 19.4031C31.2274 18.4066 30.8396 16.9589 30.8396 15.0599Z" fill="#EEEEEE"/>
<path d="M56.3599 20.8696C55.2517 20.8696 54.2636 20.6157 53.3955 20.1081C52.5275 19.6005 51.8441 18.9048 51.3454 18.0212V20.5875H48.104V0H51.8164V8.40423C52.3335 7.52056 53.0077 6.82491 53.8388 6.31727C54.6884 5.80963 55.6765 5.55582 56.8032 5.55582C57.7451 5.55582 58.604 5.76263 59.3797 6.17626C60.1554 6.57109 60.8203 7.12573 61.3744 7.84019C61.947 8.55464 62.381 9.3725 62.6765 10.2938C62.9905 11.215 63.1475 12.2021 63.1475 13.255C63.1475 14.3079 62.972 15.2949 62.6211 16.2162C62.2887 17.1375 61.8177 17.9553 61.2082 18.6698C60.5987 19.3655 59.8784 19.9107 59.0472 20.3055C58.2346 20.6816 57.3388 20.8696 56.3599 20.8696ZM55.3348 17.6545C55.9259 17.6545 56.4615 17.5417 56.9417 17.3161C57.4404 17.0717 57.8652 16.7521 58.2161 16.3572C58.5855 15.9624 58.8625 15.5018 59.0472 14.9753C59.2504 14.4301 59.352 13.866 59.352 13.2832C59.352 12.4747 59.1858 11.7321 58.8533 11.0552C58.5393 10.3596 58.0961 9.80494 57.5235 9.3913C56.9694 8.97767 56.3137 8.77086 55.5565 8.77086C55.0209 8.77086 54.5037 8.90247 54.005 9.16569C53.5248 9.4101 53.0908 9.74853 52.7029 10.181C52.3335 10.6134 52.038 11.1022 51.8164 11.6475V15.1727C51.9272 15.5488 52.1027 15.8872 52.3428 16.188C52.6013 16.4888 52.8969 16.7521 53.2293 16.9777C53.5618 17.1845 53.9035 17.3537 54.2544 17.4853C54.6238 17.5981 54.9839 17.6545 55.3348 17.6545Z" fill="#EEEEEE"/>
</svg>
