<svg width="32" height="32" viewBox="0 0 32 32" fill="none" xmlns="http://www.w3.org/2000/svg">
<path d="M1.00046 5.16707C1.00046 19.4342 12.5662 31 26.8333 31C27.477 31 28.1151 30.9764 28.7471 30.9299C29.4723 30.8768 29.8348 30.8505 30.1649 30.6605C30.4383 30.5033 30.6972 30.2243 30.8344 29.94C31 29.5972 31 29.1968 31 28.3967V23.7012C31 23.0282 31 22.6918 30.8894 22.4034C30.7917 22.1484 30.6328 21.9217 30.4266 21.7428C30.1933 21.54 29.8771 21.425 29.2448 21.195L23.9002 19.2515C23.1644 18.9842 22.7964 18.8504 22.4474 18.8726C22.1396 18.8926 21.8434 18.9976 21.5918 19.1759C21.3062 19.3782 21.1051 19.7137 20.7023 20.3852L19.3336 22.6662C14.9172 20.666 11.3369 17.0811 9.33378 12.6663L11.6148 11.2978C12.2861 10.895 12.6218 10.6935 12.824 10.4082C13.0024 10.1565 13.1074 9.86038 13.1274 9.55264C13.15 9.20372 13.0163 8.8357 12.7485 8.09993L10.805 2.75529C10.575 2.12291 10.46 1.80667 10.2572 1.57343C10.0783 1.36731 9.85104 1.20841 9.59652 1.11062C9.30817 1.00006 8.97165 1.00006 8.29871 1.00006H3.60329C2.80307 1.00006 2.40298 1.00006 2.0599 1.16563C1.776 1.30286 1.49687 1.56177 1.33947 1.83523C1.14945 2.16525 1.12279 2.52789 1.07 3.25305C1.02374 3.88492 1.00046 4.52342 1.00046 5.16707Z" stroke="#EEEEEE" stroke-width="1.99983" stroke-linecap="round" stroke-linejoin="round"/>
</svg>
