<?xml version="1.0" standalone="no"?>
<!DOCTYPE svg PUBLIC "-//W3C//DTD SVG 20010904//EN"
 "http://www.w3.org/TR/2001/REC-SVG-20010904/DTD/svg10.dtd">
<svg version="1.0" xmlns="http://www.w3.org/2000/svg"
 width="512.000000pt" height="512.000000pt" viewBox="0 0 512.000000 512.000000"
 preserveAspectRatio="xMidYMid meet">
<metadata>
Created by potrace 1.14, written by Peter Selinger 2001-2017
</metadata>
<g transform="translate(0.000000,512.000000) scale(0.100000,-0.100000)"
fill="#000000" stroke="none">
<path d="M0 2560 l0 -2560 2560 0 2560 0 0 2560 0 2560 -2560 0 -2560 0 0
-2560z m1675 902 l960 -577 3 -175 2 -175 -985 -578 c-541 -317 -987 -577
-990 -577 -3 0 -5 186 -5 413 l0 412 432 257 c238 141 433 260 435 265 1 4
-193 131 -432 282 l-435 273 0 395 0 394 28 -16 c15 -9 459 -276 987 -593z
m2785 -2322 l0 -330 -835 0 -835 0 0 330 0 330 835 0 835 0 0 -330z"/>
</g>
</svg>
