<svg width="640" height="100" viewBox="0 0 640 100" fill="none" xmlns="http://www.w3.org/2000/svg">
<path fill-rule="evenodd" clip-rule="evenodd" d="M0 0V100H100.137V0H0ZM13.0177 21.9999L52.1003 44.5332V51.4668L13.0177 73.9999V58.3984L31.056 48L13.0177 37.5996V21.9999ZM52.1003 73.9999H87.1188V87H52.1003V73.9999Z" fill="#870042"/>
<path fill-rule="evenodd" clip-rule="evenodd" d="M52.1002 74V87H87.1186V74H52.1002Z" fill="#EEEEEE"/>
<path fill-rule="evenodd" clip-rule="evenodd" d="M13.0176 22V37.5996L31.0559 48L13.0176 58.3984V74L52.1002 51.4668V44.5332L13.0176 22Z" fill="#EEEEEE"/>
<path d="M243.837 17.5195V28.6446C243.513 28.097 243.124 27.6003 242.669 27.1523C242.215 26.7043 241.694 26.3055 241.109 25.957C240.822 25.7767 240.526 25.6199 240.221 25.4844C239.915 25.3491 239.6 25.2349 239.276 25.1446C238.628 24.9643 237.943 24.8751 237.221 24.8751C236.797 24.8751 236.385 24.9016 235.985 24.959C235.584 25.015 235.196 25.0989 234.819 25.2111C234.442 25.323 234.075 25.4632 233.722 25.631C233.368 25.7992 233.027 25.995 232.697 26.2189C232.367 26.443 232.054 26.6869 231.76 26.9513C231.466 27.2159 231.189 27.5 230.931 27.8049C230.672 28.1099 230.432 28.4361 230.209 28.7814C229.987 29.1269 229.78 29.4913 229.593 29.8771C229.406 30.2566 229.242 30.6481 229.102 31.0509C228.962 31.4538 228.845 31.8689 228.752 32.2951C228.659 32.7213 228.589 33.1581 228.543 33.6076C228.496 34.0571 228.472 34.5195 228.472 34.9923C228.472 35.7017 228.528 36.3891 228.64 37.0548C228.752 37.7206 228.921 38.3643 229.145 38.9865C229.382 39.5962 229.662 40.1682 229.986 40.7033C230.31 41.2384 230.678 41.737 231.089 42.1974C231.513 42.6578 231.97 43.069 232.462 43.4298C232.954 43.7908 233.481 44.1021 234.042 44.3634C234.615 44.6246 235.213 44.8207 235.836 44.9513C236.459 45.0821 237.107 45.1467 237.78 45.1467C238.453 45.1467 239.111 45.0662 239.753 44.9044C240.395 44.7427 241.02 44.4995 241.631 44.1759C241.942 44.0142 242.238 43.8343 242.517 43.6369C242.796 43.4392 243.059 43.2237 243.305 42.9904C243.551 42.7572 243.78 42.5056 243.993 42.2365C244.207 41.9674 244.403 41.68 244.584 41.3751L244.66 42.6076C244.698 42.9685 244.796 43.2956 244.958 43.588C245.12 43.8806 245.344 44.1394 245.631 44.3634C245.93 44.5876 246.268 44.7554 246.642 44.8674C247.016 44.9792 247.425 45.0355 247.874 45.0355C248.422 45.0355 249.134 44.9478 250.006 44.7736V40.7033C249.794 40.6768 249.614 40.633 249.464 40.5646C249.315 40.4962 249.195 40.4051 249.108 40.2932C249.021 40.1813 248.956 40.0324 248.913 39.8459C248.869 39.6592 248.846 39.4354 248.846 39.1741V17.5198L243.837 17.5195ZM295.353 17.5195V44.7735H300.361V38.9492L303.017 36.336L308.736 44.7735H314.083L306.27 33.5352L313.559 25.2481H308.251L300.361 34.0215V17.5195H295.353ZM124.843 18.2676V44.7735H130.002V18.2676H124.843ZM133.292 18.2676V22.7832H141.778V44.7735H146.9V22.7832H155.386V18.2676H133.292ZM172.844 18.8633V25.2109H170.264V29.0567H172.844V40.2929C172.844 40.8654 172.9 41.3849 173.012 41.8516C173.124 42.3182 173.292 42.7329 173.517 43.0937C173.753 43.4422 174.028 43.7429 174.34 43.998C174.651 44.2531 175 44.4632 175.386 44.625C175.773 44.7867 176.177 44.9073 176.601 44.9882C177.024 45.0691 177.468 45.1092 177.929 45.1092C178.627 45.1092 179.311 45.034 179.984 44.8847C180.682 44.7603 181.33 44.5872 181.928 44.3632C182.526 44.1395 183.038 43.9399 183.462 43.7656L182.453 39.8085C182.153 39.9332 181.754 40.0817 181.256 40.2558C180.757 40.43 180.246 40.5176 179.722 40.5176C179.461 40.5176 179.221 40.4799 179.003 40.4062C178.784 40.3313 178.588 40.2195 178.414 40.0702C178.239 39.9209 178.106 39.7251 178.013 39.4823C177.919 39.2396 177.867 38.9491 177.854 38.6131V29.0565H181.966V25.2108H177.854V18.8632L172.844 18.8633ZM284.398 24.8379C283.601 24.8379 282.855 24.9025 282.157 25.0333C281.459 25.1641 280.811 25.3599 280.213 25.6212C279.627 25.8824 279.103 26.1975 278.642 26.5645C278.181 26.9315 277.782 27.3515 277.445 27.8244C277.121 28.2848 276.878 28.7921 276.716 29.3458C276.554 29.8996 276.473 30.4996 276.473 31.1466C276.473 31.6817 276.533 32.1697 276.651 32.6115C276.77 33.0532 276.946 33.4486 277.183 33.797C277.432 34.133 277.741 34.4408 278.108 34.7208C278.476 35.0009 278.903 35.2527 279.389 35.4767C280.361 35.9247 281.57 36.3867 283.015 36.8595C283.888 37.1086 284.623 37.3323 285.221 37.5314C285.533 37.6308 285.808 37.7393 286.045 37.8576C286.282 37.9759 286.479 38.1036 286.641 38.2403C286.803 38.3647 286.926 38.517 287.007 38.6974C287.088 38.8776 287.128 39.086 287.128 39.3224C287.128 39.6709 287.053 39.9771 286.903 40.2384C286.754 40.4996 286.53 40.7166 286.23 40.8908C285.944 41.065 285.607 41.1961 285.221 41.2833C284.835 41.3703 284.399 41.4141 283.913 41.4141C283.389 41.4141 282.853 41.3582 282.305 41.2463C281.757 41.1344 281.196 40.9662 280.623 40.7424C280.062 40.5183 279.495 40.2315 278.922 39.883C278.348 39.5346 277.769 39.1235 277.183 38.6506L275.389 41.8986C275.938 42.4337 276.538 42.9044 277.193 43.3088C277.847 43.7132 278.555 44.0526 279.315 44.3263C280.075 44.6 280.854 44.8047 281.652 44.9416C282.449 45.0784 283.266 45.1468 284.101 45.1468C284.699 45.1468 285.267 45.1128 285.804 45.0452C286.341 44.9767 286.847 44.8736 287.324 44.7367C287.8 44.5999 288.247 44.4283 288.663 44.2231C289.079 44.0178 289.464 43.7781 289.819 43.5043C290.174 43.2307 290.486 42.9306 290.752 42.6039C291.019 42.2774 291.24 41.9249 291.417 41.5453C291.595 41.1658 291.729 40.759 291.818 40.3266C291.907 39.8942 291.951 39.435 291.951 38.9497C291.951 38.3524 291.883 37.8206 291.745 37.3539C291.608 36.8873 291.401 36.4868 291.127 36.1508C290.853 35.8023 290.512 35.4803 290.101 35.1879C289.689 34.8954 289.209 34.6314 288.661 34.3949C287.589 33.9221 286.267 33.4621 284.697 33.0141C283.924 32.765 283.264 32.5413 282.715 32.3422C282.192 32.143 281.795 31.9193 281.521 31.6704C281.396 31.5336 281.301 31.3706 281.239 31.184C281.176 30.9973 281.147 30.7857 281.147 30.5493C281.147 30.2881 281.181 30.0589 281.249 29.8598C281.317 29.6606 281.421 29.4928 281.558 29.3559C281.707 29.2066 281.875 29.0789 282.062 28.9731C282.249 28.8673 282.454 28.7834 282.678 28.721C283.152 28.5967 283.651 28.5335 284.174 28.5335C284.636 28.5335 285.093 28.5808 285.547 28.6741C286.002 28.7675 286.454 28.9073 286.903 29.094C287.351 29.2683 287.812 29.4957 288.286 29.7757C288.759 30.0558 289.246 30.388 289.745 30.7737L291.763 27.5999C291.252 27.1146 290.712 26.6984 290.146 26.3499C289.579 26.0015 288.985 25.7216 288.362 25.5101C287.739 25.286 287.096 25.1182 286.435 25.0062C285.775 24.8943 285.096 24.8379 284.398 24.8379ZM194.938 24.8757C194.409 24.8757 193.896 24.9059 193.401 24.9638C192.906 25.0227 192.427 25.1112 191.966 25.2295C191.504 25.3478 191.06 25.4956 190.634 25.6728C190.207 25.8501 189.798 26.0575 189.405 26.2939C189.019 26.5241 188.655 26.7748 188.312 27.0439C187.969 27.313 187.649 27.6011 187.35 27.9091C187.051 28.2172 186.772 28.5447 186.517 28.8916C186.261 29.2385 186.028 29.6054 185.816 29.9912C185.611 30.377 185.431 30.7727 185.277 31.1787C185.123 31.5847 184.994 32.0006 184.891 32.4267C184.789 32.853 184.712 33.2889 184.661 33.7354C184.609 34.1818 184.582 34.6378 184.582 35.1045C184.582 35.7764 184.642 36.4343 184.76 37.0751C184.879 37.716 185.056 38.3404 185.292 38.9502C185.542 39.5475 185.841 40.1143 186.19 40.6494C186.539 41.1845 186.938 41.6882 187.387 42.1611C187.836 42.6216 188.331 43.0342 188.873 43.4013C189.415 43.7683 190.004 44.0904 190.639 44.3642C191.275 44.6254 191.948 44.8215 192.658 44.9521C193.368 45.0829 194.116 45.1475 194.901 45.1475C195.624 45.1475 196.316 45.095 196.976 44.9892C197.637 44.8833 198.265 44.7242 198.864 44.5126C199.462 44.2884 200.019 44.0245 200.536 43.7196C201.053 43.4146 201.531 43.0702 201.967 42.6845C202.416 42.2987 202.81 41.884 203.153 41.4423C203.495 41.0005 203.786 40.5299 204.023 40.0321L199.724 38.8388C199.562 39.237 199.327 39.5973 199.022 39.9208C198.717 40.2443 198.34 40.5313 197.892 40.7802C197.455 41.0168 197.003 41.1932 196.536 41.3114C196.069 41.4297 195.585 41.4891 195.087 41.4891C194.651 41.4891 194.229 41.4419 193.818 41.3485C193.406 41.2551 193.007 41.1153 192.621 40.9286C192.247 40.7294 191.903 40.4863 191.592 40.2001C191.28 39.914 191 39.5851 190.751 39.2117C190.514 38.8383 190.325 38.4344 190.182 37.9989C190.039 37.5633 189.942 37.0963 189.892 36.5985H205.032C205.057 36.3993 205.081 36.1511 205.106 35.8524C205.131 35.5289 205.144 35.2174 205.144 34.9188C205.144 34.477 205.119 34.0422 205.067 33.616C205.016 33.1899 204.939 32.7709 204.836 32.3602C204.734 31.9495 204.605 31.5463 204.451 31.1512C204.297 30.7561 204.117 30.3706 203.911 29.9911C203.712 29.6053 203.489 29.2383 203.244 28.8914C203 28.5445 202.732 28.217 202.443 27.909C202.153 27.601 201.841 27.3129 201.506 27.0438C201.171 26.7747 200.814 26.524 200.434 26.2938C200.054 26.0572 199.654 25.85 199.235 25.6727C198.816 25.4955 198.377 25.3476 197.919 25.2293C197.461 25.111 196.984 25.023 196.487 24.9636C195.99 24.9047 195.474 24.8757 194.938 24.8757ZM216.135 24.8757C215.388 24.8757 214.655 24.9282 213.939 25.0341C213.222 25.1399 212.522 25.299 211.836 25.5107C211.163 25.7223 210.496 25.9863 209.836 26.3036C209.175 26.6211 208.522 26.9918 207.874 27.415L209.482 30.7001C210.017 30.3391 210.539 30.0207 211.05 29.7469C211.561 29.4733 212.06 29.2442 212.546 29.0575C213.032 28.8708 213.532 28.731 214.042 28.6376C214.553 28.5442 215.075 28.497 215.611 28.497C216.334 28.497 216.968 28.5809 217.51 28.7491C217.781 28.833 218.029 28.9377 218.255 29.0635C218.481 29.1894 218.683 29.3368 218.864 29.505C219.05 29.6728 219.214 29.8599 219.354 30.0636C219.494 30.2673 219.613 30.488 219.706 30.7276C219.8 30.9672 219.869 31.2257 219.916 31.5011C219.962 31.7762 219.986 32.0688 219.986 32.3799V33.4249C219.675 33.288 219.335 33.1708 218.967 33.0714C218.6 32.972 218.204 32.8897 217.78 32.8273C216.933 32.703 216.097 32.6417 215.275 32.6417C214.452 32.6417 213.678 32.7064 212.949 32.8371C212.22 32.9679 211.537 33.1637 210.901 33.425C210.266 33.6862 209.698 34.0048 209.2 34.3782C208.701 34.7516 208.272 35.1799 207.911 35.6653C207.737 35.9019 207.584 36.1488 207.453 36.4055C207.323 36.6621 207.212 36.9274 207.125 37.2043C206.95 37.7581 206.865 38.3528 206.865 38.9875C206.865 39.5724 206.937 40.1305 207.08 40.6594C207.223 41.1882 207.437 41.6884 207.723 42.1613C208.022 42.6217 208.374 43.0364 208.779 43.4036C209.184 43.7705 209.643 44.0907 210.154 44.3645C210.678 44.6256 211.231 44.8217 211.817 44.9524C212.402 45.0831 213.021 45.1478 213.669 45.1478C214.329 45.1478 214.983 45.0744 215.631 44.9251C216.279 44.7759 216.92 44.5498 217.555 44.2513C218.191 43.9527 218.774 43.5924 219.303 43.1693C219.833 42.7462 220.31 42.2617 220.733 41.7142L220.844 42.722C220.907 43.0455 221.017 43.3447 221.173 43.6185C221.329 43.8921 221.53 44.1406 221.779 44.3646C222.041 44.5887 222.363 44.7565 222.743 44.8685C223.124 44.9803 223.561 45.0367 224.06 45.0367C224.309 45.0367 224.609 45.014 224.957 44.9626C225.331 44.9127 225.743 44.8496 226.192 44.7751V40.7048C225.98 40.6783 225.796 40.6345 225.64 40.5661C225.484 40.4977 225.356 40.4066 225.257 40.2947C225.17 40.1829 225.105 40.0339 225.061 39.8474C225.017 39.6607 224.994 39.4369 224.994 39.1756V32.9412C224.994 32.2941 224.946 31.6836 224.848 31.1111C224.75 30.5387 224.602 30.0034 224.406 29.5056C224.209 29.0079 223.965 28.5479 223.67 28.1248C223.376 27.7017 223.032 27.315 222.639 26.9666C222.253 26.6181 221.828 26.3139 221.364 26.0525C220.9 25.7914 220.396 25.5725 219.854 25.3983C219.312 25.224 218.732 25.0947 218.112 25.0076C217.492 24.9203 216.833 24.8757 216.135 24.8757ZM324.251 24.8757C323.454 24.8757 322.695 24.9438 321.979 25.081C321.262 25.2178 320.588 25.4226 319.953 25.6962C319.317 25.9574 318.727 26.2725 318.184 26.6396C317.642 27.0066 317.149 27.4264 316.7 27.8993C316.264 28.3721 315.877 28.8795 315.54 29.4208C315.204 29.9621 314.916 30.5377 314.68 31.1474C314.443 31.7571 314.266 32.3851 314.148 33.0321C314.029 33.6792 313.97 34.3458 313.97 35.0302C313.97 35.7021 314.029 36.358 314.148 36.9989C314.266 37.6398 314.443 38.2661 314.68 38.8759C314.917 39.4856 315.204 40.0611 315.54 40.6024C315.877 41.1437 316.264 41.6511 316.7 42.1239C317.149 42.5968 317.642 43.0201 318.184 43.3935C318.727 43.7669 319.317 44.0904 319.953 44.3642C320.588 44.6253 321.262 44.8214 321.979 44.952C322.695 45.0828 323.454 45.1474 324.251 45.1474C325.049 45.1474 325.806 45.0828 326.522 44.952C327.238 44.8212 327.915 44.6255 328.55 44.3642C329.186 44.0905 329.771 43.7668 330.306 43.3935C330.842 43.02 331.329 42.5968 331.766 42.1239C332.214 41.6511 332.606 41.1437 332.943 40.6024C333.279 40.0611 333.56 39.4856 333.784 38.8759C334.021 38.2661 334.197 37.6398 334.316 36.9989C334.434 36.358 334.494 35.7021 334.494 35.0302C334.494 34.3458 334.434 33.6792 334.316 33.0321C334.197 32.3851 334.021 31.7571 333.784 31.1474C333.559 30.5377 333.279 29.9621 332.943 29.4208C332.606 28.8795 332.214 28.3721 331.766 27.8993C331.317 27.4264 330.821 27.0067 330.279 26.6396C329.737 26.2726 329.149 25.9575 328.513 25.6962C327.89 25.4225 327.222 25.2178 326.512 25.081C325.802 24.9441 325.049 24.8757 324.251 24.8757ZM350.158 24.8757C349.597 24.8757 349.049 24.9158 348.513 24.9966C347.977 25.0775 347.453 25.1981 346.942 25.3598C346.444 25.5091 345.975 25.6966 345.532 25.9204C345.09 26.1445 344.675 26.405 344.288 26.7036C343.902 26.9898 343.55 27.3119 343.232 27.6665C342.914 28.021 342.631 28.4094 342.382 28.8325V25.2115H337.858V44.7739H342.869V33.3501C342.993 32.9519 343.154 32.5774 343.354 32.229C343.553 31.8805 343.791 31.5569 344.065 31.2583C344.339 30.9473 344.629 30.6709 344.934 30.4282C345.239 30.1856 345.56 29.9774 345.896 29.8032C346.245 29.629 346.592 29.4979 346.935 29.4107C347.277 29.3237 347.615 29.2799 347.952 29.2799C348.195 29.2799 348.426 29.3026 348.642 29.3483C348.859 29.3933 349.062 29.4613 349.252 29.5513C349.442 29.6416 349.619 29.7538 349.782 29.8892C349.946 30.0245 350.095 30.1832 350.232 30.3637C350.369 30.544 350.489 30.7495 350.592 30.9829C350.695 31.2161 350.782 31.4779 350.85 31.7641C350.987 32.3365 351.056 33.0134 351.056 33.7973V44.7739H356.064V32.5649C356.064 31.6192 355.979 30.6869 355.804 29.7661C355.73 29.3057 355.619 28.8701 355.476 28.4594C355.332 28.0488 355.156 27.6622 354.944 27.3013C354.744 26.9279 354.496 26.5956 354.197 26.3032C353.898 26.0106 353.547 25.7589 353.149 25.5473C352.762 25.3232 352.321 25.1555 351.822 25.0435C351.324 24.9316 350.768 24.8757 350.158 24.8757ZM372.737 24.8757C372.177 24.8757 371.628 24.9158 371.093 24.9966C370.557 25.0775 370.035 25.1981 369.524 25.3598C369.026 25.5091 368.554 25.6966 368.112 25.9204C367.67 26.1445 367.254 26.405 366.868 26.7036C366.482 26.9898 366.13 27.3119 365.812 27.6665C365.494 28.021 365.212 28.4094 364.963 28.8325V25.2115H360.439V44.7739H365.448V33.3501C365.573 32.9519 365.736 32.5774 365.935 32.229C366.135 31.8805 366.371 31.5569 366.645 31.2583C366.919 30.9473 367.208 30.6709 367.513 30.4282C367.819 30.1856 368.139 29.9774 368.476 29.8032C368.825 29.629 369.172 29.4979 369.514 29.4107C369.857 29.3237 370.197 29.2799 370.533 29.2799C370.776 29.2799 371.005 29.3026 371.222 29.3483C371.438 29.3933 371.642 29.4613 371.832 29.5513C372.022 29.6416 372.198 29.7538 372.362 29.8892C372.525 30.0245 372.677 30.1832 372.814 30.3637C372.951 30.544 373.071 30.7495 373.174 30.9829C373.277 31.2161 373.361 31.4779 373.43 31.7641C373.567 32.3365 373.635 33.0134 373.635 33.7973V44.7739H378.646V32.5649C378.646 31.6192 378.559 30.6869 378.384 29.7661C378.309 29.3057 378.201 28.8701 378.057 28.4594C377.914 28.0488 377.735 27.6622 377.523 27.3013C377.324 26.9279 377.075 26.5956 376.776 26.3032C376.477 26.0106 376.129 25.7589 375.73 25.5473C375.344 25.3232 374.9 25.1555 374.402 25.0435C373.903 24.9316 373.348 24.8757 372.737 24.8757ZM390.944 24.8757C390.196 24.8757 389.464 24.9282 388.747 25.0341C388.031 25.1399 387.33 25.299 386.645 25.5107C385.972 25.7223 385.305 25.9863 384.644 26.3036C383.984 26.6207 383.331 26.9918 382.683 27.415L384.29 30.7001C384.826 30.3391 385.35 30.0207 385.861 29.7469C386.372 29.4733 386.869 29.2442 387.355 29.0575C387.841 28.8708 388.34 28.731 388.851 28.6376C389.362 28.5442 389.886 28.497 390.422 28.497C391.144 28.497 391.777 28.5809 392.319 28.7491C392.59 28.833 392.838 28.9377 393.064 29.0635C393.29 29.1894 393.493 29.3368 393.674 29.505C393.861 29.6728 394.025 29.8599 394.165 30.0636C394.305 30.2673 394.422 30.488 394.515 30.7276C394.609 30.9672 394.678 31.2257 394.724 31.5011C394.771 31.7762 394.795 32.0688 394.795 32.3799V33.4249C394.483 33.288 394.143 33.1708 393.776 33.0714C393.408 32.972 393.012 32.8897 392.589 32.8273C391.741 32.703 390.908 32.6417 390.085 32.6417C389.263 32.6417 388.487 32.7064 387.758 32.8371C387.029 32.9679 386.346 33.1637 385.71 33.425C385.075 33.6862 384.509 34.0048 384.011 34.3782C383.512 34.7516 383.081 35.1799 382.72 35.6653C382.545 35.9019 382.393 36.1488 382.262 36.4055C382.131 36.6621 382.022 36.9274 381.935 37.2043C381.761 37.7581 381.674 38.3528 381.674 38.9875C381.674 39.5724 381.745 40.1305 381.888 40.6594C382.032 41.1882 382.245 41.6885 382.532 42.1613C382.831 42.6217 383.183 43.0364 383.588 43.4036C383.993 43.7705 384.452 44.0907 384.963 44.3645C385.486 44.6256 386.042 44.8217 386.627 44.9524C387.213 45.0831 387.83 45.1478 388.478 45.1478C389.138 45.1478 389.791 45.0744 390.439 44.9251C391.087 44.7759 391.73 44.5521 392.366 44.2532C393.001 43.9546 393.583 43.5924 394.112 43.1693C394.642 42.7462 395.118 42.2617 395.542 41.7142L395.655 42.722C395.718 43.0455 395.826 43.3447 395.982 43.6185C396.138 43.8921 396.341 44.1406 396.59 44.3646C396.852 44.5887 397.172 44.7565 397.553 44.8685C397.933 44.9803 398.372 45.0367 398.871 45.0367C399.12 45.0367 399.418 45.014 399.767 44.9626C400.14 44.9127 400.552 44.8496 401.001 44.7751V40.7067C400.789 40.6803 400.605 40.6345 400.449 40.5661C400.293 40.4977 400.165 40.4067 400.066 40.2948C399.979 40.1829 399.914 40.034 399.87 39.8475C399.827 39.6608 399.803 39.437 399.803 39.1757V32.9413C399.803 32.2942 399.755 31.6836 399.657 31.1112C399.559 30.5388 399.411 30.0035 399.215 29.5058C399.019 29.008 398.774 28.548 398.48 28.1249C398.185 27.7018 397.841 27.3151 397.449 26.9667C397.063 26.6182 396.638 26.3139 396.174 26.0526C395.71 25.7914 395.206 25.5725 394.664 25.3983C394.122 25.2241 393.541 25.0948 392.921 25.0077C392.301 24.9204 391.642 24.8757 390.944 24.8757ZM253.594 25.2117V37.4558C253.594 38.0842 253.629 38.6755 253.692 39.2293C253.758 39.783 253.857 40.301 253.987 40.7801C254.118 41.2592 254.282 41.6999 254.478 42.1043C254.675 42.5087 254.903 42.8761 255.165 43.2059C255.426 43.5294 255.718 43.8128 256.041 44.0555C256.363 44.2981 256.716 44.5011 257.099 44.6629C257.482 44.8246 257.897 44.9452 258.341 45.0261C258.785 45.107 259.258 45.147 259.763 45.147C260.585 45.147 261.373 45.0631 262.127 44.8949C262.881 44.7267 263.601 44.475 264.286 44.139C264.629 43.9648 264.957 43.7721 265.268 43.559C265.58 43.3458 265.876 43.1118 266.156 42.8598C266.437 42.6077 266.701 42.3362 266.95 42.0453C267.199 41.7543 267.432 41.4454 267.65 41.1156L267.764 42.684C267.814 43.0449 267.919 43.3685 268.081 43.6547C268.243 43.9408 268.462 44.1892 268.736 44.4008C269.022 44.6 269.348 44.7485 269.716 44.848C270.083 44.9474 270.492 44.9985 270.94 44.9985C271.214 44.9985 271.514 44.972 271.838 44.9221C272.187 44.8957 272.611 44.8484 273.109 44.7736V40.7033C272.897 40.6768 272.713 40.633 272.558 40.5646C272.402 40.4962 272.274 40.4051 272.174 40.2932C272.087 40.1813 272.022 40.0324 271.979 39.8459C271.935 39.6592 271.912 39.4354 271.912 39.1741V25.2112H266.903V37.344C266.716 37.7422 266.508 38.106 266.277 38.4358C266.047 38.7657 265.795 39.0612 265.52 39.3225C265.259 39.5837 264.98 39.8148 264.687 40.0139C264.394 40.2131 264.086 40.3809 263.762 40.5178C263.451 40.6422 263.137 40.7347 262.819 40.7971C262.502 40.8595 262.179 40.8909 261.855 40.8909C261.587 40.8909 261.336 40.8682 261.1 40.8206C260.865 40.7741 260.648 40.7049 260.445 40.6115C260.243 40.5182 260.056 40.3999 259.886 40.2601C259.716 40.1202 259.563 39.9584 259.426 39.7718C259.289 39.579 259.169 39.3632 259.066 39.1253C258.963 38.8872 258.877 38.6252 258.808 38.3421C258.671 37.7759 258.603 37.1199 258.603 36.3733V25.2112L253.594 25.2117ZM194.864 28.4969C195.325 28.4969 195.765 28.5494 196.182 28.6552C196.6 28.7611 196.996 28.9201 197.369 29.1318C197.743 29.3309 198.079 29.5741 198.379 29.8603C198.678 30.1464 198.939 30.4753 199.163 30.8486C199.4 31.2095 199.591 31.6048 199.734 32.0341C199.877 32.4634 199.974 32.927 200.023 33.4247H189.779C189.829 32.927 189.924 32.4634 190.061 32.0341C190.198 31.6048 190.378 31.2094 190.602 30.8486C190.839 30.4752 191.107 30.1465 191.406 29.8603C191.705 29.5742 192.034 29.3309 192.396 29.1318C192.77 28.9201 193.162 28.761 193.573 28.6552C193.984 28.5494 194.415 28.4969 194.864 28.4969ZM238.791 29.1316C239.128 29.1316 239.464 29.1755 239.8 29.2624C240.137 29.3493 240.473 29.4808 240.809 29.655C241.146 29.8167 241.466 30.0091 241.772 30.2331C242.077 30.4572 242.366 30.7125 242.64 30.9987C242.914 31.2848 243.153 31.5892 243.352 31.9128C243.551 32.2363 243.712 32.5792 243.837 32.9401V37.6061C243.663 38.079 243.402 38.5268 243.053 38.9499C242.729 39.3481 242.342 39.6961 241.893 39.9948C241.469 40.2688 241.009 40.4926 240.51 40.6667C240.037 40.816 239.564 40.8912 239.09 40.8912C238.704 40.8912 238.329 40.8533 237.968 40.7796C237.606 40.7048 237.258 40.5929 236.921 40.4436C236.597 40.2944 236.293 40.116 236.006 39.9105C235.72 39.7052 235.451 39.4725 235.202 39.2112C234.953 38.9501 234.73 38.6665 234.537 38.3616C234.344 38.0566 234.18 37.7296 234.042 37.3812C233.918 37.0203 233.825 36.6513 233.763 36.2718C233.7 35.8923 233.669 35.502 233.669 35.1038C233.669 34.7056 233.695 34.3174 233.753 33.9378C233.809 33.5583 233.893 33.1873 234.005 32.8265C234.13 32.4655 234.279 32.1262 234.453 31.8089C234.628 31.4914 234.828 31.196 235.052 30.9222C235.289 30.6486 235.544 30.4036 235.818 30.1859C236.092 29.9682 236.385 29.7773 236.696 29.6156C237.008 29.4538 237.339 29.3332 237.688 29.2524C238.037 29.1715 238.405 29.1316 238.791 29.1316ZM324.251 29.1316C324.725 29.1316 325.177 29.1928 325.607 29.3172C326.037 29.4415 326.445 29.629 326.831 29.8777C327.217 30.1268 327.562 30.4257 327.868 30.7742C328.173 31.1226 328.437 31.5216 328.662 31.9695C328.899 32.4175 329.077 32.8933 329.196 33.3973C329.314 33.9012 329.372 34.433 329.372 34.9929C329.372 35.5653 329.314 36.1058 329.196 36.616C329.077 37.1262 328.898 37.6055 328.662 38.0535C328.437 38.489 328.173 38.8809 327.868 39.2293C327.562 39.5777 327.217 39.884 326.831 40.1453C326.445 40.3944 326.037 40.5794 325.607 40.7039C325.177 40.8282 324.725 40.8913 324.251 40.8913C323.765 40.8913 323.303 40.8282 322.867 40.7039C322.43 40.5795 322.021 40.3943 321.635 40.1453C321.248 39.8966 320.901 39.6008 320.596 39.2586C320.291 38.9165 320.026 38.5261 319.802 38.0906C319.577 37.6426 319.409 37.1653 319.297 36.6551C319.185 36.1449 319.129 35.6025 319.129 35.0301C319.129 34.4577 319.185 33.9188 319.297 33.4148C319.409 32.9109 319.578 32.4422 319.802 32.0066C320.026 31.5586 320.291 31.1598 320.596 30.8113C320.901 30.4628 321.248 30.1637 321.635 29.9148C322.021 29.6533 322.43 29.4576 322.867 29.3269C323.303 29.1961 323.765 29.1316 324.251 29.1316ZM155.985 32.2684V36.784H167.311V32.2684H155.985ZM216.061 35.5144C216.684 35.5144 217.344 35.5897 218.042 35.739C218.74 35.8633 219.388 36.0504 219.986 36.2995V38.278C219.986 38.5271 219.898 38.8016 219.724 39.1003C219.55 39.3988 219.326 39.6961 219.051 39.9948C218.827 40.2064 218.568 40.4023 218.275 40.5827C217.982 40.763 217.656 40.9296 217.295 41.0788C216.934 41.2156 216.567 41.3169 216.2 41.3853C215.832 41.4537 215.463 41.4889 215.089 41.4889C214.728 41.4889 214.391 41.4548 214.08 41.3853C213.768 41.3169 213.481 41.2156 213.219 41.0788C212.958 40.942 212.726 40.7825 212.527 40.6022C212.327 40.422 212.159 40.2188 212.022 39.9948C211.885 39.7707 211.784 39.5418 211.715 39.3053C211.647 39.0687 211.612 38.8257 211.612 38.5768C211.612 38.3467 211.638 38.1274 211.69 37.9205C211.741 37.7138 211.818 37.5182 211.921 37.3346C212.024 37.1509 212.152 36.9793 212.306 36.819C212.461 36.6588 212.64 36.5106 212.846 36.3737C213.27 36.0876 213.75 35.8723 214.285 35.7292C214.821 35.5859 215.413 35.5144 216.061 35.5144ZM390.87 35.5144C391.493 35.5144 392.153 35.5897 392.851 35.739C393.549 35.8633 394.197 36.0504 394.795 36.2995V38.278C394.795 38.5271 394.707 38.8016 394.533 39.1003C394.358 39.3988 394.134 39.6961 393.86 39.9948C393.635 40.2064 393.378 40.4023 393.085 40.5827C392.792 40.763 392.465 40.9296 392.103 41.0788C391.742 41.2156 391.378 41.3169 391.01 41.3853C390.643 41.4537 390.271 41.4889 389.897 41.4889C389.536 41.4889 389.2 41.4548 388.888 41.3853C388.577 41.3169 388.289 41.2156 388.028 41.0788C387.766 40.942 387.537 40.7825 387.337 40.6022C387.138 40.422 386.97 40.2188 386.833 39.9948C386.696 39.7707 386.592 39.5417 386.523 39.3053C386.455 39.0687 386.42 38.8257 386.42 38.5768C386.42 38.3467 386.446 38.1274 386.498 37.9205C386.549 37.7138 386.626 37.5182 386.729 37.3346C386.832 37.1509 386.96 36.9793 387.114 36.819C387.268 36.6588 387.448 36.5106 387.654 36.3737C388.078 36.0876 388.558 35.8723 389.093 35.7292C389.629 35.5859 390.222 35.5144 390.87 35.5144ZM147.422 54.8543V77.5906C147.422 77.9764 147.45 78.3402 147.503 78.6824C147.555 79.0248 147.635 79.3447 147.741 79.6433C147.847 79.9419 147.979 80.2183 148.138 80.4734C148.297 80.7286 148.482 80.963 148.694 81.1746C148.912 81.3798 149.152 81.5597 149.413 81.7137C149.675 81.8679 149.959 81.9956 150.264 82.0984C150.569 82.2012 150.897 82.2775 151.246 82.3289C151.595 82.3803 151.964 82.4072 152.357 82.4072C153.08 82.4072 153.891 82.3199 154.788 82.1457C155.236 82.0584 155.657 81.9517 156.049 81.8274C156.442 81.703 156.806 81.5594 157.143 81.3977L156.47 77.5911C156.146 77.7404 155.773 77.8647 155.349 77.9641C154.926 78.0635 154.514 78.1127 154.115 78.1127C153.853 78.1127 153.619 78.0748 153.413 78.0011C153.207 77.9267 153.031 77.8144 152.881 77.6652C152.731 77.5034 152.619 77.2708 152.545 76.966C152.47 76.6609 152.433 76.2831 152.433 75.8351V54.8547L147.422 54.8543ZM159.312 54.8543V59.8191H164.32V54.8543H159.312ZM182.153 54.8543C182.153 54.9042 182.102 55.0792 182.003 55.3777C181.928 55.6763 181.755 55.9736 181.48 56.2723C181.343 56.4216 181.165 56.5334 180.947 56.6083C180.728 56.6831 180.471 56.7216 180.172 56.7216C179.873 56.7216 179.589 56.6876 179.321 56.6181C179.053 56.5496 178.801 56.4465 178.564 56.3097C178.116 56.0111 177.641 55.7138 177.143 55.4152C176.893 55.2659 176.611 55.1539 176.294 55.0791C175.976 55.0043 175.624 54.9657 175.238 54.9657C174.826 54.9657 174.446 55.0168 174.097 55.1162C173.748 55.2156 173.43 55.3645 173.143 55.5634C172.869 55.7626 172.62 55.9829 172.396 56.2255C172.172 56.4682 171.972 56.7342 171.797 57.0204C171.473 57.568 171.237 58.1013 171.087 58.624C170.938 59.1466 170.863 59.5211 170.863 59.7451H173.63C173.63 59.7186 173.655 59.5572 173.704 59.2587C173.779 58.9601 173.94 58.6751 174.189 58.4013C174.326 58.252 174.498 58.1401 174.704 58.0653C174.909 57.9909 175.149 57.9519 175.423 57.9519C175.698 57.9519 175.96 57.9859 176.21 58.0555C176.459 58.1239 176.695 58.2271 176.92 58.3639C177.368 58.6375 177.853 58.9227 178.377 59.2213C178.651 59.3581 178.95 59.4613 179.274 59.5297C179.598 59.5981 179.947 59.6333 180.321 59.6333C180.757 59.6333 181.156 59.5788 181.518 59.473C181.879 59.3672 182.203 59.2099 182.49 58.9984C182.789 58.7867 183.057 58.5559 183.294 58.307C183.53 58.0579 183.735 57.7905 183.91 57.5043C184.283 56.907 184.546 56.3595 184.696 55.8617C184.845 55.3638 184.919 55.0279 184.919 54.8538L182.153 54.8543ZM215.2 54.8543V59.8191H220.211V54.8543H215.2ZM224.696 54.8543V77.5906C224.696 77.9764 224.722 78.3402 224.776 78.6824C224.829 79.0248 224.909 79.3447 225.015 79.6433C225.121 79.9419 225.253 80.2183 225.412 80.4734C225.571 80.7286 225.755 80.963 225.967 81.1746C226.185 81.3798 226.425 81.5597 226.687 81.7137C226.948 81.8679 227.232 81.9956 227.538 82.0984C227.843 82.2012 228.171 82.2775 228.519 82.3289C228.868 82.3803 229.238 82.4072 229.63 82.4072C230.353 82.4072 231.164 82.3199 232.061 82.1457C232.51 82.0584 232.93 81.9517 233.323 81.8274C233.715 81.703 234.08 81.5594 234.416 81.3977L233.743 77.5911C233.419 77.7404 233.046 77.8647 232.623 77.9641C232.199 78.0635 231.787 78.1127 231.389 78.1127C231.127 78.1127 230.892 78.0748 230.686 78.0011C230.481 77.9267 230.304 77.8144 230.155 77.6652C230.005 77.5034 229.893 77.2708 229.818 76.966C229.743 76.6609 229.706 76.2831 229.706 75.8351V54.8547L224.696 54.8543ZM276.51 54.8543V82.1082H281.521V76.284L284.175 73.6707L289.894 82.1082H295.241L287.428 70.8699L294.717 62.5828H289.409L281.521 71.3562V54.8543H276.51ZM127.647 55.0788V59.5202H131.796V55.0788H127.647ZM134.825 55.0788V59.5202H138.973V55.0788H134.825ZM265.558 62.1706C264.761 62.1706 264.013 62.2371 263.315 62.3679C262.617 62.4986 261.969 62.6944 261.371 62.9558C260.785 63.2169 260.261 63.5301 259.8 63.8972C259.339 64.2642 258.94 64.686 258.603 65.1589C258.279 65.6193 258.038 66.1246 257.876 66.6784C257.714 67.2322 257.631 67.8341 257.631 68.4812C257.631 69.0163 257.691 69.5042 257.809 69.946C257.928 70.3878 258.106 70.7831 258.343 71.1315C258.592 71.4675 258.901 71.7754 259.268 72.0554C259.636 72.3354 260.061 72.5872 260.547 72.8112C261.519 73.2592 262.728 73.7192 264.173 74.1921C265.046 74.4412 265.781 74.6649 266.379 74.864C266.691 74.9634 266.966 75.0737 267.203 75.192C267.44 75.3103 267.639 75.4381 267.801 75.5748C267.963 75.6992 268.084 75.8515 268.165 76.0319C268.246 76.2125 268.286 76.4204 268.286 76.6569C268.286 77.0054 268.211 77.3096 268.061 77.5709C267.912 77.8321 267.688 78.051 267.388 78.2252C267.102 78.3994 266.766 78.5287 266.379 78.6159C265.993 78.7032 265.557 78.7466 265.071 78.7466C264.547 78.7466 264.011 78.6907 263.463 78.5788C262.915 78.4669 262.354 78.2987 261.781 78.0748C261.22 77.8507 260.653 77.5659 260.08 77.2175C259.506 76.869 258.929 76.4579 258.343 75.985L256.548 79.2331C257.096 79.7682 257.696 80.2368 258.351 80.6413C259.005 81.0457 259.713 81.3851 260.473 81.6589C261.233 81.9325 262.012 82.1392 262.81 82.2761C263.607 82.4129 264.424 82.4813 265.259 82.4813C265.857 82.4813 266.425 82.4472 266.962 82.3777C267.499 82.3093 268.005 82.208 268.482 82.0712C268.958 81.9344 269.406 81.7628 269.821 81.5575C270.237 81.3523 270.622 81.1126 270.977 80.8388C271.332 80.5652 271.644 80.265 271.91 79.9384C272.177 79.6118 272.398 79.2574 272.575 78.8779C272.753 78.4983 272.887 78.0935 272.976 77.6611C273.065 77.2286 273.109 76.7694 273.109 76.2841C273.109 75.6868 273.041 75.155 272.903 74.6883C272.766 74.2217 272.559 73.8193 272.285 73.4833C272.011 73.1348 271.67 72.8148 271.259 72.5223C270.847 72.2298 270.367 71.9658 269.819 71.7294C268.747 71.2565 267.427 70.7965 265.857 70.3485C265.084 70.0995 264.424 69.8737 263.876 69.6747C263.352 69.4755 262.953 69.2518 262.679 69.0028C262.554 68.866 262.459 68.705 262.397 68.5185C262.335 68.3318 262.305 68.1201 262.305 67.8837C262.305 67.6225 262.339 67.3914 262.407 67.1923C262.475 66.9931 262.579 66.8253 262.716 66.6883C262.865 66.539 263.033 66.4113 263.22 66.3056C263.407 66.1997 263.612 66.1159 263.836 66.0535C264.31 65.9291 264.809 65.8679 265.333 65.8679C265.794 65.8679 266.251 65.9133 266.705 66.0066C267.16 66.1 267.612 66.2398 268.061 66.4266C268.509 66.6008 268.972 66.8282 269.446 67.1082C269.919 67.3882 270.404 67.7224 270.903 68.1082L272.921 64.9343C272.41 64.449 271.872 64.0328 271.306 63.6844C270.739 63.3359 270.143 63.0541 269.52 62.8426C268.897 62.6185 268.254 62.4507 267.593 62.3387C266.933 62.2268 266.256 62.1706 265.558 62.1706ZM177.892 62.2095C177.094 62.2095 176.337 62.2775 175.621 62.4147C174.904 62.5516 174.228 62.7564 173.593 63.03C172.957 63.2915 172.367 63.6063 171.825 63.9734C171.283 64.3404 170.789 64.7602 170.34 65.2331C169.904 65.706 169.517 66.2133 169.181 66.7546C168.844 67.2959 168.557 67.8714 168.32 68.4812C168.083 69.0909 167.906 69.7188 167.788 70.3659C167.67 71.013 167.61 71.6796 167.61 72.364C167.61 73.036 167.67 73.6919 167.788 74.3327C167.906 74.9736 168.083 75.5979 168.32 76.2077C168.557 76.8175 168.844 77.395 169.181 77.9363C169.517 78.4776 169.904 78.9829 170.34 79.4558C170.789 79.9287 171.283 80.352 171.825 80.7253C172.367 81.0987 172.957 81.4223 173.593 81.696C174.228 81.9572 174.904 82.1533 175.621 82.2839C176.337 82.4147 177.094 82.4812 177.892 82.4812C178.689 82.4812 179.446 82.4147 180.162 82.2839C180.879 82.1531 181.555 81.9574 182.19 81.696C182.826 81.4224 183.411 81.0986 183.947 80.7253C184.483 80.3519 184.97 79.9287 185.406 79.4558C185.854 78.9829 186.247 78.4776 186.583 77.9363C186.92 77.395 187.2 76.8175 187.424 76.2077C187.661 75.5979 187.838 74.9736 187.956 74.3327C188.075 73.6919 188.134 73.036 188.134 72.364C188.134 71.6796 188.075 71.013 187.956 70.3659C187.838 69.7188 187.661 69.0909 187.424 68.4812C187.2 67.8714 186.92 67.2959 186.583 66.7546C186.247 66.2133 185.854 65.706 185.406 65.2331C184.957 64.7602 184.461 64.3405 183.919 63.9734C183.377 63.6064 182.789 63.2913 182.153 63.03C181.53 62.7563 180.863 62.5516 180.153 62.4147C179.442 62.2779 178.689 62.2095 177.892 62.2095ZM202.64 62.2095C201.905 62.2095 201.21 62.2934 200.555 62.4616C199.901 62.6298 199.288 62.8814 198.715 63.2174C198.142 63.5409 197.618 63.9257 197.144 64.3737C196.671 64.8217 196.247 65.3325 195.873 65.9049V62.5456H191.5V90.0593H196.509V78.6726C196.833 79.2574 197.218 79.784 197.667 80.2507C198.115 80.7173 198.627 81.1249 199.2 81.4733C199.786 81.8093 200.414 82.0612 201.087 82.2292C201.76 82.397 202.479 82.4813 203.239 82.4813C203.656 82.4813 204.061 82.4548 204.453 82.3973C204.846 82.3414 205.226 82.2575 205.593 82.1453C205.961 82.0334 206.317 81.8932 206.659 81.7253C207.002 81.5571 207.331 81.3614 207.649 81.1375C207.973 80.9073 208.28 80.6566 208.568 80.3875C208.856 80.1184 209.126 79.8302 209.378 79.5222C209.63 79.2142 209.865 78.8867 210.082 78.5398C210.299 78.1928 210.496 77.826 210.677 77.4402C210.864 77.0544 211.027 76.6583 211.167 76.2507C211.307 75.8432 211.424 75.4242 211.518 74.9949C211.611 74.5656 211.682 74.1256 211.729 73.6745C211.775 73.2235 211.799 72.7607 211.799 72.2878C211.799 71.5909 211.74 70.9193 211.621 70.2722C211.503 69.6252 211.326 69.0043 211.089 68.407C210.865 67.7972 210.593 67.2233 210.276 66.6882C209.958 66.1532 209.594 65.6565 209.182 65.196C208.771 64.7231 208.323 64.3034 207.837 63.9363C207.351 63.5693 206.827 63.2543 206.266 62.993C205.718 62.7318 205.142 62.5357 204.537 62.405C203.933 62.2742 203.301 62.2095 202.64 62.2095ZM244.51 62.2095C243.762 62.2095 243.03 62.262 242.313 62.3679C241.597 62.4737 240.896 62.6309 240.211 62.8425C239.538 63.0541 238.871 63.3201 238.21 63.6374C237.55 63.9549 236.897 64.3237 236.249 64.7468L237.856 68.032C238.392 67.671 238.916 67.3545 239.427 67.0807C239.938 66.8071 240.435 66.576 240.921 66.3894C241.407 66.2027 241.906 66.0628 242.417 65.9695C242.928 65.8761 243.452 65.8308 243.988 65.8308C244.71 65.8308 245.343 65.9147 245.885 66.0829C246.156 66.1668 246.404 66.2714 246.63 66.3973C246.856 66.5231 247.057 66.6705 247.238 66.8387C247.425 67.0065 247.589 67.1917 247.729 67.3953C247.869 67.599 247.988 67.8218 248.081 68.0614C248.175 68.301 248.243 68.5575 248.29 68.8328C248.337 69.1084 248.361 69.4026 248.361 69.7137V70.7586C248.049 70.6218 247.709 70.5027 247.342 70.4029C246.974 70.3035 246.578 70.2231 246.155 70.1607C245.307 70.0364 244.472 69.9732 243.649 69.9732C242.827 69.9732 242.053 70.0397 241.324 70.1705C240.595 70.3013 239.912 70.497 239.276 70.7584C238.641 71.0195 238.073 71.3362 237.575 71.7096C237.076 72.083 236.647 72.5133 236.286 72.9986C236.111 73.2352 235.959 73.4802 235.828 73.7369C235.697 73.9935 235.587 74.2608 235.5 74.5377C235.325 75.0915 235.24 75.6862 235.24 76.3209C235.24 76.9057 235.311 77.462 235.454 77.9908C235.598 78.5197 235.811 79.0218 236.098 79.4947C236.397 79.9551 236.749 80.3678 237.154 80.7349C237.559 81.1019 238.018 81.4241 238.529 81.6979C239.052 81.959 239.606 82.155 240.191 82.2857C240.777 82.4165 241.394 82.4811 242.042 82.4811C242.702 82.4811 243.357 82.4059 244.005 82.2566C244.653 82.1073 245.294 81.8836 245.93 81.5848C246.565 81.2862 247.149 80.9259 247.678 80.5027C248.208 80.0796 248.684 79.5932 249.108 79.0457L249.219 80.0535C249.282 80.377 249.392 80.6762 249.548 80.95C249.704 81.2236 249.905 81.474 250.154 81.698C250.415 81.9222 250.738 82.0899 251.118 82.2019C251.498 82.3138 251.936 82.3701 252.434 82.3701C252.683 82.3701 252.983 82.3437 253.332 82.2938C253.706 82.2439 254.118 82.1826 254.566 82.1082V78.0379C254.354 78.0114 254.17 77.9657 254.015 77.8973C253.859 77.8289 253.731 77.7397 253.631 77.6278C253.544 77.5159 253.479 77.367 253.436 77.1805C253.392 76.9938 253.369 76.768 253.369 76.5067V70.2724C253.369 69.6252 253.321 69.0166 253.222 68.4442C253.124 67.8717 252.977 67.3365 252.78 66.8387C252.584 66.3409 252.339 65.881 252.045 65.4579C251.75 65.0348 251.407 64.6481 251.014 64.2997C250.628 63.9512 250.203 63.647 249.739 63.3856C249.275 63.1245 248.771 62.9055 248.229 62.7313C247.687 62.5571 247.106 62.4259 246.486 62.3387C245.867 62.2514 245.208 62.2095 244.51 62.2095ZM305.409 62.2095C304.612 62.2095 303.855 62.2775 303.139 62.4147C302.422 62.5516 301.746 62.7564 301.11 63.03C300.475 63.2915 299.886 63.6063 299.344 63.9734C298.802 64.3404 298.307 64.7602 297.858 65.2331C297.422 65.706 297.035 66.2133 296.698 66.7546C296.362 67.2959 296.076 67.8714 295.84 68.4812C295.603 69.0909 295.424 69.7188 295.306 70.3659C295.187 71.013 295.128 71.6795 295.128 72.364C295.128 73.036 295.187 73.6919 295.306 74.3327C295.424 74.9736 295.603 75.5979 295.84 76.2077C296.076 76.8175 296.362 77.3949 296.698 77.9363C297.035 78.4776 297.422 78.9829 297.858 79.4558C298.307 79.9287 298.802 80.352 299.344 80.7253C299.886 81.0987 300.475 81.4223 301.11 81.696C301.746 81.9572 302.422 82.1533 303.139 82.2839C303.855 82.4147 304.612 82.4812 305.409 82.4812C306.207 82.4812 306.963 82.4147 307.68 82.2839C308.396 82.1531 309.073 81.9574 309.708 81.696C310.344 81.4224 310.929 81.0986 311.464 80.7253C312 80.3519 312.487 79.9287 312.923 79.4558C313.372 78.9829 313.764 78.4776 314.101 77.9363C314.437 77.3949 314.717 76.8175 314.942 76.2077C315.179 75.5979 315.357 74.9736 315.476 74.3327C315.594 73.6919 315.652 73.036 315.652 72.364C315.652 71.6795 315.594 71.013 315.476 70.3659C315.357 69.7188 315.179 69.0909 314.942 68.4812C314.717 67.8714 314.437 67.2959 314.101 66.7546C313.764 66.2133 313.372 65.706 312.923 65.2331C312.475 64.7602 311.979 64.3405 311.437 63.9734C310.895 63.6064 310.306 63.2913 309.671 63.03C309.048 62.7563 308.38 62.5516 307.67 62.4147C306.96 62.2779 306.207 62.2095 305.409 62.2095ZM326.98 62.2095C326.307 62.2095 325.662 62.2741 325.045 62.4049C324.429 62.5357 323.84 62.7315 323.279 62.9928C322.731 63.2419 322.216 63.546 321.736 63.9069C321.256 64.2678 320.812 64.686 320.4 65.1588C320.002 65.6193 319.646 66.1159 319.334 66.651C319.023 67.1861 318.755 67.758 318.531 68.3678C318.306 68.9776 318.138 69.6126 318.026 70.2721C317.914 70.9317 317.858 71.6174 317.858 72.3268C317.858 72.9988 317.91 73.6511 318.016 74.2858C318.122 74.9205 318.282 75.5361 318.493 76.1335C318.705 76.7308 318.961 77.294 319.26 77.8229C319.559 78.3518 319.903 78.8468 320.289 79.3073C320.688 79.7677 321.12 80.1788 321.588 80.5397C322.055 80.9007 322.556 81.212 323.092 81.4733C323.64 81.7224 324.213 81.9074 324.811 82.0318C325.409 82.1562 326.032 82.2193 326.68 82.2193C327.341 82.2193 327.984 82.1441 328.607 81.9948C329.23 81.8455 329.834 81.6218 330.42 81.3229C331.018 81.0119 331.547 80.6393 332.008 80.2038C332.469 79.7682 332.861 79.2696 333.185 78.7096V81.1745C333.185 81.8092 333.117 82.3846 332.98 82.901C332.843 83.4175 332.638 83.8739 332.364 84.2721C332.102 84.6828 331.792 85.0379 331.437 85.3366C331.082 85.6352 330.681 85.8784 330.232 86.0651C329.796 86.2643 329.335 86.4128 328.849 86.5123C328.363 86.6117 327.852 86.6628 327.316 86.6628C326.68 86.6628 326.06 86.5963 325.456 86.4655C324.852 86.3347 324.263 86.1389 323.69 85.8776C323.129 85.6164 322.614 85.3049 322.147 84.944C321.679 84.583 321.259 84.174 320.885 83.7136L318.157 86.364C318.68 87.0111 319.257 87.5829 319.886 88.0807C320.515 88.5785 321.198 89.0018 321.934 89.3503C322.301 89.5306 322.689 89.6874 323.097 89.823C323.505 89.9583 323.934 90.0724 324.382 90.1627C324.831 90.253 325.299 90.3207 325.788 90.366C326.278 90.411 326.786 90.4326 327.316 90.4326C327.839 90.4326 328.348 90.4099 328.843 90.3623C329.339 90.3158 329.821 90.2466 330.289 90.1532C330.756 90.0599 331.209 89.9435 331.648 89.8036C332.087 89.6638 332.512 89.5002 332.923 89.3134C333.334 89.1331 333.723 88.9304 334.089 88.7079C334.455 88.4853 334.799 88.2419 335.12 87.9775C335.44 87.7129 335.74 87.4284 336.015 87.122C336.291 86.8155 336.544 86.488 336.774 86.1396C337.011 85.7975 337.218 85.4375 337.396 85.0595C337.574 84.6815 337.721 84.2857 337.84 83.872C337.958 83.4582 338.047 83.0267 338.106 82.5771C338.165 82.1276 338.194 81.6601 338.194 81.1748V62.5458H333.821V65.9794C333.447 65.407 333.023 64.8946 332.549 64.4404C332.076 63.9862 331.552 63.5908 330.979 63.2548C330.692 63.0806 330.395 62.9283 330.085 62.7978C329.775 62.667 329.452 62.5566 329.119 62.4697C328.452 62.2955 327.74 62.2095 326.98 62.2095ZM124.17 62.5455V74.7896C124.17 75.418 124.202 76.0093 124.268 76.5631C124.333 77.1168 124.432 77.6328 124.563 78.1119C124.694 78.591 124.858 79.0337 125.054 79.4381C125.25 79.8425 125.479 80.2099 125.74 80.5396C126.002 80.8632 126.294 81.1466 126.617 81.3893C126.939 81.6319 127.292 81.8329 127.675 81.9947C128.058 82.1565 128.471 82.279 128.915 82.3599C129.359 82.4407 129.834 82.4808 130.338 82.4808C131.161 82.4808 131.949 82.3969 132.703 82.2287C133.457 82.0605 134.177 81.8088 134.862 81.4728C135.205 81.2986 135.533 81.1039 135.844 80.8908C136.156 80.6776 136.452 80.4455 136.732 80.1935C137.012 79.9414 137.277 79.6699 137.526 79.3791C137.775 79.0881 138.008 78.7772 138.226 78.4474L138.338 80.0158C138.388 80.3767 138.494 80.7003 138.656 80.9865C138.818 81.2726 139.036 81.523 139.31 81.7345C139.596 81.9337 139.924 82.0823 140.291 82.1818C140.659 82.2812 141.067 82.3303 141.516 82.3303C141.79 82.3303 142.09 82.3077 142.414 82.2563C142.762 82.2298 143.186 82.1826 143.685 82.1077V78.0374C143.473 78.011 143.289 77.9652 143.133 77.8968C142.977 77.8284 142.85 77.7392 142.75 77.6273C142.663 77.5154 142.598 77.3646 142.554 77.1781C142.511 76.9914 142.488 76.7676 142.488 76.5063V62.5453H137.479V74.6781C137.292 75.0763 137.084 75.4401 136.853 75.7699C136.623 76.0999 136.37 76.3953 136.096 76.6567C135.835 76.9178 135.556 77.147 135.263 77.3461C134.97 77.5453 134.662 77.715 134.338 77.8519C134.027 77.9763 133.713 78.0689 133.395 78.1312C133.078 78.1936 132.755 78.225 132.431 78.225C132.163 78.225 131.911 78.2023 131.676 78.1547C131.441 78.1082 131.224 78.0372 131.021 77.9438C130.819 77.8505 130.631 77.7341 130.462 77.5942C130.292 77.4544 130.139 77.2907 130.002 77.104C129.865 76.9112 129.745 76.6955 129.642 76.4575C129.539 76.2194 129.453 75.9593 129.384 75.6762C129.247 75.11 129.179 74.4541 129.179 73.7075V62.5454L124.17 62.5455ZM159.312 62.5455V82.108H164.32V62.5455H159.312ZM215.2 62.5455V82.108H220.211V62.5455H215.2ZM342.532 62.5455V74.7896C342.532 75.4181 342.566 76.0093 342.63 76.5631C342.695 77.1169 342.792 77.6328 342.923 78.1119C343.054 78.591 343.218 79.0336 343.414 79.4381C343.61 79.8425 343.841 80.2098 344.102 80.5396C344.364 80.8632 344.656 81.1466 344.979 81.3893C345.301 81.6319 345.653 81.8329 346.037 81.9947C346.42 82.1565 346.833 82.279 347.277 82.3599C347.721 82.4407 348.196 82.4808 348.7 82.4808C349.523 82.4808 350.311 82.3969 351.065 82.2287C351.819 82.0605 352.539 81.8088 353.224 81.4728C353.567 81.2986 353.893 81.1039 354.204 80.8908C354.516 80.6776 354.812 80.4455 355.092 80.1935C355.372 79.9414 355.637 79.6699 355.886 79.3791C356.135 79.0881 356.37 78.7772 356.588 78.4474L356.699 80.0158C356.749 80.3767 356.856 80.7003 357.018 80.9865C357.18 81.2726 357.397 81.523 357.671 81.7345C357.958 81.9337 358.286 82.0823 358.653 82.1818C359.021 82.2812 359.429 82.3303 359.877 82.3303C360.151 82.3303 360.451 82.3077 360.775 82.2563C361.124 82.2298 361.548 82.1826 362.046 82.1077V78.0374C361.835 78.011 361.651 77.9652 361.495 77.8968C361.339 77.8284 361.211 77.7392 361.112 77.6273C361.025 77.5154 360.958 77.3646 360.914 77.1781C360.87 76.9914 360.849 76.7676 360.849 76.5063V62.5453H355.84V74.6781C355.654 75.0764 355.443 75.4401 355.213 75.7699C354.982 76.0999 354.73 76.3953 354.456 76.6567C354.194 76.9178 353.917 77.147 353.625 77.3461C353.332 77.5453 353.024 77.715 352.7 77.8519C352.388 77.9763 352.073 78.0689 351.755 78.1312C351.437 78.1936 351.117 78.225 350.793 78.225C350.525 78.225 350.273 78.2023 350.038 78.1547C349.803 78.1082 349.585 78.0372 349.382 77.9438C349.18 77.8505 348.993 77.7341 348.823 77.5942C348.653 77.454 348.501 77.2907 348.363 77.104C348.226 76.9112 348.106 76.6955 348.004 76.4575C347.901 76.2194 347.814 75.9593 347.745 75.6762C347.608 75.11 347.54 74.4541 347.54 73.7075V62.5454L342.532 62.5455ZM177.892 66.4654C178.365 66.4654 178.817 66.5266 179.247 66.651C179.677 66.7753 180.085 66.9628 180.471 67.2115C180.858 67.4602 181.203 67.7595 181.508 68.108C181.813 68.4564 182.078 68.8533 182.302 69.3014C182.539 69.7493 182.717 70.2251 182.836 70.7291C182.954 71.2331 183.012 71.7667 183.012 72.3267C183.012 72.8992 182.954 73.4396 182.836 73.9498C182.717 74.46 182.539 74.9393 182.302 75.3873C182.078 75.8228 181.813 76.2146 181.508 76.5631C181.203 76.9115 180.858 77.2158 180.471 77.4771C180.085 77.7262 179.677 77.9133 179.247 78.0377C178.817 78.1621 178.365 78.2251 177.892 78.2251C177.406 78.2251 176.945 78.1621 176.509 78.0377C176.073 77.9134 175.661 77.7259 175.275 77.4771C174.888 77.2281 174.542 76.9326 174.236 76.5904C173.931 76.2483 173.666 75.86 173.442 75.4244C173.218 74.9764 173.05 74.4971 172.938 73.9869C172.825 73.4767 172.769 72.9363 172.769 72.3639C172.769 71.7915 172.825 71.2526 172.938 70.7486C173.05 70.2446 173.218 69.774 173.442 69.3384C173.667 68.8904 173.931 68.4935 174.236 68.1451C174.542 67.7966 174.888 67.4975 175.275 67.2486C175.661 66.9871 176.073 66.7914 176.509 66.6607C176.945 66.5299 177.406 66.4654 177.892 66.4654ZM201.256 66.4654C201.642 66.4654 202.013 66.5032 202.368 66.5769C202.724 66.6518 203.063 66.7636 203.387 66.9129C203.724 67.0622 204.039 67.2425 204.332 67.4539C204.625 67.6656 204.894 67.9086 205.144 68.1824C205.393 68.4436 205.612 68.7271 205.799 69.032C205.986 69.337 206.142 69.6622 206.266 70.0106C206.403 70.3591 206.507 70.7248 206.575 71.1043C206.644 71.4839 206.677 71.8772 206.677 72.2879C206.677 72.6737 206.646 73.0533 206.583 73.4266C206.521 73.8 206.428 74.1673 206.303 74.5281C206.191 74.8766 206.048 75.2108 205.873 75.5282C205.699 75.8456 205.494 76.1462 205.257 76.4324C205.033 76.7061 204.786 76.953 204.518 77.1707C204.25 77.3884 203.961 77.5773 203.649 77.7391C203.338 77.9008 203.007 78.0233 202.658 78.1042C202.309 78.1851 201.941 78.2251 201.555 78.2251C201.206 78.2251 200.861 78.1828 200.518 78.102C200.175 78.0211 199.836 77.9005 199.499 77.7387C199.163 77.5645 198.846 77.3599 198.547 77.1235C198.248 76.8869 197.967 76.6194 197.706 76.3207C197.456 76.0221 197.23 75.7072 197.031 75.3774C196.832 75.0474 196.658 74.7031 196.509 74.3422V69.7504C196.658 69.2775 196.895 68.842 197.219 68.4438C197.568 68.0455 197.967 67.6955 198.416 67.3969C198.864 67.0983 199.325 66.8745 199.798 66.725C200.297 66.5508 200.782 66.4654 201.256 66.4654ZM305.409 66.4654C305.883 66.4654 306.335 66.5266 306.765 66.651C307.195 66.7753 307.603 66.9624 307.989 67.2115C308.375 67.4602 308.72 67.7595 309.026 68.108C309.331 68.4564 309.595 68.8533 309.82 69.3014C310.056 69.7493 310.235 70.2251 310.354 70.7291C310.472 71.2331 310.531 71.7667 310.531 72.3267C310.531 72.8992 310.472 73.4396 310.354 73.9498C310.235 74.46 310.056 74.9393 309.82 75.3873C309.595 75.8229 309.331 76.2146 309.026 76.5631C308.72 76.9115 308.375 77.2158 307.989 77.4771C307.603 77.7262 307.195 77.9133 306.765 78.0377C306.335 78.1621 305.883 78.2251 305.409 78.2251C304.923 78.2251 304.463 78.1621 304.027 78.0377C303.59 77.9134 303.179 77.7259 302.792 77.4771C302.406 77.2281 302.059 76.9326 301.754 76.5904C301.448 76.248 301.184 75.86 300.96 75.4244C300.735 74.9764 300.567 74.4971 300.455 73.9869C300.343 73.4767 300.287 72.9363 300.287 72.3639C300.287 71.7915 300.343 71.2526 300.455 70.7486C300.567 70.2446 300.735 69.774 300.96 69.3384C301.184 68.8904 301.449 68.4935 301.754 68.1451C302.059 67.7966 302.406 67.4975 302.792 67.2486C303.179 66.9871 303.59 66.7914 304.027 66.6607C304.463 66.5299 304.923 66.4654 305.409 66.4654ZM328.063 66.4654C328.425 66.4654 328.777 66.5055 329.119 66.5864C329.462 66.6673 329.797 66.7878 330.121 66.9496C330.457 67.0989 330.774 67.2825 331.073 67.5003C331.372 67.718 331.652 67.97 331.914 68.2562C332.188 68.5424 332.432 68.8538 332.644 69.1898C332.856 69.5258 333.036 69.8861 333.185 70.2718V74.9398C333.011 75.3629 332.762 75.7862 332.438 76.2093C332.114 76.6076 331.739 76.9556 331.316 77.2542C330.892 77.5528 330.431 77.7891 329.933 77.9632C329.435 78.1374 328.911 78.2251 328.362 78.2251C327.989 78.2251 327.624 78.1866 327.269 78.1118C326.914 78.0369 326.569 77.9251 326.233 77.7758C325.909 77.6265 325.602 77.45 325.315 77.2445C325.029 77.0393 324.761 76.8066 324.511 76.5452C324.275 76.2841 324.065 76.0005 323.878 75.6956C323.691 75.3906 323.528 75.0637 323.391 74.7152C323.254 74.3667 323.15 74.0064 323.082 73.6331C323.013 73.2597 322.98 72.8732 322.98 72.475C322.98 72.0892 323.006 71.7132 323.064 71.3461C323.12 70.9791 323.204 70.6203 323.316 70.2718C323.441 69.9109 323.589 69.57 323.764 69.2465C323.939 68.9229 324.138 68.6166 324.363 68.3304C324.587 68.0318 324.834 67.7677 325.102 67.5375C325.37 67.3073 325.659 67.1114 325.97 66.9496C326.282 66.7878 326.613 66.6673 326.962 66.5864C327.311 66.5055 327.677 66.4654 328.063 66.4654ZM244.436 72.8482C245.059 72.8482 245.719 72.9235 246.417 73.0728C247.115 73.1971 247.763 73.3841 248.361 73.6333V75.6118C248.361 75.8605 248.273 76.1334 248.099 76.4321C247.924 76.7307 247.7 77.0299 247.426 77.3286C247.202 77.5402 246.942 77.736 246.65 77.9165C246.357 78.0968 246.031 78.2612 245.67 78.4106C245.308 78.5474 244.942 78.6506 244.575 78.7194C244.207 78.7878 243.837 78.8211 243.464 78.8211C243.102 78.8211 242.766 78.787 242.454 78.7194C242.143 78.651 241.856 78.5478 241.594 78.4106C241.332 78.2738 241.101 78.1166 240.902 77.936C240.702 77.7557 240.534 77.5526 240.397 77.3286C240.26 77.1045 240.159 76.8736 240.09 76.6372C240.022 76.4006 239.986 76.1595 239.986 75.9106C239.986 75.6805 240.013 75.4612 240.065 75.2543C240.116 75.0476 240.193 74.852 240.296 74.6684C240.398 74.4847 240.526 74.3131 240.681 74.1528C240.835 73.9926 241.015 73.8444 241.221 73.7075C241.644 73.4214 242.124 73.2061 242.66 73.0629C243.196 72.9197 243.787 72.8482 244.436 72.8482Z" fill="#EEEEEE"/>
<path d="M474.766 48.0273V12.6729H462V0H501.87V12.6729H489.179V48.0273H474.766Z" fill="#EEEEEE"/>
<path d="M530.491 48.0277L528.777 42.4118H511.659L509.944 48.0277H493.613L511.159 0.000366211H529.276L546.825 48.0277H530.491ZM515.512 29.7383H524.927L520.22 14.2551L515.512 29.7383Z" fill="#EEEEEE"/>
<path d="M549.434 48.0273V0H563.847V35.3573H581.884V48.0273H549.434Z" fill="#EEEEEE"/>
<path d="M474.766 99.0604V63.7106H462V51.0354H501.87V63.7106H489.179V99.0604H474.766Z" fill="#EEEEEE"/>
<path d="M505.189 99.0599V51.0354H541.282V63.7101H519.598V68.4577H540.783V81.1329H519.598V86.387H541.282V99.0599H505.189Z" fill="#EEEEEE"/>
<path d="M625.475 99.0604V80.7032H608.426V99.0604H594.016V51.0354H608.426V68.0274H625.475V51.0354H639.882V99.0604H625.475Z" fill="#EEEEEE"/>
<mask id="mask0_10_177" style="mask-type:luminance" maskUnits="userSpaceOnUse" x="462" y="0" width="178" height="100">
<path d="M462 0H640V100H462V0Z" fill="light"/>
</mask>
<g mask="url(#mask0_10_177)">
<path d="M543.711 75.0873C543.711 89.8445 554.981 99.926 569.886 99.926C582.368 99.926 588.723 92.293 591.502 85.8833L579.088 80.126C577.875 83.8685 574.163 87.1101 569.886 87.1101C562.97 87.1101 558.335 81.783 558.335 75.0873C558.335 68.3904 562.97 63.0639 569.886 63.0639C574.163 63.0639 577.875 66.3004 579.088 70.04L591.502 64.2126C588.641 57.5916 582.368 50.2451 569.886 50.2451C554.981 50.2451 543.711 60.2485 543.711 75.0873Z" fill="#EEEEEE"/>
</g>
<path d="M424.453 0V100H425.953V0H424.453Z" fill="#EEEEEE"/>
</svg>
