<svg width="640" height="100" viewBox="0 0 640 100" fill="none" xmlns="http://www.w3.org/2000/svg">
<path fill-rule="evenodd" clip-rule="evenodd" d="M0 0V100H100.137V0H0ZM13.0177 21.9999L52.1003 44.5332V51.4668L13.0177 73.9999V58.3984L31.056 48L13.0177 37.5996V21.9999ZM52.1003 73.9999H87.1188V87H52.1003V73.9999Z" fill="#870042"/>
<path fill-rule="evenodd" clip-rule="evenodd" d="M52.1002 74V87H87.1186V74H52.1002Z" fill="#EEEEEE"/>
<path fill-rule="evenodd" clip-rule="evenodd" d="M13.0176 22V37.5996L31.0559 48L13.0176 58.3984V74L52.1002 51.4668V44.5332L13.0176 22Z" fill="#EEEEEE"/>
<path d="M243.836 17.5195V28.6446C243.512 28.097 243.123 27.6003 242.668 27.1523C242.214 26.7043 241.693 26.3055 241.108 25.957C240.821 25.7767 240.525 25.6199 240.22 25.4844C239.914 25.3491 239.599 25.2349 239.275 25.1446C238.627 24.9643 237.942 24.8751 237.22 24.8751C236.796 24.8751 236.384 24.9016 235.984 24.959C235.583 25.015 235.195 25.0989 234.818 25.2111C234.441 25.323 234.074 25.4632 233.721 25.631C233.367 25.7992 233.026 25.995 232.696 26.2189C232.366 26.443 232.053 26.6869 231.759 26.9513C231.465 27.2159 231.188 27.5 230.93 27.8049C230.671 28.1099 230.431 28.4361 230.208 28.7814C229.986 29.1269 229.779 29.4913 229.592 29.8771C229.405 30.2566 229.241 30.6481 229.101 31.0509C228.961 31.4538 228.844 31.8689 228.751 32.2951C228.658 32.7213 228.588 33.1581 228.542 33.6076C228.495 34.0571 228.471 34.5195 228.471 34.9923C228.471 35.7017 228.527 36.3891 228.639 37.0548C228.751 37.7206 228.92 38.3643 229.144 38.9865C229.381 39.5962 229.661 40.1682 229.985 40.7033C230.309 41.2384 230.677 41.737 231.088 42.1974C231.512 42.6578 231.969 43.069 232.461 43.4298C232.953 43.7908 233.48 44.1021 234.041 44.3634C234.614 44.6246 235.212 44.8207 235.835 44.9513C236.458 45.0821 237.106 45.1467 237.779 45.1467C238.452 45.1467 239.11 45.0662 239.752 44.9044C240.394 44.7427 241.019 44.4995 241.63 44.1759C241.941 44.0142 242.237 43.8343 242.516 43.6369C242.795 43.4392 243.058 43.2237 243.304 42.9904C243.55 42.7572 243.779 42.5056 243.992 42.2365C244.206 41.9674 244.402 41.68 244.583 41.3751L244.659 42.6076C244.697 42.9685 244.795 43.2956 244.957 43.588C245.119 43.8806 245.343 44.1394 245.63 44.3634C245.929 44.5876 246.267 44.7554 246.641 44.8674C247.015 44.9792 247.424 45.0355 247.873 45.0355C248.421 45.0355 249.133 44.9478 250.005 44.7736V40.7033C249.793 40.6768 249.613 40.633 249.463 40.5646C249.314 40.4962 249.194 40.4051 249.107 40.2932C249.02 40.1813 248.955 40.0324 248.912 39.8459C248.868 39.6592 248.845 39.4354 248.845 39.1741V17.5198L243.836 17.5195ZM295.352 17.5195V44.7735H300.36V38.9492L303.016 36.336L308.735 44.7735H314.082L306.269 33.5352L313.558 25.2481H308.25L300.36 34.0215V17.5195H295.352ZM124.842 18.2676V44.7735H130.001V18.2676H124.842ZM133.291 18.2676V22.7832H141.777V44.7735H146.899V22.7832H155.385V18.2676H133.291ZM172.843 18.8633V25.2109H170.263V29.0567H172.843V40.2929C172.843 40.8654 172.899 41.3849 173.011 41.8516C173.123 42.3182 173.291 42.7329 173.516 43.0937C173.752 43.4422 174.027 43.7429 174.339 43.998C174.65 44.2531 174.999 44.4632 175.385 44.625C175.772 44.7867 176.176 44.9073 176.6 44.9882C177.023 45.0691 177.467 45.1092 177.928 45.1092C178.626 45.1092 179.31 45.034 179.983 44.8847C180.681 44.7603 181.329 44.5872 181.927 44.3632C182.526 44.1395 183.037 43.9399 183.461 43.7656L182.452 39.8085C182.152 39.9332 181.753 40.0817 181.255 40.2558C180.756 40.43 180.245 40.5176 179.721 40.5176C179.46 40.5176 179.22 40.4799 179.002 40.4062C178.783 40.3313 178.587 40.2195 178.413 40.0702C178.238 39.9209 178.105 39.7251 178.012 39.4823C177.918 39.2396 177.866 38.9491 177.853 38.6131V29.0565H181.965V25.2108H177.853V18.8632L172.843 18.8633ZM284.397 24.8379C283.6 24.8379 282.854 24.9025 282.156 25.0333C281.458 25.1641 280.81 25.3599 280.212 25.6212C279.626 25.8824 279.102 26.1975 278.641 26.5645C278.18 26.9315 277.781 27.3515 277.444 27.8244C277.12 28.2848 276.877 28.7921 276.715 29.3458C276.553 29.8996 276.472 30.4996 276.472 31.1466C276.472 31.6817 276.532 32.1697 276.65 32.6115C276.769 33.0532 276.945 33.4486 277.182 33.797C277.431 34.133 277.74 34.4408 278.107 34.7208C278.475 35.0009 278.902 35.2527 279.388 35.4767C280.36 35.9247 281.569 36.3867 283.014 36.8595C283.887 37.1086 284.622 37.3323 285.22 37.5314C285.532 37.6308 285.807 37.7393 286.044 37.8576C286.281 37.9759 286.478 38.1036 286.64 38.2403C286.802 38.3647 286.925 38.517 287.006 38.6974C287.087 38.8776 287.127 39.086 287.127 39.3224C287.127 39.6709 287.052 39.9771 286.902 40.2384C286.753 40.4996 286.529 40.7166 286.229 40.8908C285.943 41.065 285.606 41.1961 285.22 41.2833C284.834 41.3703 284.398 41.4141 283.912 41.4141C283.388 41.4141 282.852 41.3582 282.304 41.2463C281.756 41.1344 281.195 40.9662 280.622 40.7424C280.061 40.5183 279.494 40.2315 278.921 39.883C278.347 39.5346 277.768 39.1235 277.182 38.6506L275.388 41.8986C275.937 42.4337 276.538 42.9044 277.192 43.3088C277.846 43.7132 278.554 44.0526 279.314 44.3263C280.074 44.6 280.853 44.8047 281.651 44.9416C282.448 45.0784 283.265 45.1468 284.1 45.1468C284.698 45.1468 285.266 45.1128 285.803 45.0452C286.34 44.9767 286.846 44.8736 287.323 44.7367C287.799 44.5999 288.247 44.4283 288.662 44.2231C289.078 44.0178 289.463 43.7781 289.818 43.5043C290.173 43.2307 290.485 42.9306 290.751 42.6039C291.018 42.2774 291.239 41.9249 291.416 41.5453C291.594 41.1658 291.728 40.759 291.817 40.3266C291.906 39.8942 291.95 39.435 291.95 38.9497C291.95 38.3524 291.882 37.8206 291.744 37.3539C291.607 36.8873 291.4 36.4868 291.126 36.1508C290.852 35.8023 290.511 35.4803 290.1 35.1879C289.688 34.8954 289.208 34.6314 288.66 34.3949C287.589 33.9221 286.266 33.4621 284.696 33.0141C283.923 32.765 283.263 32.5413 282.715 32.3422C282.191 32.143 281.794 31.9193 281.52 31.6704C281.395 31.5336 281.3 31.3706 281.238 31.184C281.176 30.9973 281.146 30.7857 281.146 30.5493C281.146 30.2881 281.18 30.0589 281.248 29.8598C281.316 29.6606 281.42 29.4928 281.557 29.3559C281.706 29.2066 281.874 29.0789 282.061 28.9731C282.248 28.8673 282.453 28.7834 282.677 28.721C283.151 28.5967 283.65 28.5335 284.173 28.5335C284.635 28.5335 285.092 28.5808 285.546 28.6741C286.001 28.7675 286.453 28.9073 286.902 29.094C287.35 29.2683 287.811 29.4957 288.285 29.7757C288.758 30.0558 289.245 30.388 289.744 30.7737L291.762 27.5999C291.251 27.1146 290.711 26.6984 290.145 26.3499C289.578 26.0015 288.984 25.7216 288.361 25.5101C287.738 25.286 287.095 25.1182 286.434 25.0062C285.774 24.8943 285.095 24.8379 284.397 24.8379ZM194.937 24.8757C194.408 24.8757 193.895 24.9059 193.4 24.9638C192.905 25.0227 192.426 25.1112 191.965 25.2295C191.503 25.3478 191.059 25.4956 190.633 25.6728C190.206 25.8501 189.797 26.0575 189.404 26.2939C189.018 26.5241 188.654 26.7748 188.311 27.0439C187.968 27.313 187.648 27.6011 187.349 27.9091C187.05 28.2172 186.771 28.5447 186.516 28.8916C186.26 29.2385 186.027 29.6054 185.816 29.9912C185.61 30.377 185.43 30.7727 185.276 31.1787C185.122 31.5847 184.993 32.0006 184.89 32.4267C184.788 32.853 184.711 33.2889 184.66 33.7354C184.608 34.1818 184.581 34.6378 184.581 35.1045C184.581 35.7764 184.641 36.4343 184.759 37.0751C184.878 37.716 185.055 38.3404 185.291 38.9502C185.541 39.5475 185.84 40.1143 186.189 40.6494C186.538 41.1845 186.937 41.6882 187.386 42.1611C187.835 42.6216 188.33 43.0342 188.872 43.4013C189.414 43.7683 190.003 44.0904 190.638 44.3642C191.274 44.6254 191.947 44.8215 192.657 44.9521C193.367 45.0829 194.115 45.1475 194.9 45.1475C195.623 45.1475 196.315 45.095 196.975 44.9892C197.636 44.8833 198.264 44.7242 198.863 44.5126C199.461 44.2884 200.018 44.0245 200.535 43.7196C201.052 43.4146 201.53 43.0702 201.966 42.6845C202.415 42.2987 202.809 41.884 203.152 41.4423C203.494 41.0005 203.785 40.5299 204.022 40.0321L199.723 38.8388C199.561 39.237 199.326 39.5973 199.021 39.9208C198.716 40.2443 198.339 40.5313 197.891 40.7802C197.454 41.0168 197.002 41.1932 196.535 41.3114C196.068 41.4297 195.584 41.4891 195.086 41.4891C194.65 41.4891 194.228 41.4419 193.817 41.3485C193.405 41.2551 193.006 41.1153 192.62 40.9286C192.246 40.7294 191.902 40.4863 191.591 40.2001C191.279 39.914 190.999 39.5851 190.75 39.2117C190.513 38.8383 190.324 38.4344 190.181 37.9989C190.038 37.5633 189.941 37.0963 189.891 36.5985H205.031C205.056 36.3993 205.08 36.1511 205.105 35.8524C205.13 35.5289 205.143 35.2174 205.143 34.9188C205.143 34.477 205.118 34.0422 205.066 33.616C205.015 33.1899 204.938 32.7709 204.836 32.3602C204.733 31.9495 204.604 31.5463 204.45 31.1512C204.296 30.7561 204.116 30.3706 203.91 29.9911C203.711 29.6053 203.488 29.2383 203.243 28.8914C202.999 28.5445 202.731 28.217 202.442 27.909C202.152 27.601 201.84 27.3129 201.505 27.0438C201.17 26.7747 200.813 26.524 200.433 26.2938C200.053 26.0572 199.653 25.85 199.234 25.6727C198.815 25.4955 198.376 25.3476 197.918 25.2293C197.46 25.111 196.983 25.023 196.486 24.9636C195.989 24.9047 195.473 24.8757 194.937 24.8757ZM216.134 24.8757C215.387 24.8757 214.654 24.9282 213.938 25.0341C213.221 25.1399 212.521 25.299 211.835 25.5107C211.163 25.7223 210.495 25.9863 209.835 26.3036C209.174 26.6211 208.521 26.9918 207.873 27.415L209.481 30.7001C210.016 30.3391 210.538 30.0207 211.049 29.7469C211.56 29.4733 212.059 29.2442 212.545 29.0575C213.031 28.8708 213.531 28.731 214.042 28.6376C214.552 28.5442 215.074 28.497 215.61 28.497C216.333 28.497 216.967 28.5809 217.509 28.7491C217.78 28.833 218.028 28.9377 218.254 29.0635C218.48 29.1894 218.682 29.3368 218.863 29.505C219.049 29.6728 219.213 29.8599 219.353 30.0636C219.493 30.2673 219.612 30.488 219.705 30.7276C219.799 30.9672 219.868 31.2257 219.915 31.5011C219.961 31.7762 219.985 32.0688 219.985 32.3799V33.4249C219.674 33.288 219.334 33.1708 218.966 33.0714C218.599 32.972 218.203 32.8897 217.779 32.8273C216.932 32.703 216.096 32.6417 215.274 32.6417C214.451 32.6417 213.677 32.7064 212.948 32.8371C212.219 32.9679 211.536 33.1637 210.9 33.425C210.265 33.6862 209.697 34.0048 209.199 34.3782C208.7 34.7516 208.271 35.1799 207.91 35.6653C207.736 35.9019 207.583 36.1488 207.452 36.4055C207.322 36.6621 207.211 36.9274 207.124 37.2043C206.949 37.7581 206.864 38.3528 206.864 38.9875C206.864 39.5724 206.936 40.1305 207.079 40.6594C207.222 41.1882 207.436 41.6884 207.722 42.1613C208.021 42.6217 208.373 43.0364 208.778 43.4036C209.183 43.7705 209.642 44.0907 210.153 44.3645C210.677 44.6256 211.23 44.8217 211.816 44.9524C212.401 45.0831 213.02 45.1478 213.668 45.1478C214.328 45.1478 214.982 45.0744 215.63 44.9251C216.278 44.7759 216.919 44.5498 217.554 44.2513C218.19 43.9527 218.773 43.5924 219.303 43.1693C219.832 42.7462 220.309 42.2617 220.732 41.7142L220.844 42.722C220.906 43.0455 221.016 43.3447 221.172 43.6185C221.328 43.8921 221.529 44.1406 221.778 44.3646C222.04 44.5887 222.362 44.7565 222.743 44.8685C223.123 44.9803 223.56 45.0367 224.059 45.0367C224.308 45.0367 224.608 45.014 224.956 44.9626C225.33 44.9127 225.742 44.8496 226.191 44.7751V40.7048C225.979 40.6783 225.795 40.6345 225.639 40.5661C225.483 40.4977 225.355 40.4066 225.256 40.2947C225.169 40.1829 225.104 40.0339 225.06 39.8474C225.017 39.6607 224.993 39.4369 224.993 39.1756V32.9412C224.993 32.2941 224.945 31.6836 224.847 31.1111C224.749 30.5387 224.601 30.0034 224.405 29.5056C224.208 29.0079 223.964 28.5479 223.669 28.1248C223.375 27.7017 223.031 27.315 222.638 26.9666C222.252 26.6181 221.827 26.3139 221.363 26.0525C220.899 25.7914 220.395 25.5725 219.853 25.3983C219.311 25.224 218.731 25.0947 218.111 25.0076C217.491 24.9203 216.832 24.8757 216.134 24.8757ZM324.25 24.8757C323.453 24.8757 322.694 24.9438 321.978 25.081C321.261 25.2178 320.587 25.4226 319.952 25.6962C319.316 25.9574 318.726 26.2725 318.183 26.6396C317.641 27.0066 317.148 27.4264 316.699 27.8993C316.263 28.3721 315.876 28.8795 315.539 29.4208C315.203 29.9621 314.915 30.5377 314.679 31.1474C314.442 31.7571 314.265 32.3851 314.147 33.0321C314.028 33.6792 313.969 34.3458 313.969 35.0302C313.969 35.7021 314.028 36.358 314.147 36.9989C314.265 37.6398 314.442 38.2661 314.679 38.8759C314.916 39.4856 315.203 40.0611 315.539 40.6024C315.876 41.1437 316.263 41.6511 316.699 42.1239C317.148 42.5968 317.641 43.0201 318.183 43.3935C318.726 43.7669 319.316 44.0904 319.952 44.3642C320.587 44.6253 321.261 44.8214 321.978 44.952C322.694 45.0828 323.453 45.1474 324.25 45.1474C325.048 45.1474 325.805 45.0828 326.521 44.952C327.238 44.8212 327.914 44.6255 328.549 44.3642C329.185 44.0905 329.77 43.7668 330.305 43.3935C330.841 43.02 331.328 42.5968 331.765 42.1239C332.213 41.6511 332.605 41.1437 332.942 40.6024C333.278 40.0611 333.559 39.4856 333.783 38.8759C334.02 38.2661 334.197 37.6398 334.315 36.9989C334.433 36.358 334.493 35.7021 334.493 35.0302C334.493 34.3458 334.433 33.6792 334.315 33.0321C334.196 32.3851 334.02 31.7571 333.783 31.1474C333.558 30.5377 333.278 29.9621 332.942 29.4208C332.605 28.8795 332.213 28.3721 331.765 27.8993C331.316 27.4264 330.82 27.0067 330.278 26.6396C329.736 26.2726 329.148 25.9575 328.512 25.6962C327.889 25.4225 327.222 25.2178 326.511 25.081C325.801 24.9441 325.048 24.8757 324.25 24.8757ZM350.157 24.8757C349.596 24.8757 349.048 24.9158 348.512 24.9966C347.976 25.0775 347.452 25.1981 346.941 25.3598C346.443 25.5091 345.974 25.6966 345.531 25.9204C345.089 26.1445 344.674 26.405 344.287 26.7036C343.901 26.9898 343.549 27.3119 343.231 27.6665C342.913 28.021 342.63 28.4094 342.381 28.8325V25.2115H337.857V44.7739H342.868V33.3501C342.992 32.9519 343.153 32.5774 343.353 32.229C343.552 31.8805 343.79 31.5569 344.064 31.2583C344.339 30.9473 344.628 30.6709 344.933 30.4282C345.238 30.1856 345.559 29.9774 345.895 29.8032C346.244 29.629 346.591 29.4979 346.934 29.4107C347.276 29.3237 347.614 29.2799 347.951 29.2799C348.194 29.2799 348.425 29.3026 348.641 29.3483C348.858 29.3933 349.061 29.4613 349.251 29.5513C349.441 29.6416 349.618 29.7538 349.781 29.8892C349.945 30.0245 350.094 30.1832 350.231 30.3637C350.368 30.544 350.488 30.7495 350.591 30.9829C350.694 31.2161 350.781 31.4779 350.849 31.7641C350.986 32.3365 351.055 33.0134 351.055 33.7973V44.7739H356.063V32.5649C356.063 31.6192 355.978 30.6869 355.803 29.7661C355.729 29.3057 355.618 28.8701 355.475 28.4594C355.331 28.0488 355.155 27.6622 354.943 27.3013C354.743 26.9279 354.495 26.5956 354.196 26.3032C353.897 26.0106 353.546 25.7589 353.148 25.5473C352.761 25.3232 352.32 25.1555 351.822 25.0435C351.323 24.9316 350.767 24.8757 350.157 24.8757ZM372.736 24.8757C372.176 24.8757 371.627 24.9158 371.092 24.9966C370.556 25.0775 370.034 25.1981 369.523 25.3598C369.025 25.5091 368.553 25.6966 368.111 25.9204C367.669 26.1445 367.253 26.405 366.867 26.7036C366.481 26.9898 366.129 27.3119 365.811 27.6665C365.493 28.021 365.211 28.4094 364.962 28.8325V25.2115H360.438V44.7739H365.447V33.3501C365.572 32.9519 365.735 32.5774 365.934 32.229C366.134 31.8805 366.37 31.5569 366.644 31.2583C366.918 30.9473 367.207 30.6709 367.512 30.4282C367.818 30.1856 368.138 29.9774 368.475 29.8032C368.824 29.629 369.171 29.4979 369.513 29.4107C369.856 29.3237 370.196 29.2799 370.532 29.2799C370.775 29.2799 371.004 29.3026 371.221 29.3483C371.437 29.3933 371.641 29.4613 371.831 29.5513C372.021 29.6416 372.197 29.7538 372.361 29.8892C372.524 30.0245 372.676 30.1832 372.813 30.3637C372.95 30.544 373.07 30.7495 373.173 30.9829C373.276 31.2161 373.36 31.4779 373.429 31.7641C373.566 32.3365 373.634 33.0134 373.634 33.7973V44.7739H378.645V32.5649C378.645 31.6192 378.558 30.6869 378.383 29.7661C378.308 29.3057 378.2 28.8701 378.056 28.4594C377.913 28.0488 377.734 27.6622 377.522 27.3013C377.323 26.9279 377.074 26.5956 376.775 26.3032C376.476 26.0106 376.128 25.7589 375.729 25.5473C375.343 25.3232 374.899 25.1555 374.401 25.0435C373.902 24.9316 373.347 24.8757 372.736 24.8757ZM390.943 24.8757C390.195 24.8757 389.463 24.9282 388.747 25.0341C388.03 25.1399 387.329 25.299 386.644 25.5107C385.971 25.7223 385.304 25.9863 384.643 26.3036C383.983 26.6207 383.33 26.9918 382.682 27.415L384.289 30.7001C384.825 30.3391 385.349 30.0207 385.86 29.7469C386.371 29.4733 386.868 29.2442 387.354 29.0575C387.84 28.8708 388.339 28.731 388.85 28.6376C389.361 28.5442 389.885 28.497 390.421 28.497C391.143 28.497 391.776 28.5809 392.318 28.7491C392.589 28.833 392.837 28.9377 393.063 29.0635C393.289 29.1894 393.492 29.3368 393.673 29.505C393.86 29.6728 394.024 29.8599 394.164 30.0636C394.304 30.2673 394.421 30.488 394.514 30.7276C394.608 30.9672 394.677 31.2257 394.723 31.5011C394.77 31.7762 394.794 32.0688 394.794 32.3799V33.4249C394.482 33.288 394.142 33.1708 393.775 33.0714C393.407 32.972 393.011 32.8897 392.588 32.8273C391.74 32.703 390.907 32.6417 390.084 32.6417C389.262 32.6417 388.486 32.7064 387.757 32.8371C387.028 32.9679 386.345 33.1637 385.709 33.425C385.074 33.6862 384.508 34.0048 384.01 34.3782C383.511 34.7516 383.08 35.1799 382.719 35.6653C382.544 35.9019 382.392 36.1488 382.261 36.4055C382.13 36.6621 382.022 36.9274 381.934 37.2043C381.76 37.7581 381.673 38.3528 381.673 38.9875C381.673 39.5724 381.744 40.1305 381.888 40.6594C382.031 41.1882 382.244 41.6885 382.531 42.1613C382.83 42.6217 383.182 43.0364 383.587 43.4036C383.992 43.7705 384.451 44.0907 384.962 44.3645C385.485 44.6256 386.041 44.8217 386.626 44.9524C387.212 45.0831 387.829 45.1478 388.477 45.1478C389.137 45.1478 389.79 45.0744 390.438 44.9251C391.086 44.7759 391.729 44.5521 392.365 44.2532C393 43.9546 393.582 43.5924 394.111 43.1693C394.641 42.7462 395.117 42.2617 395.541 41.7142L395.654 42.722C395.717 43.0455 395.825 43.3447 395.981 43.6185C396.137 43.8921 396.34 44.1406 396.589 44.3646C396.851 44.5887 397.172 44.7565 397.552 44.8685C397.932 44.9803 398.371 45.0367 398.87 45.0367C399.119 45.0367 399.417 45.014 399.766 44.9626C400.139 44.9127 400.551 44.8496 401 44.7751V40.7067C400.788 40.6803 400.604 40.6345 400.448 40.5661C400.292 40.4977 400.164 40.4067 400.065 40.2948C399.978 40.1829 399.913 40.034 399.869 39.8475C399.826 39.6608 399.802 39.437 399.802 39.1757V32.9413C399.802 32.2942 399.754 31.6836 399.656 31.1112C399.558 30.5388 399.41 30.0035 399.214 29.5058C399.018 29.008 398.773 28.548 398.479 28.1249C398.184 27.7018 397.84 27.3151 397.448 26.9667C397.062 26.6182 396.637 26.3139 396.173 26.0526C395.709 25.7914 395.205 25.5725 394.663 25.3983C394.121 25.2241 393.54 25.0948 392.92 25.0077C392.3 24.9204 391.641 24.8757 390.943 24.8757ZM253.593 25.2117V37.4558C253.593 38.0842 253.628 38.6755 253.691 39.2293C253.757 39.783 253.856 40.301 253.986 40.7801C254.117 41.2592 254.281 41.6999 254.477 42.1043C254.674 42.5087 254.902 42.8761 255.164 43.2059C255.425 43.5294 255.717 43.8128 256.04 44.0555C256.362 44.2981 256.715 44.5011 257.098 44.6629C257.481 44.8246 257.896 44.9452 258.34 45.0261C258.784 45.107 259.257 45.147 259.762 45.147C260.584 45.147 261.372 45.0631 262.126 44.8949C262.88 44.7267 263.6 44.475 264.286 44.139C264.628 43.9648 264.956 43.7721 265.267 43.559C265.579 43.3458 265.875 43.1118 266.155 42.8598C266.436 42.6077 266.7 42.3362 266.949 42.0453C267.198 41.7543 267.431 41.4454 267.649 41.1156L267.763 42.684C267.813 43.0449 267.918 43.3685 268.08 43.6547C268.242 43.9408 268.461 44.1892 268.735 44.4008C269.021 44.6 269.347 44.7485 269.715 44.848C270.082 44.9474 270.491 44.9985 270.939 44.9985C271.213 44.9985 271.513 44.972 271.837 44.9221C272.186 44.8957 272.61 44.8484 273.108 44.7736V40.7033C272.896 40.6768 272.712 40.633 272.557 40.5646C272.401 40.4962 272.273 40.4051 272.173 40.2932C272.086 40.1813 272.022 40.0324 271.978 39.8459C271.934 39.6592 271.911 39.4354 271.911 39.1741V25.2112H266.902V37.344C266.715 37.7422 266.507 38.106 266.276 38.4358C266.046 38.7657 265.794 39.0612 265.519 39.3225C265.258 39.5837 264.979 39.8148 264.686 40.0139C264.393 40.2131 264.085 40.3809 263.761 40.5178C263.45 40.6422 263.136 40.7347 262.818 40.7971C262.501 40.8595 262.178 40.8909 261.854 40.8909C261.586 40.8909 261.335 40.8682 261.099 40.8206C260.864 40.7741 260.647 40.7049 260.444 40.6115C260.242 40.5182 260.055 40.3999 259.885 40.2601C259.715 40.1202 259.562 39.9584 259.425 39.7718C259.288 39.579 259.168 39.3632 259.065 39.1253C258.962 38.8872 258.876 38.6252 258.807 38.3421C258.67 37.7759 258.602 37.1199 258.602 36.3733V25.2112L253.593 25.2117ZM194.863 28.4969C195.324 28.4969 195.764 28.5494 196.181 28.6552C196.599 28.7611 196.995 28.9201 197.368 29.1318C197.742 29.3309 198.078 29.5741 198.378 29.8603C198.677 30.1464 198.938 30.4753 199.162 30.8486C199.399 31.2095 199.59 31.6048 199.733 32.0341C199.876 32.4634 199.973 32.927 200.022 33.4247H189.778C189.828 32.927 189.923 32.4634 190.06 32.0341C190.197 31.6048 190.377 31.2094 190.601 30.8486C190.838 30.4752 191.106 30.1465 191.405 29.8603C191.704 29.5742 192.033 29.3309 192.395 29.1318C192.769 28.9201 193.161 28.761 193.572 28.6552C193.983 28.5494 194.414 28.4969 194.863 28.4969ZM238.79 29.1316C239.127 29.1316 239.463 29.1755 239.799 29.2624C240.136 29.3493 240.472 29.4808 240.808 29.655C241.145 29.8167 241.465 30.0091 241.771 30.2331C242.076 30.4572 242.365 30.7125 242.639 30.9987C242.913 31.2848 243.152 31.5892 243.351 31.9128C243.55 32.2363 243.711 32.5792 243.836 32.9401V37.6061C243.662 38.079 243.401 38.5268 243.052 38.9499C242.728 39.3481 242.341 39.6961 241.892 39.9948C241.468 40.2688 241.008 40.4926 240.509 40.6667C240.036 40.816 239.563 40.8912 239.089 40.8912C238.703 40.8912 238.328 40.8533 237.967 40.7796C237.605 40.7048 237.257 40.5929 236.92 40.4436C236.596 40.2944 236.292 40.116 236.005 39.9105C235.719 39.7052 235.45 39.4725 235.201 39.2112C234.952 38.9501 234.729 38.6665 234.536 38.3616C234.343 38.0566 234.179 37.7296 234.041 37.3812C233.917 37.0203 233.824 36.6513 233.762 36.2718C233.699 35.8923 233.668 35.502 233.668 35.1038C233.668 34.7056 233.694 34.3174 233.752 33.9378C233.808 33.5583 233.892 33.1873 234.004 32.8265C234.129 32.4655 234.278 32.1262 234.452 31.8089C234.627 31.4914 234.827 31.196 235.051 30.9222C235.288 30.6486 235.543 30.4036 235.817 30.1859C236.091 29.9682 236.384 29.7773 236.696 29.6156C237.007 29.4538 237.338 29.3332 237.687 29.2524C238.036 29.1715 238.404 29.1316 238.79 29.1316ZM324.25 29.1316C324.724 29.1316 325.176 29.1928 325.606 29.3172C326.036 29.4415 326.444 29.629 326.83 29.8777C327.216 30.1268 327.561 30.4257 327.867 30.7742C328.172 31.1226 328.436 31.5216 328.661 31.9695C328.898 32.4175 329.076 32.8933 329.195 33.3973C329.313 33.9012 329.371 34.433 329.371 34.9929C329.371 35.5653 329.313 36.1058 329.195 36.616C329.076 37.1262 328.898 37.6055 328.661 38.0535C328.436 38.489 328.172 38.8809 327.867 39.2293C327.561 39.5777 327.216 39.884 326.83 40.1453C326.444 40.3944 326.036 40.5794 325.606 40.7039C325.176 40.8282 324.724 40.8913 324.25 40.8913C323.764 40.8913 323.302 40.8282 322.866 40.7039C322.43 40.5795 322.02 40.3943 321.634 40.1453C321.247 39.8966 320.9 39.6008 320.595 39.2586C320.29 38.9165 320.025 38.5261 319.801 38.0906C319.577 37.6426 319.408 37.1653 319.296 36.6551C319.184 36.1449 319.128 35.6025 319.128 35.0301C319.128 34.4577 319.184 33.9188 319.296 33.4148C319.408 32.9109 319.577 32.4422 319.801 32.0066C320.025 31.5586 320.29 31.1598 320.595 30.8113C320.9 30.4628 321.247 30.1637 321.634 29.9148C322.02 29.6533 322.43 29.4576 322.866 29.3269C323.302 29.1961 323.764 29.1316 324.25 29.1316ZM155.984 32.2684V36.784H167.31V32.2684H155.984ZM216.06 35.5144C216.683 35.5144 217.343 35.5897 218.041 35.739C218.739 35.8633 219.387 36.0504 219.985 36.2995V38.278C219.985 38.5271 219.897 38.8016 219.723 39.1003C219.549 39.3988 219.325 39.6961 219.05 39.9948C218.826 40.2064 218.567 40.4023 218.274 40.5827C217.981 40.763 217.656 40.9296 217.294 41.0788C216.933 41.2156 216.567 41.3169 216.199 41.3853C215.831 41.4537 215.462 41.4889 215.088 41.4889C214.727 41.4889 214.39 41.4548 214.079 41.3853C213.767 41.3169 213.48 41.2156 213.218 41.0788C212.957 40.942 212.725 40.7825 212.526 40.6022C212.326 40.422 212.158 40.2188 212.021 39.9948C211.884 39.7707 211.783 39.5418 211.714 39.3053C211.646 39.0687 211.611 38.8257 211.611 38.5768C211.611 38.3467 211.637 38.1274 211.689 37.9205C211.74 37.7138 211.817 37.5182 211.92 37.3346C212.023 37.1509 212.151 36.9793 212.305 36.819C212.46 36.6588 212.639 36.5106 212.845 36.3737C213.269 36.0876 213.749 35.8723 214.284 35.7292C214.82 35.5859 215.412 35.5144 216.06 35.5144ZM390.869 35.5144C391.492 35.5144 392.152 35.5897 392.85 35.739C393.548 35.8633 394.196 36.0504 394.794 36.2995V38.278C394.794 38.5271 394.706 38.8016 394.532 39.1003C394.357 39.3988 394.133 39.6961 393.859 39.9948C393.634 40.2064 393.377 40.4023 393.084 40.5827C392.791 40.763 392.464 40.9296 392.102 41.0788C391.741 41.2156 391.377 41.3169 391.009 41.3853C390.642 41.4537 390.27 41.4889 389.896 41.4889C389.535 41.4889 389.199 41.4548 388.887 41.3853C388.576 41.3169 388.288 41.2156 388.027 41.0788C387.765 40.942 387.536 40.7825 387.336 40.6022C387.137 40.422 386.969 40.2188 386.832 39.9948C386.695 39.7707 386.591 39.5417 386.522 39.3053C386.454 39.0687 386.419 38.8257 386.419 38.5768C386.419 38.3467 386.445 38.1274 386.497 37.9205C386.549 37.7138 386.625 37.5182 386.728 37.3346C386.831 37.1509 386.959 36.9793 387.113 36.819C387.267 36.6588 387.447 36.5106 387.653 36.3737C388.077 36.0876 388.557 35.8723 389.092 35.7292C389.628 35.5859 390.221 35.5144 390.869 35.5144ZM147.421 54.8543V77.5906C147.421 77.9764 147.449 78.3402 147.502 78.6824C147.554 79.0248 147.634 79.3447 147.74 79.6433C147.846 79.9419 147.978 80.2183 148.137 80.4734C148.296 80.7286 148.481 80.963 148.693 81.1746C148.911 81.3798 149.151 81.5597 149.412 81.7137C149.674 81.8679 149.958 81.9956 150.263 82.0984C150.568 82.2012 150.896 82.2775 151.245 82.3289C151.594 82.3803 151.963 82.4072 152.356 82.4072C153.079 82.4072 153.89 82.3199 154.787 82.1457C155.236 82.0584 155.656 81.9517 156.048 81.8274C156.441 81.703 156.805 81.5594 157.142 81.3977L156.469 77.5911C156.145 77.7404 155.772 77.8647 155.348 77.9641C154.925 78.0635 154.513 78.1127 154.114 78.1127C153.852 78.1127 153.618 78.0748 153.412 78.0011C153.206 77.9267 153.03 77.8144 152.88 77.6652C152.73 77.5034 152.618 77.2708 152.544 76.966C152.469 76.6609 152.432 76.2831 152.432 75.8351V54.8547L147.421 54.8543ZM159.311 54.8543V59.8191H164.319V54.8543H159.311ZM182.152 54.8543C182.152 54.9042 182.101 55.0792 182.002 55.3777C181.927 55.6763 181.754 55.9736 181.48 56.2723C181.342 56.4216 181.164 56.5334 180.946 56.6083C180.728 56.6831 180.47 56.7216 180.171 56.7216C179.872 56.7216 179.588 56.6876 179.32 56.6181C179.052 56.5496 178.8 56.4465 178.563 56.3097C178.115 56.0111 177.64 55.7138 177.142 55.4152C176.892 55.2659 176.611 55.1539 176.293 55.0791C175.975 55.0043 175.623 54.9657 175.237 54.9657C174.825 54.9657 174.445 55.0168 174.096 55.1162C173.748 55.2156 173.429 55.3645 173.142 55.5634C172.868 55.7626 172.619 55.9829 172.395 56.2255C172.171 56.4682 171.971 56.7342 171.796 57.0204C171.472 57.568 171.236 58.1013 171.086 58.624C170.937 59.1466 170.862 59.5211 170.862 59.7451H173.629C173.629 59.7186 173.654 59.5572 173.703 59.2587C173.778 58.9601 173.939 58.6751 174.188 58.4013C174.325 58.252 174.497 58.1401 174.703 58.0653C174.908 57.9909 175.148 57.9519 175.422 57.9519C175.697 57.9519 175.959 57.9859 176.209 58.0555C176.458 58.1239 176.694 58.2271 176.919 58.3639C177.367 58.6375 177.852 58.9227 178.376 59.2213C178.65 59.3581 178.949 59.4613 179.273 59.5297C179.597 59.5981 179.946 59.6333 180.32 59.6333C180.756 59.6333 181.155 59.5788 181.517 59.473C181.878 59.3672 182.202 59.2099 182.489 58.9984C182.788 58.7867 183.056 58.5559 183.293 58.307C183.529 58.0579 183.734 57.7905 183.909 57.5043C184.282 56.907 184.545 56.3595 184.695 55.8617C184.844 55.3638 184.918 55.0279 184.918 54.8538L182.152 54.8543ZM215.199 54.8543V59.8191H220.21V54.8543H215.199ZM224.695 54.8543V77.5906C224.695 77.9764 224.721 78.3402 224.775 78.6824C224.828 79.0248 224.908 79.3447 225.014 79.6433C225.12 79.9419 225.252 80.2183 225.411 80.4734C225.57 80.7286 225.754 80.963 225.966 81.1746C226.184 81.3798 226.424 81.5597 226.686 81.7137C226.947 81.8679 227.231 81.9956 227.537 82.0984C227.842 82.2012 228.17 82.2775 228.519 82.3289C228.867 82.3803 229.237 82.4072 229.629 82.4072C230.352 82.4072 231.163 82.3199 232.06 82.1457C232.509 82.0584 232.929 81.9517 233.322 81.8274C233.714 81.703 234.079 81.5594 234.415 81.3977L233.742 77.5911C233.418 77.7404 233.045 77.8647 232.622 77.9641C232.198 78.0635 231.786 78.1127 231.388 78.1127C231.126 78.1127 230.891 78.0748 230.686 78.0011C230.48 77.9267 230.303 77.8144 230.154 77.6652C230.004 77.5034 229.892 77.2708 229.817 76.966C229.742 76.6609 229.705 76.2831 229.705 75.8351V54.8547L224.695 54.8543ZM276.509 54.8543V82.1082H281.52V76.284L284.174 73.6707L289.893 82.1082H295.24L287.427 70.8699L294.716 62.5828H289.408L281.52 71.3562V54.8543H276.509ZM127.646 55.0788V59.5202H131.795V55.0788H127.646ZM134.824 55.0788V59.5202H138.972V55.0788H134.824ZM265.557 62.1706C264.76 62.1706 264.012 62.2371 263.314 62.3679C262.616 62.4986 261.968 62.6944 261.37 62.9558C260.784 63.2169 260.26 63.5301 259.799 63.8972C259.338 64.2642 258.939 64.686 258.602 65.1589C258.278 65.6193 258.037 66.1246 257.875 66.6784C257.713 67.2322 257.63 67.8341 257.63 68.4812C257.63 69.0163 257.69 69.5042 257.808 69.946C257.927 70.3878 258.105 70.7831 258.342 71.1315C258.591 71.4675 258.9 71.7754 259.267 72.0554C259.635 72.3354 260.06 72.5872 260.546 72.8112C261.518 73.2592 262.727 73.7192 264.172 74.1921C265.045 74.4412 265.78 74.6649 266.378 74.864C266.69 74.9634 266.965 75.0737 267.202 75.192C267.439 75.3103 267.638 75.4381 267.8 75.5748C267.962 75.6992 268.083 75.8515 268.164 76.0319C268.245 76.2125 268.285 76.4204 268.285 76.6569C268.285 77.0054 268.21 77.3096 268.06 77.5709C267.911 77.8321 267.687 78.051 267.387 78.2252C267.101 78.3994 266.765 78.5287 266.378 78.6159C265.992 78.7032 265.556 78.7466 265.07 78.7466C264.546 78.7466 264.01 78.6907 263.462 78.5788C262.914 78.4669 262.353 78.2987 261.78 78.0748C261.219 77.8507 260.652 77.5659 260.079 77.2175C259.505 76.869 258.928 76.4579 258.342 75.985L256.547 79.2331C257.095 79.7682 257.696 80.2368 258.35 80.6413C259.004 81.0457 259.712 81.3851 260.472 81.6589C261.232 81.9325 262.011 82.1392 262.809 82.2761C263.606 82.4129 264.423 82.4813 265.258 82.4813C265.856 82.4813 266.424 82.4472 266.961 82.3777C267.499 82.3093 268.004 82.208 268.481 82.0712C268.957 81.9344 269.405 81.7628 269.82 81.5575C270.236 81.3523 270.621 81.1126 270.976 80.8388C271.331 80.5652 271.643 80.265 271.909 79.9384C272.176 79.6118 272.397 79.2574 272.574 78.8779C272.752 78.4983 272.886 78.0935 272.975 77.6611C273.064 77.2286 273.108 76.7694 273.108 76.2841C273.108 75.6868 273.04 75.155 272.902 74.6883C272.765 74.2217 272.558 73.8193 272.284 73.4833C272.01 73.1348 271.669 72.8148 271.258 72.5223C270.846 72.2298 270.366 71.9658 269.818 71.7294C268.747 71.2565 267.426 70.7965 265.856 70.3485C265.083 70.0995 264.423 69.8737 263.875 69.6747C263.351 69.4755 262.952 69.2518 262.678 69.0028C262.553 68.866 262.458 68.705 262.396 68.5185C262.334 68.3318 262.304 68.1201 262.304 67.8837C262.304 67.6225 262.338 67.3914 262.406 67.1923C262.474 66.9931 262.578 66.8253 262.715 66.6883C262.864 66.539 263.032 66.4113 263.219 66.3056C263.406 66.1997 263.611 66.1159 263.835 66.0535C264.309 65.9291 264.808 65.8679 265.332 65.8679C265.793 65.8679 266.25 65.9133 266.704 66.0066C267.159 66.1 267.611 66.2398 268.06 66.4266C268.508 66.6008 268.971 66.8282 269.445 67.1082C269.918 67.3882 270.403 67.7224 270.902 68.1082L272.92 64.9343C272.409 64.449 271.872 64.0328 271.305 63.6844C270.738 63.3359 270.142 63.0541 269.519 62.8426C268.896 62.6185 268.253 62.4507 267.592 62.3387C266.932 62.2268 266.255 62.1706 265.557 62.1706ZM177.891 62.2095C177.093 62.2095 176.336 62.2775 175.62 62.4147C174.903 62.5516 174.227 62.7564 173.592 63.03C172.956 63.2915 172.366 63.6063 171.824 63.9734C171.282 64.3404 170.788 64.7602 170.339 65.2331C169.903 65.706 169.516 66.2133 169.18 66.7546C168.843 67.2959 168.556 67.8714 168.319 68.4812C168.082 69.0909 167.905 69.7188 167.787 70.3659C167.669 71.013 167.609 71.6796 167.609 72.364C167.609 73.036 167.669 73.6919 167.787 74.3327C167.905 74.9736 168.082 75.5979 168.319 76.2077C168.556 76.8175 168.843 77.395 169.18 77.9363C169.516 78.4776 169.903 78.9829 170.339 79.4558C170.788 79.9287 171.282 80.352 171.824 80.7253C172.366 81.0987 172.956 81.4223 173.592 81.696C174.227 81.9572 174.903 82.1533 175.62 82.2839C176.336 82.4147 177.093 82.4812 177.891 82.4812C178.688 82.4812 179.445 82.4147 180.161 82.2839C180.878 82.1531 181.554 81.9574 182.189 81.696C182.825 81.4224 183.41 81.0986 183.946 80.7253C184.482 80.3519 184.969 79.9287 185.405 79.4558C185.853 78.9829 186.246 78.4776 186.582 77.9363C186.919 77.395 187.199 76.8175 187.423 76.2077C187.66 75.5979 187.837 74.9736 187.955 74.3327C188.074 73.6919 188.133 73.036 188.133 72.364C188.133 71.6796 188.074 71.013 187.955 70.3659C187.837 69.7188 187.66 69.0909 187.423 68.4812C187.199 67.8714 186.919 67.2959 186.582 66.7546C186.246 66.2133 185.853 65.706 185.405 65.2331C184.956 64.7602 184.46 64.3405 183.918 63.9734C183.376 63.6064 182.788 63.2913 182.152 63.03C181.529 62.7563 180.862 62.5516 180.152 62.4147C179.441 62.2779 178.688 62.2095 177.891 62.2095ZM202.639 62.2095C201.904 62.2095 201.209 62.2934 200.554 62.4616C199.9 62.6298 199.287 62.8814 198.714 63.2174C198.141 63.5409 197.617 63.9257 197.143 64.3737C196.67 64.8217 196.246 65.3325 195.872 65.9049V62.5456H191.499V90.0593H196.508V78.6726C196.832 79.2574 197.217 79.784 197.666 80.2507C198.114 80.7173 198.626 81.1249 199.199 81.4733C199.785 81.8093 200.413 82.0612 201.086 82.2292C201.759 82.397 202.478 82.4813 203.238 82.4813C203.655 82.4813 204.06 82.4548 204.452 82.3973C204.845 82.3414 205.225 82.2575 205.592 82.1453C205.96 82.0334 206.316 81.8932 206.658 81.7253C207.001 81.5571 207.33 81.3614 207.648 81.1375C207.972 80.9073 208.279 80.6566 208.567 80.3875C208.855 80.1184 209.125 79.8302 209.377 79.5222C209.629 79.2142 209.864 78.8867 210.081 78.5398C210.298 78.1928 210.495 77.826 210.676 77.4402C210.863 77.0544 211.026 76.6583 211.166 76.2507C211.307 75.8432 211.423 75.4242 211.517 74.9949C211.61 74.5656 211.681 74.1256 211.728 73.6745C211.774 73.2235 211.798 72.7607 211.798 72.2878C211.798 71.5909 211.739 70.9193 211.62 70.2722C211.502 69.6252 211.325 69.0043 211.088 68.407C210.864 67.7972 210.592 67.2233 210.275 66.6882C209.957 66.1532 209.593 65.6565 209.181 65.196C208.77 64.7231 208.322 64.3034 207.836 63.9363C207.35 63.5693 206.826 63.2543 206.265 62.993C205.717 62.7318 205.141 62.5357 204.536 62.405C203.932 62.2742 203.3 62.2095 202.639 62.2095ZM244.509 62.2095C243.761 62.2095 243.029 62.262 242.312 62.3679C241.596 62.4737 240.895 62.6309 240.21 62.8425C239.537 63.0541 238.87 63.3201 238.209 63.6374C237.549 63.9549 236.896 64.3237 236.248 64.7468L237.855 68.032C238.391 67.671 238.915 67.3545 239.426 67.0807C239.937 66.8071 240.434 66.576 240.92 66.3894C241.406 66.2027 241.905 66.0628 242.416 65.9695C242.927 65.8761 243.451 65.8308 243.987 65.8308C244.709 65.8308 245.342 65.9147 245.884 66.0829C246.155 66.1668 246.403 66.2714 246.629 66.3973C246.855 66.5231 247.056 66.6705 247.237 66.8387C247.424 67.0065 247.588 67.1917 247.728 67.3953C247.868 67.599 247.987 67.8218 248.08 68.0614C248.174 68.301 248.242 68.5575 248.289 68.8328C248.336 69.1084 248.36 69.4026 248.36 69.7137V70.7586C248.048 70.6218 247.708 70.5027 247.341 70.4029C246.973 70.3035 246.577 70.2231 246.154 70.1607C245.306 70.0364 244.471 69.9732 243.648 69.9732C242.826 69.9732 242.052 70.0397 241.323 70.1705C240.594 70.3013 239.911 70.497 239.275 70.7584C238.64 71.0195 238.072 71.3362 237.574 71.7096C237.075 72.083 236.646 72.5133 236.285 72.9986C236.11 73.2352 235.958 73.4802 235.827 73.7369C235.696 73.9935 235.586 74.2608 235.499 74.5377C235.324 75.0915 235.239 75.6862 235.239 76.3209C235.239 76.9057 235.31 77.462 235.453 77.9908C235.597 78.5197 235.81 79.0218 236.097 79.4947C236.396 79.9551 236.748 80.3678 237.153 80.7349C237.558 81.1019 238.017 81.4241 238.528 81.6979C239.051 81.959 239.605 82.155 240.19 82.2857C240.776 82.4165 241.393 82.4811 242.041 82.4811C242.701 82.4811 243.356 82.4059 244.004 82.2566C244.652 82.1073 245.293 81.8836 245.929 81.5848C246.564 81.2862 247.148 80.9259 247.677 80.5027C248.207 80.0796 248.683 79.5932 249.107 79.0457L249.218 80.0535C249.281 80.377 249.391 80.6762 249.547 80.95C249.703 81.2236 249.904 81.474 250.153 81.698C250.414 81.9222 250.737 82.0899 251.117 82.2019C251.497 82.3138 251.935 82.3701 252.433 82.3701C252.682 82.3701 252.982 82.3437 253.331 82.2938C253.705 82.2439 254.117 82.1826 254.565 82.1082V78.0379C254.353 78.0114 254.169 77.9657 254.014 77.8973C253.858 77.8289 253.73 77.7397 253.63 77.6278C253.543 77.5159 253.478 77.367 253.435 77.1805C253.391 76.9938 253.368 76.768 253.368 76.5067V70.2724C253.368 69.6252 253.32 69.0166 253.221 68.4442C253.123 67.8717 252.976 67.3365 252.779 66.8387C252.583 66.3409 252.338 65.881 252.044 65.4579C251.749 65.0348 251.406 64.6481 251.013 64.2997C250.627 63.9512 250.202 63.647 249.738 63.3856C249.274 63.1245 248.77 62.9055 248.228 62.7313C247.686 62.5571 247.105 62.4259 246.485 62.3387C245.866 62.2514 245.207 62.2095 244.509 62.2095ZM305.408 62.2095C304.611 62.2095 303.854 62.2775 303.138 62.4147C302.421 62.5516 301.745 62.7564 301.109 63.03C300.474 63.2915 299.885 63.6063 299.343 63.9734C298.801 64.3404 298.306 64.7602 297.857 65.2331C297.421 65.706 297.034 66.2133 296.697 66.7546C296.361 67.2959 296.075 67.8714 295.839 68.4812C295.602 69.0909 295.423 69.7188 295.305 70.3659C295.186 71.013 295.127 71.6795 295.127 72.364C295.127 73.036 295.186 73.6919 295.305 74.3327C295.423 74.9736 295.602 75.5979 295.839 76.2077C296.075 76.8175 296.361 77.3949 296.697 77.9363C297.034 78.4776 297.421 78.9829 297.857 79.4558C298.306 79.9287 298.801 80.352 299.343 80.7253C299.885 81.0987 300.474 81.4223 301.109 81.696C301.745 81.9572 302.421 82.1533 303.138 82.2839C303.854 82.4147 304.611 82.4812 305.408 82.4812C306.206 82.4812 306.962 82.4147 307.679 82.2839C308.395 82.1531 309.072 81.9574 309.707 81.696C310.343 81.4224 310.928 81.0986 311.463 80.7253C311.999 80.3519 312.486 79.9287 312.922 79.4558C313.371 78.9829 313.763 78.4776 314.1 77.9363C314.436 77.3949 314.716 76.8175 314.941 76.2077C315.178 75.5979 315.356 74.9736 315.475 74.3327C315.593 73.6919 315.651 73.036 315.651 72.364C315.651 71.6795 315.593 71.013 315.475 70.3659C315.356 69.7188 315.178 69.0909 314.941 68.4812C314.716 67.8714 314.436 67.2959 314.1 66.7546C313.763 66.2133 313.371 65.706 312.922 65.2331C312.474 64.7602 311.978 64.3405 311.436 63.9734C310.894 63.6064 310.305 63.2913 309.67 63.03C309.047 62.7563 308.379 62.5516 307.669 62.4147C306.959 62.2779 306.206 62.2095 305.408 62.2095ZM326.979 62.2095C326.306 62.2095 325.661 62.2741 325.044 62.4049C324.428 62.5357 323.839 62.7315 323.278 62.9928C322.73 63.2419 322.215 63.546 321.735 63.9069C321.255 64.2678 320.811 64.686 320.399 65.1588C320.001 65.6193 319.645 66.1159 319.334 66.651C319.022 67.1861 318.754 67.758 318.53 68.3678C318.305 68.9776 318.137 69.6126 318.025 70.2721C317.913 70.9317 317.857 71.6174 317.857 72.3268C317.857 72.9988 317.909 73.6511 318.015 74.2858C318.121 74.9205 318.281 75.5361 318.492 76.1335C318.704 76.7308 318.96 77.294 319.259 77.8229C319.558 78.3518 319.902 78.8468 320.288 79.3073C320.687 79.7677 321.119 80.1788 321.587 80.5397C322.054 80.9007 322.555 81.212 323.091 81.4733C323.639 81.7224 324.212 81.9074 324.81 82.0318C325.408 82.1562 326.031 82.2193 326.679 82.2193C327.34 82.2193 327.983 82.1441 328.606 81.9948C329.229 81.8455 329.833 81.6218 330.419 81.3229C331.017 81.0119 331.546 80.6393 332.007 80.2038C332.468 79.7682 332.86 79.2696 333.184 78.7096V81.1745C333.184 81.8092 333.116 82.3846 332.979 82.901C332.842 83.4175 332.637 83.8739 332.363 84.2721C332.101 84.6828 331.791 85.0379 331.436 85.3366C331.081 85.6352 330.68 85.8784 330.231 86.0651C329.795 86.2643 329.334 86.4128 328.848 86.5123C328.362 86.6117 327.851 86.6628 327.315 86.6628C326.679 86.6628 326.059 86.5963 325.455 86.4655C324.851 86.3347 324.262 86.1389 323.689 85.8776C323.128 85.6164 322.613 85.3049 322.146 84.944C321.678 84.583 321.258 84.174 320.884 83.7136L318.156 86.364C318.679 87.0111 319.256 87.5829 319.885 88.0807C320.514 88.5785 321.197 89.0018 321.933 89.3503C322.3 89.5306 322.688 89.6874 323.096 89.823C323.504 89.9583 323.933 90.0724 324.381 90.1627C324.83 90.253 325.298 90.3207 325.787 90.366C326.277 90.411 326.785 90.4326 327.315 90.4326C327.838 90.4326 328.347 90.4099 328.842 90.3623C329.338 90.3158 329.82 90.2466 330.288 90.1532C330.755 90.0599 331.208 89.9435 331.647 89.8036C332.086 89.6638 332.511 89.5002 332.922 89.3134C333.333 89.1331 333.722 88.9304 334.088 88.7079C334.454 88.4853 334.798 88.2419 335.119 87.9775C335.439 87.7129 335.739 87.4284 336.014 87.122C336.29 86.8155 336.543 86.488 336.773 86.1396C337.01 85.7975 337.217 85.4375 337.395 85.0595C337.573 84.6815 337.721 84.2857 337.839 83.872C337.957 83.4582 338.046 83.0267 338.105 82.5771C338.164 82.1276 338.193 81.6601 338.193 81.1748V62.5458H333.82V65.9794C333.446 65.407 333.022 64.8946 332.548 64.4404C332.075 63.9862 331.551 63.5908 330.978 63.2548C330.691 63.0806 330.394 62.9283 330.084 62.7978C329.774 62.667 329.451 62.5566 329.118 62.4697C328.451 62.2955 327.739 62.2095 326.979 62.2095ZM124.169 62.5455V74.7896C124.169 75.418 124.201 76.0093 124.267 76.5631C124.332 77.1168 124.431 77.6328 124.562 78.1119C124.693 78.591 124.857 79.0337 125.053 79.4381C125.249 79.8425 125.478 80.2099 125.739 80.5396C126.001 80.8632 126.293 81.1466 126.616 81.3893C126.938 81.6319 127.291 81.8329 127.674 81.9947C128.057 82.1565 128.47 82.279 128.914 82.3599C129.358 82.4407 129.833 82.4808 130.338 82.4808C131.16 82.4808 131.948 82.3969 132.702 82.2287C133.456 82.0605 134.176 81.8088 134.861 81.4728C135.204 81.2986 135.532 81.1039 135.843 80.8908C136.155 80.6776 136.451 80.4455 136.731 80.1935C137.011 79.9414 137.276 79.6699 137.525 79.3791C137.774 79.0881 138.007 78.7772 138.225 78.4474L138.337 80.0158C138.387 80.3767 138.493 80.7003 138.655 80.9865C138.817 81.2726 139.035 81.523 139.309 81.7345C139.595 81.9337 139.923 82.0823 140.291 82.1818C140.658 82.2812 141.066 82.3303 141.515 82.3303C141.789 82.3303 142.089 82.3077 142.413 82.2563C142.761 82.2298 143.185 82.1826 143.684 82.1077V78.0374C143.472 78.011 143.288 77.9652 143.132 77.8968C142.977 77.8284 142.849 77.7392 142.749 77.6273C142.662 77.5154 142.597 77.3646 142.553 77.1781C142.51 76.9914 142.487 76.7676 142.487 76.5063V62.5453H137.478V74.6781C137.291 75.0763 137.083 75.4401 136.852 75.7699C136.622 76.0999 136.369 76.3953 136.095 76.6567C135.834 76.9178 135.555 77.147 135.262 77.3461C134.969 77.5453 134.661 77.715 134.337 77.8519C134.026 77.9763 133.712 78.0689 133.394 78.1312C133.077 78.1936 132.754 78.225 132.43 78.225C132.162 78.225 131.91 78.2023 131.675 78.1547C131.44 78.1082 131.223 78.0372 131.02 77.9438C130.818 77.8505 130.63 77.7341 130.461 77.5942C130.291 77.4544 130.138 77.2907 130.001 77.104C129.864 76.9112 129.744 76.6955 129.641 76.4575C129.538 76.2194 129.452 75.9593 129.383 75.6762C129.246 75.11 129.178 74.4541 129.178 73.7075V62.5454L124.169 62.5455ZM159.311 62.5455V82.108H164.319V62.5455H159.311ZM215.199 62.5455V82.108H220.21V62.5455H215.199ZM342.531 62.5455V74.7896C342.531 75.4181 342.565 76.0093 342.629 76.5631C342.694 77.1169 342.791 77.6328 342.922 78.1119C343.053 78.591 343.217 79.0336 343.413 79.4381C343.609 79.8425 343.84 80.2098 344.101 80.5396C344.363 80.8632 344.655 81.1466 344.978 81.3893C345.3 81.6319 345.653 81.8329 346.036 81.9947C346.419 82.1565 346.832 82.279 347.276 82.3599C347.72 82.4407 348.195 82.4808 348.699 82.4808C349.522 82.4808 350.31 82.3969 351.064 82.2287C351.818 82.0605 352.538 81.8088 353.223 81.4728C353.566 81.2986 353.892 81.1039 354.203 80.8908C354.515 80.6776 354.811 80.4455 355.091 80.1935C355.371 79.9414 355.636 79.6699 355.885 79.3791C356.134 79.0881 356.369 78.7772 356.587 78.4474L356.698 80.0158C356.748 80.3767 356.855 80.7003 357.017 80.9865C357.179 81.2726 357.396 81.523 357.67 81.7345C357.957 81.9337 358.285 82.0823 358.652 82.1818C359.02 82.2812 359.428 82.3303 359.876 82.3303C360.151 82.3303 360.45 82.3077 360.774 82.2563C361.123 82.2298 361.547 82.1826 362.046 82.1077V78.0374C361.834 78.011 361.65 77.9652 361.494 77.8968C361.338 77.8284 361.21 77.7392 361.111 77.6273C361.024 77.5154 360.957 77.3646 360.913 77.1781C360.87 76.9914 360.848 76.7676 360.848 76.5063V62.5453H355.839V74.6781C355.653 75.0764 355.442 75.4401 355.212 75.7699C354.981 76.0999 354.729 76.3953 354.455 76.6567C354.193 76.9178 353.917 77.147 353.624 77.3461C353.331 77.5453 353.023 77.715 352.699 77.8519C352.387 77.9763 352.072 78.0689 351.754 78.1312C351.436 78.1936 351.116 78.225 350.792 78.225C350.524 78.225 350.272 78.2023 350.037 78.1547C349.802 78.1082 349.584 78.0372 349.382 77.9438C349.179 77.8505 348.992 77.7341 348.822 77.5942C348.652 77.454 348.5 77.2907 348.363 77.104C348.226 76.9112 348.106 76.6955 348.003 76.4575C347.9 76.2194 347.813 75.9593 347.744 75.6762C347.607 75.11 347.539 74.4541 347.539 73.7075V62.5454L342.531 62.5455ZM177.891 66.4654C178.364 66.4654 178.816 66.5266 179.246 66.651C179.676 66.7753 180.084 66.9628 180.47 67.2115C180.857 67.4602 181.202 67.7595 181.507 68.108C181.812 68.4564 182.077 68.8533 182.301 69.3014C182.538 69.7493 182.716 70.2251 182.835 70.7291C182.953 71.2331 183.011 71.7667 183.011 72.3267C183.011 72.8992 182.953 73.4396 182.835 73.9498C182.716 74.46 182.538 74.9393 182.301 75.3873C182.077 75.8228 181.812 76.2146 181.507 76.5631C181.202 76.9115 180.857 77.2158 180.47 77.4771C180.084 77.7262 179.676 77.9133 179.246 78.0377C178.816 78.1621 178.364 78.2251 177.891 78.2251C177.405 78.2251 176.944 78.1621 176.508 78.0377C176.072 77.9134 175.66 77.7259 175.274 77.4771C174.887 77.2281 174.541 76.9326 174.235 76.5904C173.93 76.2483 173.666 75.86 173.441 75.4244C173.217 74.9764 173.049 74.4971 172.937 73.9869C172.824 73.4767 172.768 72.9363 172.768 72.3639C172.768 71.7915 172.824 71.2526 172.937 70.7486C173.049 70.2446 173.217 69.774 173.441 69.3384C173.666 68.8904 173.93 68.4935 174.235 68.1451C174.541 67.7966 174.887 67.4975 175.274 67.2486C175.66 66.9871 176.072 66.7914 176.508 66.6607C176.944 66.5299 177.405 66.4654 177.891 66.4654ZM201.255 66.4654C201.641 66.4654 202.012 66.5032 202.367 66.5769C202.723 66.6518 203.062 66.7636 203.386 66.9129C203.723 67.0622 204.038 67.2425 204.331 67.4539C204.624 67.6656 204.893 67.9086 205.143 68.1824C205.392 68.4436 205.611 68.7271 205.798 69.032C205.985 69.337 206.141 69.6622 206.265 70.0106C206.402 70.3591 206.506 70.7248 206.574 71.1043C206.643 71.4839 206.676 71.8772 206.676 72.2879C206.676 72.6737 206.645 73.0533 206.582 73.4266C206.52 73.8 206.427 74.1673 206.302 74.5281C206.19 74.8766 206.047 75.2108 205.872 75.5282C205.698 75.8456 205.493 76.1462 205.256 76.4324C205.032 76.7061 204.785 76.953 204.517 77.1707C204.249 77.3884 203.96 77.5773 203.648 77.7391C203.337 77.9008 203.006 78.0233 202.657 78.1042C202.308 78.1851 201.94 78.2251 201.554 78.2251C201.205 78.2251 200.86 78.1828 200.517 78.102C200.174 78.0211 199.835 77.9005 199.498 77.7387C199.162 77.5645 198.845 77.3599 198.546 77.1235C198.247 76.8869 197.966 76.6194 197.705 76.3207C197.456 76.0221 197.229 75.7072 197.03 75.3774C196.831 75.0474 196.657 74.7031 196.508 74.3422V69.7504C196.657 69.2775 196.894 68.842 197.218 68.4438C197.567 68.0455 197.966 67.6955 198.415 67.3969C198.863 67.0983 199.324 66.8745 199.797 66.725C200.296 66.5508 200.781 66.4654 201.255 66.4654ZM305.408 66.4654C305.882 66.4654 306.334 66.5266 306.764 66.651C307.194 66.7753 307.602 66.9624 307.988 67.2115C308.374 67.4602 308.719 67.7595 309.025 68.108C309.33 68.4564 309.594 68.8533 309.819 69.3014C310.055 69.7493 310.234 70.2251 310.353 70.7291C310.471 71.2331 310.53 71.7667 310.53 72.3267C310.53 72.8992 310.471 73.4396 310.353 73.9498C310.234 74.46 310.055 74.9393 309.819 75.3873C309.594 75.8229 309.33 76.2146 309.025 76.5631C308.719 76.9115 308.374 77.2158 307.988 77.4771C307.602 77.7262 307.194 77.9133 306.764 78.0377C306.334 78.1621 305.882 78.2251 305.408 78.2251C304.922 78.2251 304.462 78.1621 304.026 78.0377C303.589 77.9134 303.178 77.7259 302.791 77.4771C302.405 77.2281 302.058 76.9326 301.753 76.5904C301.447 76.248 301.183 75.86 300.959 75.4244C300.734 74.9764 300.566 74.4971 300.454 73.9869C300.342 73.4767 300.286 72.9363 300.286 72.3639C300.286 71.7915 300.342 71.2526 300.454 70.7486C300.566 70.2446 300.734 69.774 300.959 69.3384C301.183 68.8904 301.448 68.4935 301.753 68.1451C302.058 67.7966 302.405 67.4975 302.791 67.2486C303.178 66.9871 303.589 66.7914 304.026 66.6607C304.462 66.5299 304.922 66.4654 305.408 66.4654ZM328.062 66.4654C328.424 66.4654 328.776 66.5055 329.118 66.5864C329.461 66.6673 329.796 66.7878 330.12 66.9496C330.456 67.0989 330.773 67.2825 331.072 67.5003C331.371 67.718 331.651 67.97 331.913 68.2562C332.187 68.5424 332.431 68.8538 332.643 69.1898C332.855 69.5258 333.035 69.8861 333.184 70.2718V74.9398C333.01 75.3629 332.761 75.7862 332.437 76.2093C332.113 76.6076 331.738 76.9556 331.315 77.2542C330.891 77.5528 330.43 77.7891 329.932 77.9632C329.434 78.1374 328.91 78.2251 328.361 78.2251C327.988 78.2251 327.623 78.1866 327.268 78.1118C326.913 78.0369 326.568 77.9251 326.232 77.7758C325.908 77.6265 325.601 77.45 325.314 77.2445C325.028 77.0393 324.76 76.8066 324.51 76.5452C324.274 76.2841 324.064 76.0005 323.877 75.6956C323.69 75.3906 323.527 75.0637 323.39 74.7152C323.253 74.3667 323.149 74.0064 323.081 73.6331C323.012 73.2597 322.979 72.8732 322.979 72.475C322.979 72.0892 323.005 71.7132 323.063 71.3461C323.119 70.9791 323.203 70.6203 323.315 70.2718C323.44 69.9109 323.589 69.57 323.763 69.2465C323.938 68.9229 324.137 68.6166 324.362 68.3304C324.586 68.0318 324.833 67.7677 325.101 67.5375C325.369 67.3073 325.658 67.1114 325.969 66.9496C326.281 66.7878 326.612 66.6673 326.961 66.5864C327.31 66.5055 327.676 66.4654 328.062 66.4654ZM244.435 72.8482C245.058 72.8482 245.718 72.9235 246.416 73.0728C247.114 73.1971 247.762 73.3841 248.36 73.6333V75.6118C248.36 75.8605 248.272 76.1334 248.098 76.4321C247.923 76.7307 247.699 77.0299 247.425 77.3286C247.201 77.5402 246.942 77.736 246.649 77.9165C246.356 78.0968 246.03 78.2612 245.669 78.4106C245.307 78.5474 244.941 78.6506 244.574 78.7194C244.206 78.7878 243.837 78.8211 243.463 78.8211C243.101 78.8211 242.765 78.787 242.453 78.7194C242.142 78.651 241.855 78.5478 241.593 78.4106C241.331 78.2738 241.1 78.1166 240.901 77.936C240.701 77.7557 240.533 77.5526 240.396 77.3286C240.259 77.1045 240.158 76.8736 240.089 76.6372C240.021 76.4006 239.985 76.1595 239.985 75.9106C239.985 75.6805 240.012 75.4612 240.064 75.2543C240.115 75.0476 240.192 74.852 240.295 74.6684C240.397 74.4847 240.525 74.3131 240.68 74.1528C240.834 73.9926 241.014 73.8444 241.22 73.7075C241.643 73.4214 242.123 73.2061 242.659 73.0629C243.195 72.9197 243.787 72.8482 244.435 72.8482Z" fill="#EEEEEE"/>
<path d="M474.766 48.0273V12.6729H462V0H501.87V12.6729H489.179V48.0273H474.766Z" fill="#EEEEEE"/>
<path d="M530.491 48.0277L528.777 42.4118H511.659L509.944 48.0277H493.613L511.159 0.000366211H529.276L546.825 48.0277H530.491ZM515.512 29.7383H524.927L520.22 14.2551L515.512 29.7383Z" fill="#EEEEEE"/>
<path d="M549.434 48.0273V0H563.847V35.3573H581.884V48.0273H549.434Z" fill="#EEEEEE"/>
<path d="M474.766 99.0604V63.7106H462V51.0354H501.87V63.7106H489.179V99.0604H474.766Z" fill="#EEEEEE"/>
<path d="M505.189 99.0599V51.0354H541.282V63.7101H519.598V68.4577H540.783V81.1329H519.598V86.387H541.282V99.0599H505.189Z" fill="#EEEEEE"/>
<path d="M625.474 99.0604V80.7032H608.425V99.0604H594.015V51.0354H608.425V68.0274H625.474V51.0354H639.881V99.0604H625.474Z" fill="#EEEEEE"/>
<mask id="mask0_407_2367" style="mask-type:luminance" maskUnits="userSpaceOnUse" x="462" y="0" width="178" height="100">
<path d="M462 0H640V100H462V0Z" fill="white"/>
</mask>
<g mask="url(#mask0_407_2367)">
<path d="M543.712 75.0873C543.712 89.8445 554.982 99.926 569.887 99.926C582.369 99.926 588.724 92.293 591.503 85.8833L579.089 80.126C577.876 83.8685 574.164 87.1101 569.887 87.1101C562.971 87.1101 558.336 81.783 558.336 75.0873C558.336 68.3904 562.971 63.0639 569.887 63.0639C574.164 63.0639 577.876 66.3004 579.089 70.04L591.503 64.2126C588.642 57.5916 582.369 50.2451 569.887 50.2451C554.982 50.2451 543.712 60.2485 543.712 75.0873Z" fill="#EEEEEE"/>
</g>
<path d="M424.453 0V100H425.953V0H424.453Z" fill="#EEEEEE"/>
</svg>
