<svg width="225" height="56" viewBox="0 0 225 56" fill="none" xmlns="http://www.w3.org/2000/svg">
<path fill-rule="evenodd" clip-rule="evenodd" d="M0 0V56H56.0765V0H0ZM7.28994 12.32L29.1762 24.9386V28.8214L7.28994 41.44V32.7031L17.3914 26.88L7.28994 21.0558V12.32ZM29.1762 41.44H48.7865V48.72H29.1762V41.44Z" fill="#870042"/>
<path fill-rule="evenodd" clip-rule="evenodd" d="M29.1763 41.44V48.72H48.7866V41.44H29.1763Z" fill="#EEEEEE"/>
<path fill-rule="evenodd" clip-rule="evenodd" d="M7.29001 12.32V21.0558L17.3914 26.88L7.29001 32.7031V41.44L29.1763 28.8214V24.9386L7.29001 12.32Z" fill="#EEEEEE"/>
<path d="M136.548 9.81094V16.041C136.367 15.7343 136.149 15.4562 135.895 15.2053C135.64 14.9544 135.348 14.7311 135.021 14.5359C134.86 14.435 134.694 14.3471 134.523 14.2712C134.352 14.1955 134.176 14.1315 133.994 14.081C133.631 13.98 133.248 13.9301 132.843 13.9301C132.606 13.9301 132.375 13.9449 132.151 13.9771C131.927 14.0084 131.709 14.0554 131.498 14.1182C131.287 14.1809 131.082 14.2594 130.884 14.3534C130.686 14.4476 130.495 14.5572 130.31 14.6826C130.125 14.8081 129.95 14.9447 129.785 15.0928C129.62 15.2409 129.466 15.4 129.321 15.5707C129.176 15.7415 129.041 15.9242 128.917 16.1176C128.792 16.311 128.676 16.5151 128.572 16.7312C128.467 16.9437 128.375 17.1629 128.297 17.3885C128.218 17.6141 128.153 17.8466 128.101 18.0852C128.048 18.3239 128.01 18.5685 127.984 18.8203C127.957 19.072 127.944 19.3309 127.944 19.5957C127.944 19.9929 127.976 20.3779 128.038 20.7507C128.101 21.1235 128.195 21.484 128.321 21.8325C128.453 22.1739 128.61 22.4942 128.792 22.7938C128.973 23.0935 129.179 23.3727 129.409 23.6306C129.647 23.8884 129.903 24.1186 130.178 24.3207C130.454 24.5229 130.749 24.6972 131.063 24.8435C131.384 24.9898 131.719 25.0996 132.068 25.1728C132.417 25.246 132.78 25.2822 133.156 25.2822C133.533 25.2822 133.902 25.2371 134.261 25.1465C134.621 25.0559 134.971 24.9197 135.313 24.7385C135.487 24.6479 135.653 24.5472 135.809 24.4367C135.965 24.326 136.113 24.2053 136.25 24.0746C136.388 23.944 136.516 23.8031 136.636 23.6524C136.755 23.5017 136.865 23.3408 136.967 23.1701L137.009 23.8603C137.031 24.0624 137.085 24.2456 137.176 24.4093C137.267 24.5731 137.392 24.7181 137.553 24.8435C137.72 24.969 137.91 25.063 138.119 25.1257C138.328 25.1884 138.558 25.2199 138.809 25.2199C139.116 25.2199 139.514 25.1708 140.003 25.0732V22.7938C139.884 22.779 139.783 22.7545 139.7 22.7162C139.616 22.6779 139.549 22.6268 139.5 22.5642C139.452 22.5015 139.415 22.4182 139.391 22.3137C139.366 22.2092 139.353 22.0838 139.353 21.9375V9.81107L136.548 9.81094ZM165.397 9.81094V25.0731H168.202V21.8116L169.689 20.3481L172.892 25.0731H175.886L171.511 18.7797L175.593 14.1389H172.62L168.202 19.0521V9.81094H165.397ZM69.9116 10.2299V25.0731H72.8008V10.2299H69.9116ZM74.643 10.2299V12.7586H79.3953V25.0731H82.2637V12.7586H87.016V10.2299H74.643ZM96.7922 10.5634V14.1181H95.3475V16.2717H96.7922V22.5641C96.7922 22.8846 96.8235 23.1756 96.8863 23.4369C96.9491 23.6982 97.0433 23.9304 97.1689 24.1325C97.3015 24.3276 97.4556 24.4961 97.63 24.6389C97.8045 24.7818 97.9996 24.8994 98.216 24.99C98.4323 25.0806 98.6588 25.1481 98.8961 25.1934C99.1334 25.2387 99.3816 25.2611 99.6398 25.2611C100.031 25.2611 100.414 25.219 100.791 25.1354C101.182 25.0658 101.545 24.9688 101.88 24.8434C102.215 24.7181 102.501 24.6064 102.738 24.5087L102.173 22.2927C102.006 22.3626 101.782 22.4458 101.503 22.5432C101.224 22.6408 100.937 22.6899 100.644 22.6899C100.498 22.6899 100.363 22.6687 100.241 22.6275C100.119 22.5855 100.009 22.5229 99.9114 22.4393C99.8137 22.3557 99.7392 22.2461 99.6869 22.1101C99.6345 21.9742 99.6051 21.8115 99.5982 21.6233V16.2716H101.9V14.1181H99.5982V10.5634L96.7922 10.5634ZM159.263 13.9092C158.816 13.9092 158.398 13.9454 158.007 14.0187C157.617 14.0919 157.254 14.2015 156.919 14.3479C156.591 14.4941 156.298 14.6706 156.039 14.8761C155.781 15.0817 155.557 15.3168 155.369 15.5816C155.188 15.8395 155.051 16.1236 154.961 16.4337C154.87 16.7438 154.825 17.0798 154.825 17.4421C154.825 17.7418 154.858 18.015 154.924 18.2624C154.991 18.5098 155.09 18.7312 155.222 18.9263C155.362 19.1145 155.534 19.2869 155.74 19.4437C155.946 19.6005 156.185 19.7415 156.458 19.8669C157.002 20.1178 157.679 20.3765 158.488 20.6413C158.977 20.7808 159.389 20.9061 159.724 21.0176C159.898 21.0732 160.052 21.134 160.185 21.2002C160.317 21.2665 160.428 21.338 160.519 21.4146C160.609 21.4842 160.678 21.5695 160.724 21.6705C160.769 21.7715 160.791 21.8881 160.791 22.0206C160.791 22.2157 160.749 22.3872 160.665 22.5335C160.582 22.6798 160.456 22.8013 160.289 22.8988C160.128 22.9964 159.94 23.0698 159.724 23.1187C159.507 23.1674 159.263 23.1919 158.991 23.1919C158.698 23.1919 158.398 23.1606 158.09 23.0979C157.783 23.0353 157.47 22.9411 157.149 22.8157C156.835 22.6902 156.517 22.5296 156.196 22.3345C155.875 22.1394 155.55 21.9091 155.222 21.6443L154.218 23.4632C154.525 23.7629 154.861 24.0264 155.228 24.2529C155.594 24.4794 155.99 24.6695 156.416 24.8228C156.842 24.976 157.278 25.0906 157.725 25.1673C158.171 25.2439 158.628 25.2822 159.096 25.2822C159.431 25.2822 159.749 25.2632 160.05 25.2253C160.351 25.187 160.634 25.1292 160.901 25.0526C161.168 24.976 161.418 24.8799 161.651 24.7649C161.884 24.65 162.1 24.5157 162.298 24.3624C162.497 24.2092 162.672 24.0411 162.821 23.8582C162.97 23.6753 163.094 23.4779 163.193 23.2654C163.293 23.0529 163.368 22.8251 163.418 22.5829C163.468 22.3407 163.492 22.0836 163.492 21.8118C163.492 21.4773 163.454 21.1795 163.377 20.9182C163.3 20.6569 163.184 20.4326 163.031 20.2444C162.878 20.0493 162.686 19.869 162.456 19.7052C162.226 19.5414 161.957 19.3936 161.65 19.2612C161.05 18.9964 160.309 18.7388 159.43 18.4879C158.997 18.3484 158.627 18.2231 158.32 18.1116C158.027 18.0001 157.805 17.8748 157.651 17.7354C157.581 17.6588 157.528 17.5676 157.493 17.463C157.458 17.3585 157.442 17.24 157.442 17.1076C157.442 16.9613 157.461 16.833 157.499 16.7215C157.537 16.61 157.595 16.516 157.672 16.4393C157.756 16.3557 157.85 16.2842 157.954 16.2249C158.059 16.1657 158.174 16.1187 158.299 16.0838C158.565 16.0141 158.844 15.9788 159.137 15.9788C159.396 15.9788 159.652 16.0052 159.906 16.0575C160.161 16.1098 160.414 16.1881 160.665 16.2927C160.916 16.3902 161.174 16.5176 161.44 16.6744C161.705 16.8312 161.978 17.0173 162.257 17.2333L163.387 15.456C163.101 15.1842 162.799 14.9511 162.481 14.756C162.164 14.5608 161.831 14.4041 161.482 14.2857C161.133 14.1601 160.773 14.0662 160.403 14.0035C160.034 13.9408 159.653 13.9092 159.263 13.9092ZM109.165 13.9304C108.869 13.9304 108.582 13.9473 108.304 13.9797C108.027 14.0127 107.759 14.0623 107.5 14.1285C107.242 14.1947 106.993 14.2775 106.754 14.3768C106.515 14.4761 106.286 14.5922 106.067 14.7246C105.85 14.8535 105.646 14.9939 105.454 15.1446C105.263 15.2953 105.083 15.4566 104.916 15.6291C104.748 15.8016 104.592 15.985 104.449 16.1793C104.306 16.3736 104.176 16.579 104.057 16.7951C103.942 17.0111 103.841 17.2327 103.755 17.4601C103.668 17.6874 103.596 17.9203 103.539 18.159C103.481 18.3977 103.438 18.6418 103.41 18.8918C103.381 19.1418 103.366 19.3972 103.366 19.6585C103.366 20.0348 103.399 20.4032 103.465 20.7621C103.532 21.121 103.631 21.4707 103.763 21.8121C103.903 22.1466 104.071 22.464 104.266 22.7636C104.461 23.0633 104.685 23.3454 104.936 23.6102C105.188 23.8681 105.465 24.0992 105.769 24.3047C106.072 24.5103 106.402 24.6907 106.758 24.844C107.114 24.9902 107.49 25.1 107.888 25.1732C108.286 25.2464 108.705 25.2826 109.144 25.2826C109.549 25.2826 109.936 25.2532 110.306 25.1939C110.676 25.1347 111.028 25.0455 111.363 24.927C111.698 24.8015 112.01 24.6537 112.3 24.483C112.589 24.3122 112.857 24.1193 113.101 23.9033C113.353 23.6873 113.573 23.4551 113.765 23.2077C113.957 22.9603 114.12 22.6967 114.253 22.418L111.845 21.7497C111.754 21.9727 111.623 22.1745 111.452 22.3557C111.281 22.5368 111.07 22.6976 110.819 22.8369C110.575 22.9694 110.322 23.0682 110.06 23.1344C109.798 23.2007 109.527 23.2339 109.248 23.2339C109.004 23.2339 108.768 23.2074 108.538 23.1552C108.307 23.1029 108.084 23.0246 107.867 22.92C107.658 22.8085 107.466 22.6723 107.291 22.5121C107.117 22.3518 106.96 22.1676 106.82 21.9586C106.688 21.7495 106.582 21.5233 106.501 21.2794C106.421 21.0355 106.367 20.7739 106.339 20.4952H114.818C114.832 20.3836 114.845 20.2446 114.859 20.0773C114.873 19.8962 114.88 19.7218 114.88 19.5545C114.88 19.3071 114.866 19.0637 114.837 18.825C114.809 18.5863 114.766 18.3517 114.708 18.1217C114.651 17.8917 114.579 17.6659 114.492 17.4447C114.406 17.2234 114.305 17.0075 114.19 16.795C114.078 16.579 113.954 16.3735 113.817 16.1792C113.68 15.9849 113.53 15.8015 113.368 15.6291C113.205 15.4566 113.03 15.2952 112.843 15.1445C112.655 14.9938 112.456 14.8535 112.243 14.7245C112.03 14.592 111.806 14.476 111.571 14.3767C111.337 14.2775 111.091 14.1947 110.834 14.1284C110.578 14.0622 110.311 14.0129 110.032 13.9796C109.754 13.9466 109.465 13.9304 109.165 13.9304ZM121.035 13.9304C120.617 13.9304 120.207 13.9598 119.805 14.0191C119.404 14.0783 119.012 14.1675 118.628 14.286C118.251 14.4045 117.877 14.5523 117.508 14.73C117.138 14.9078 116.772 15.1154 116.409 15.3524L117.309 17.192C117.609 16.9899 117.902 16.8116 118.188 16.6583C118.474 16.5051 118.753 16.3767 119.026 16.2722C119.298 16.1677 119.577 16.0894 119.863 16.0371C120.15 15.9848 120.442 15.9583 120.742 15.9583C121.147 15.9583 121.502 16.0053 121.805 16.0995C121.957 16.1465 122.096 16.2051 122.223 16.2756C122.349 16.3461 122.462 16.4286 122.563 16.5228C122.668 16.6168 122.76 16.7215 122.838 16.8356C122.917 16.9497 122.983 17.0733 123.035 17.2075C123.088 17.3416 123.126 17.4864 123.152 17.6406C123.179 17.7947 123.192 17.9585 123.192 18.1328V18.7179C123.017 18.6413 122.827 18.5757 122.621 18.52C122.415 18.4643 122.194 18.4182 121.956 18.3833C121.482 18.3137 121.014 18.2794 120.553 18.2794C120.093 18.2794 119.659 18.3156 119.251 18.3888C118.843 18.462 118.46 18.5717 118.104 18.718C117.749 18.8643 117.431 19.0427 117.152 19.2518C116.872 19.4609 116.632 19.7008 116.43 19.9725C116.332 20.105 116.247 20.2434 116.174 20.3871C116.1 20.5308 116.038 20.6794 115.99 20.8344C115.892 21.1445 115.844 21.4776 115.844 21.833C115.844 22.1605 115.884 22.4731 115.964 22.7693C116.045 23.0654 116.164 23.3455 116.325 23.6103C116.492 23.8682 116.689 24.1004 116.916 24.306C117.143 24.5115 117.4 24.6908 117.686 24.8441C117.979 24.9904 118.289 25.1002 118.617 25.1733C118.945 25.2466 119.291 25.2827 119.654 25.2827C120.024 25.2827 120.39 25.2417 120.753 25.1581C121.116 25.0745 121.475 24.9479 121.83 24.7807C122.186 24.6135 122.513 24.4117 122.81 24.1748C123.106 23.9379 123.373 23.6666 123.61 23.36L123.673 23.9243C123.708 24.1055 123.769 24.2731 123.857 24.4264C123.944 24.5796 124.056 24.7187 124.196 24.8442C124.343 24.9697 124.523 25.0636 124.736 25.1263C124.949 25.189 125.194 25.2205 125.473 25.2205C125.613 25.2205 125.78 25.2078 125.976 25.179C126.185 25.1511 126.416 25.1158 126.667 25.0741V22.7947C126.548 22.7799 126.445 22.7553 126.358 22.717C126.271 22.6787 126.199 22.6277 126.143 22.5651C126.095 22.5024 126.058 22.419 126.034 22.3146C126.009 22.21 125.997 22.0847 125.997 21.9383V18.4471C125.997 18.0847 125.969 17.7428 125.914 17.4222C125.859 17.1017 125.777 16.8019 125.667 16.5232C125.557 16.2444 125.42 15.9868 125.255 15.7499C125.09 15.513 124.898 15.2964 124.678 15.1013C124.461 14.9061 124.224 14.7358 123.964 14.5894C123.704 14.4432 123.422 14.3206 123.118 14.223C122.815 14.1255 122.489 14.053 122.142 14.0043C121.795 13.9554 121.426 13.9304 121.035 13.9304ZM181.58 13.9304C181.134 13.9304 180.709 13.9685 180.308 14.0453C179.906 14.122 179.529 14.2367 179.173 14.3899C178.817 14.5361 178.486 14.7126 178.183 14.9182C177.879 15.1237 177.603 15.3588 177.352 15.6236C177.107 15.8884 176.891 16.1726 176.702 16.4757C176.514 16.7788 176.353 17.1011 176.22 17.4425C176.088 17.784 175.989 18.1356 175.922 18.498C175.856 18.8604 175.823 19.2336 175.823 19.6169C175.823 19.9932 175.856 20.3605 175.922 20.7194C175.989 21.0783 176.088 21.429 176.22 21.7705C176.353 22.1119 176.514 22.4342 176.702 22.7374C176.891 23.0405 177.107 23.3246 177.352 23.5894C177.603 23.8542 177.879 24.0913 178.183 24.3003C178.486 24.5095 178.817 24.6906 179.173 24.8439C179.529 24.9902 179.906 25.1 180.308 25.1731C180.709 25.2464 181.134 25.2826 181.58 25.2826C182.027 25.2826 182.451 25.2464 182.852 25.1731C183.253 25.0999 183.632 24.9903 183.988 24.8439C184.344 24.6907 184.671 24.5094 184.971 24.3003C185.271 24.0912 185.544 23.8542 185.788 23.5894C186.04 23.3246 186.259 23.0405 186.448 22.7374C186.636 22.4342 186.793 22.1119 186.919 21.7705C187.051 21.429 187.15 21.0783 187.217 20.7194C187.283 20.3605 187.316 19.9932 187.316 19.6169C187.316 19.2336 187.283 18.8604 187.217 18.498C187.15 18.1356 187.051 17.784 186.919 17.4425C186.793 17.1011 186.636 16.7788 186.448 16.4757C186.259 16.1726 186.04 15.8884 185.788 15.6236C185.537 15.3588 185.259 15.1237 184.956 14.9182C184.652 14.7126 184.323 14.5362 183.967 14.3899C183.618 14.2366 183.244 14.122 182.847 14.0453C182.449 13.9687 182.027 13.9304 181.58 13.9304ZM196.088 13.9304C195.774 13.9304 195.467 13.9528 195.167 13.9981C194.867 14.0434 194.574 14.1109 194.287 14.2015C194.008 14.2851 193.745 14.3901 193.498 14.5154C193.25 14.6409 193.017 14.7868 192.801 14.954C192.585 15.1143 192.388 15.2947 192.21 15.4933C192.032 15.6918 191.873 15.9093 191.733 16.1462V14.1184H189.2V25.0734H192.006V18.6761C192.076 18.4531 192.166 18.2434 192.278 18.0482C192.389 17.8531 192.523 17.6719 192.676 17.5047C192.83 17.3305 192.992 17.1757 193.163 17.0398C193.334 16.9039 193.513 16.7874 193.701 16.6898C193.897 16.5922 194.091 16.5188 194.283 16.47C194.475 16.4213 194.664 16.3967 194.853 16.3967C194.989 16.3967 195.118 16.4095 195.239 16.4351C195.36 16.4603 195.475 16.4983 195.581 16.5487C195.687 16.5993 195.786 16.6622 195.878 16.7379C195.969 16.8137 196.053 16.9026 196.13 17.0037C196.206 17.1047 196.274 17.2197 196.331 17.3504C196.389 17.481 196.437 17.6276 196.476 17.7879C196.552 18.1085 196.591 18.4875 196.591 18.9265V25.0734H199.396V18.2364C199.396 17.7068 199.348 17.1847 199.25 16.669C199.208 16.4112 199.146 16.1673 199.066 15.9373C198.986 15.7073 198.887 15.4908 198.768 15.2887C198.657 15.0796 198.517 14.8935 198.35 14.7298C198.182 14.566 197.986 14.425 197.763 14.3065C197.547 14.181 197.299 14.0871 197.02 14.0243C196.741 13.9617 196.43 13.9304 196.088 13.9304ZM208.733 13.9304C208.419 13.9304 208.112 13.9528 207.811 13.9981C207.511 14.0434 207.219 14.1109 206.933 14.2015C206.654 14.2851 206.39 14.3901 206.142 14.5154C205.895 14.6409 205.662 14.7868 205.446 14.954C205.229 15.1143 205.032 15.2947 204.854 15.4933C204.676 15.6918 204.519 15.9093 204.379 16.1462V14.1184H201.846V25.0734H204.651V18.6761C204.72 18.4531 204.812 18.2434 204.923 18.0482C205.035 17.8531 205.167 17.6719 205.321 17.5047C205.474 17.3305 205.636 17.1757 205.807 17.0398C205.978 16.9039 206.158 16.7874 206.346 16.6898C206.541 16.5922 206.736 16.5188 206.928 16.47C207.119 16.4213 207.31 16.3967 207.498 16.3967C207.634 16.3967 207.763 16.4095 207.884 16.4351C208.005 16.4603 208.119 16.4983 208.225 16.5487C208.332 16.5993 208.431 16.6622 208.522 16.7379C208.614 16.8137 208.699 16.9026 208.775 17.0037C208.852 17.1047 208.919 17.2197 208.977 17.3504C209.035 17.481 209.082 17.6276 209.12 17.7879C209.197 18.1085 209.235 18.4875 209.235 18.9265V25.0734H212.041V18.2364C212.041 17.7068 211.992 17.1847 211.895 16.669C211.853 16.4112 211.792 16.1673 211.712 15.9373C211.631 15.7073 211.531 15.4908 211.413 15.2887C211.301 15.0796 211.162 14.8935 210.994 14.7298C210.827 14.566 210.632 14.425 210.408 14.3065C210.192 14.181 209.944 14.0871 209.665 14.0243C209.386 13.9617 209.075 13.9304 208.733 13.9304ZM218.928 13.9304C218.51 13.9304 218.1 13.9598 217.698 14.0191C217.297 14.0783 216.905 14.1675 216.521 14.286C216.144 14.4045 215.77 14.5523 215.4 14.73C215.031 14.9076 214.665 15.1154 214.302 15.3524L215.202 17.192C215.502 16.9899 215.796 16.8116 216.082 16.6583C216.368 16.5051 216.646 16.3767 216.918 16.2722C217.191 16.1677 217.47 16.0894 217.756 16.0371C218.042 15.9848 218.336 15.9583 218.636 15.9583C219.041 15.9583 219.395 16.0053 219.698 16.0995C219.85 16.1465 219.989 16.2051 220.115 16.2756C220.242 16.3461 220.356 16.4286 220.457 16.5228C220.562 16.6168 220.654 16.7215 220.732 16.8356C220.811 16.9497 220.876 17.0733 220.928 17.2075C220.98 17.3416 221.019 17.4864 221.045 17.6406C221.071 17.7947 221.085 17.9585 221.085 18.1328V18.7179C220.91 18.6413 220.72 18.5757 220.514 18.52C220.308 18.4643 220.087 18.4182 219.849 18.3833C219.375 18.3137 218.908 18.2794 218.447 18.2794C217.987 18.2794 217.552 18.3156 217.144 18.3888C216.736 18.462 216.353 18.5717 215.997 18.718C215.641 18.8643 215.325 19.0427 215.046 19.2518C214.766 19.4609 214.525 19.7008 214.323 19.9725C214.225 20.105 214.14 20.2434 214.066 20.3871C213.993 20.5308 213.932 20.6794 213.884 20.8344C213.786 21.1445 213.737 21.4776 213.737 21.833C213.737 22.1605 213.777 22.4731 213.857 22.7693C213.938 23.0654 214.057 23.3455 214.218 23.6103C214.385 23.8682 214.582 24.1004 214.809 24.306C215.036 24.5115 215.293 24.6908 215.579 24.8441C215.872 24.9904 216.183 25.1002 216.511 25.1733C216.839 25.2466 217.184 25.2827 217.547 25.2827C217.917 25.2827 218.283 25.2417 218.646 25.1581C219.008 25.0745 219.369 24.9492 219.724 24.7818C220.08 24.6146 220.406 24.4117 220.702 24.1748C220.999 23.9379 221.266 23.6666 221.503 23.36L221.567 23.9243C221.602 24.1055 221.662 24.2731 221.75 24.4264C221.837 24.5796 221.951 24.7187 222.09 24.8442C222.237 24.9697 222.416 25.0636 222.629 25.1263C222.842 25.189 223.088 25.2205 223.367 25.2205C223.507 25.2205 223.674 25.2078 223.869 25.179C224.078 25.1511 224.309 25.1158 224.56 25.0741V22.7958C224.441 22.781 224.338 22.7554 224.251 22.717C224.164 22.6787 224.092 22.6277 224.036 22.5651C223.988 22.5024 223.951 22.419 223.927 22.3146C223.903 22.21 223.89 22.0847 223.89 21.9384V18.4471C223.89 18.0848 223.862 17.7428 223.808 17.4223C223.753 17.1017 223.67 16.802 223.56 16.5232C223.45 16.2445 223.313 15.9869 223.148 15.7499C222.983 15.513 222.791 15.2965 222.571 15.1013C222.355 14.9062 222.117 14.7358 221.857 14.5895C221.597 14.4432 221.315 14.3206 221.011 14.2231C220.708 14.1255 220.383 14.0531 220.036 14.0043C219.688 13.9554 219.319 13.9304 218.928 13.9304ZM142.013 14.1186V20.9753C142.013 21.3272 142.032 21.6583 142.067 21.9684C142.104 22.2785 142.159 22.5686 142.233 22.8369C142.306 23.1051 142.398 23.3519 142.507 23.5784C142.617 23.8049 142.745 24.0106 142.892 24.1953C143.038 24.3765 143.202 24.5352 143.383 24.6711C143.563 24.8069 143.761 24.9206 143.975 25.0112C144.19 25.1018 144.422 25.1693 144.671 25.2146C144.919 25.2599 145.184 25.2823 145.467 25.2823C145.927 25.2823 146.369 25.2354 146.791 25.1412C147.213 25.047 147.616 24.906 148 24.7179C148.192 24.6203 148.375 24.5124 148.55 24.393C148.724 24.2737 148.89 24.1426 149.047 24.0015C149.204 23.8603 149.352 23.7083 149.492 23.5454C149.631 23.3824 149.762 23.2094 149.884 23.0248L149.948 23.903C149.975 24.1052 150.034 24.2863 150.125 24.4466C150.216 24.6068 150.338 24.746 150.492 24.8645C150.652 24.976 150.835 25.0592 151.041 25.1149C151.246 25.1706 151.475 25.1992 151.726 25.1992C151.88 25.1992 152.047 25.1843 152.229 25.1564C152.424 25.1416 152.662 25.1151 152.941 25.0732V22.7938C152.822 22.779 152.719 22.7545 152.632 22.7162C152.545 22.6779 152.473 22.6268 152.417 22.5642C152.368 22.5015 152.332 22.4182 152.308 22.3137C152.283 22.2092 152.27 22.0838 152.27 21.9375V14.1183H149.465V20.9126C149.361 21.1356 149.244 21.3394 149.115 21.524C148.986 21.7088 148.845 21.8743 148.691 22.0206C148.545 22.1669 148.388 22.2963 148.225 22.4078C148.06 22.5193 147.888 22.6133 147.706 22.69C147.532 22.7596 147.357 22.8115 147.179 22.8464C147.001 22.8813 146.82 22.8989 146.639 22.8989C146.489 22.8989 146.348 22.8862 146.216 22.8595C146.084 22.8335 145.962 22.7947 145.849 22.7425C145.736 22.6902 145.631 22.624 145.536 22.5457C145.441 22.4673 145.355 22.3767 145.278 22.2722C145.202 22.1643 145.134 22.0434 145.077 21.9102C145.019 21.7768 144.971 21.6301 144.932 21.4716C144.855 21.1545 144.817 20.7872 144.817 20.3691V14.1183L142.013 14.1186ZM109.123 15.9583C109.382 15.9583 109.628 15.9877 109.862 16.0469C110.095 16.1062 110.317 16.1953 110.527 16.3138C110.736 16.4253 110.924 16.5615 111.092 16.7218C111.259 16.882 111.405 17.0662 111.531 17.2752C111.663 17.4773 111.77 17.6987 111.851 17.9391C111.931 18.1795 111.985 18.4391 112.013 18.7179H106.276C106.304 18.4391 106.357 18.1795 106.434 17.9391C106.51 17.6987 106.611 17.4773 106.737 17.2752C106.87 17.0661 107.02 16.8821 107.187 16.7218C107.355 16.5616 107.539 16.4253 107.741 16.3138C107.951 16.1953 108.17 16.1062 108.401 16.0469C108.631 15.9877 108.872 15.9583 109.123 15.9583ZM133.723 16.3137C133.911 16.3137 134.099 16.3383 134.288 16.3869C134.476 16.4356 134.665 16.5093 134.853 16.6068C135.041 16.6974 135.221 16.8051 135.392 16.9305C135.563 17.0561 135.725 17.199 135.878 17.3593C136.032 17.5195 136.165 17.69 136.277 17.8712C136.388 18.0523 136.479 18.2444 136.548 18.4464V21.0594C136.451 21.3243 136.305 21.575 136.109 21.812C135.928 22.035 135.711 22.2298 135.46 22.3971C135.222 22.5505 134.965 22.6758 134.685 22.7733C134.42 22.8569 134.155 22.8991 133.89 22.8991C133.674 22.8991 133.464 22.8779 133.262 22.8366C133.059 22.7947 132.864 22.7321 132.676 22.6484C132.494 22.5648 132.324 22.4649 132.163 22.3499C132.003 22.2349 131.852 22.1046 131.713 21.9583C131.573 21.812 131.449 21.6532 131.341 21.4825C131.232 21.3117 131.14 21.1286 131.063 20.9335C130.994 20.7313 130.942 20.5247 130.907 20.3122C130.872 20.0997 130.854 19.8811 130.854 19.6582C130.854 19.4352 130.869 19.2177 130.901 19.0052C130.933 18.7927 130.98 18.5849 131.043 18.3828C131.112 18.1807 131.196 17.9907 131.293 17.813C131.391 17.6352 131.503 17.4697 131.629 17.3164C131.761 17.1632 131.904 17.026 132.058 16.9041C132.211 16.7822 132.375 16.6753 132.55 16.5847C132.724 16.4941 132.91 16.4266 133.105 16.3813C133.3 16.336 133.506 16.3137 133.723 16.3137ZM181.58 16.3137C181.846 16.3137 182.099 16.348 182.339 16.4176C182.58 16.4873 182.809 16.5923 183.025 16.7315C183.241 16.871 183.435 17.0384 183.606 17.2335C183.777 17.4287 183.925 17.6521 184.05 17.9029C184.183 18.1538 184.283 18.4202 184.349 18.7025C184.416 18.9847 184.448 19.2825 184.448 19.596C184.448 19.9166 184.416 20.2193 184.349 20.5049C184.283 20.7907 184.183 21.0591 184.05 21.3099C183.924 21.5539 183.776 21.7733 183.606 21.9684C183.434 22.1635 183.241 22.335 183.025 22.4814C182.809 22.6209 182.58 22.7245 182.339 22.7942C182.099 22.8638 181.846 22.8992 181.58 22.8992C181.308 22.8992 181.049 22.8638 180.805 22.7942C180.561 22.7245 180.331 22.6208 180.115 22.4814C179.899 22.3421 179.704 22.1764 179.533 21.9848C179.362 21.7933 179.214 21.5746 179.089 21.3307C178.963 21.0799 178.869 20.8126 178.806 20.5268C178.743 20.2411 178.712 19.9374 178.712 19.6168C178.712 19.2963 178.743 18.9945 178.806 18.7123C178.869 18.4301 178.963 18.1676 179.089 17.9237C179.214 17.6728 179.362 17.4495 179.533 17.2543C179.704 17.0592 179.899 16.8917 180.115 16.7523C180.331 16.6058 180.561 16.4963 180.805 16.4231C181.049 16.3499 181.308 16.3137 181.58 16.3137ZM87.3511 18.0703V20.599H93.6937V18.0703H87.3511ZM120.994 19.8881C121.343 19.8881 121.712 19.9302 122.103 20.0138C122.494 20.0835 122.857 20.1882 123.192 20.3277V21.4357C123.192 21.5752 123.143 21.7289 123.045 21.8962C122.948 22.0634 122.822 22.2298 122.668 22.3971C122.543 22.5156 122.398 22.6253 122.234 22.7263C122.07 22.8273 121.887 22.9206 121.685 23.0041C121.483 23.0807 121.277 23.1375 121.072 23.1758C120.866 23.2141 120.659 23.2338 120.449 23.2338C120.247 23.2338 120.059 23.2147 119.884 23.1758C119.71 23.1375 119.549 23.0807 119.402 23.0041C119.256 22.9275 119.126 22.8382 119.015 22.7373C118.903 22.6363 118.809 22.5225 118.732 22.3971C118.655 22.2716 118.599 22.1434 118.56 22.011C118.522 21.8785 118.502 21.7424 118.502 21.603C118.502 21.4741 118.517 21.3514 118.546 21.2355C118.575 21.1197 118.618 21.0102 118.675 20.9074C118.733 20.8045 118.805 20.7084 118.891 20.6187C118.978 20.5289 119.078 20.446 119.193 20.3693C119.431 20.2091 119.699 20.0885 119.999 20.0083C120.3 19.9281 120.631 19.8881 120.994 19.8881ZM218.887 19.8881C219.235 19.8881 219.605 19.9302 219.996 20.0138C220.387 20.0835 220.75 20.1882 221.085 20.3277V21.4357C221.085 21.5752 221.036 21.7289 220.938 21.8962C220.84 22.0634 220.715 22.2298 220.561 22.3971C220.435 22.5156 220.291 22.6253 220.127 22.7263C219.963 22.8273 219.78 22.9206 219.578 23.0041C219.375 23.0807 219.171 23.1375 218.965 23.1758C218.76 23.2141 218.551 23.2338 218.342 23.2338C218.14 23.2338 217.951 23.2147 217.777 23.1758C217.603 23.1375 217.442 23.0807 217.295 23.0041C217.149 22.9275 217.02 22.8382 216.908 22.7373C216.797 22.6363 216.703 22.5225 216.626 22.3971C216.549 22.2716 216.491 22.1434 216.453 22.011C216.414 21.8785 216.395 21.7424 216.395 21.603C216.395 21.4741 216.41 21.3514 216.439 21.2355C216.467 21.1197 216.51 21.0102 216.568 20.9074C216.625 20.8045 216.697 20.7084 216.784 20.6187C216.87 20.5289 216.971 20.446 217.086 20.3693C217.323 20.2091 217.592 20.0885 217.892 20.0083C218.192 19.9281 218.524 19.8881 218.887 19.8881ZM82.5562 30.7184V43.4507C82.5562 43.6668 82.5714 43.8705 82.6011 44.0622C82.6307 44.2539 82.6754 44.433 82.7347 44.6003C82.794 44.7675 82.8681 44.9223 82.957 45.0651C83.046 45.208 83.1495 45.3393 83.2681 45.4578C83.3902 45.5727 83.5246 45.6734 83.6711 45.7597C83.8177 45.846 83.9766 45.9175 84.1476 45.9751C84.3185 46.0327 84.502 46.0754 84.6974 46.1042C84.8928 46.133 85.0997 46.148 85.3195 46.148C85.7242 46.148 86.1785 46.0992 86.6809 46.0016C86.9321 45.9527 87.1675 45.893 87.3873 45.8233C87.6071 45.7537 87.8111 45.6733 87.9995 45.5827L87.6228 43.451C87.4414 43.5346 87.2325 43.6043 86.9952 43.6599C86.758 43.7156 86.5274 43.7431 86.3041 43.7431C86.1576 43.7431 86.0261 43.7219 85.9109 43.6806C85.7958 43.639 85.6968 43.5761 85.613 43.4925C85.5293 43.4019 85.4665 43.2717 85.4246 43.1009C85.3828 42.9301 85.3622 42.7185 85.3622 42.4677V30.7186L82.5562 30.7184ZM89.2142 30.7184V33.4987H92.0191V30.7184H89.2142ZM102.005 30.7184C102.005 30.7464 101.977 30.8443 101.921 31.0115C101.879 31.1787 101.782 31.3452 101.629 31.5125C101.552 31.5961 101.452 31.6587 101.33 31.7006C101.208 31.7425 101.064 31.7641 100.896 31.7641C100.729 31.7641 100.57 31.7451 100.42 31.7061C100.27 31.6678 100.128 31.6101 99.9957 31.5334C99.7445 31.3662 99.4786 31.1997 99.1995 31.0325C99.0599 30.9489 98.9021 30.8862 98.7242 30.8443C98.5462 30.8024 98.3491 30.7808 98.1327 30.7808C97.9025 30.7808 97.6896 30.8094 97.4942 30.8651C97.2988 30.9207 97.1202 31.0041 96.9597 31.1155C96.8062 31.227 96.6669 31.3504 96.5413 31.4863C96.4157 31.6222 96.3039 31.7712 96.2062 31.9314C96.0248 32.2381 95.8924 32.5368 95.8086 32.8294C95.7249 33.1221 95.6827 33.3318 95.6827 33.4573H97.2324C97.2324 33.4424 97.2462 33.352 97.2741 33.1849C97.3159 33.0177 97.4061 32.8581 97.5457 32.7047C97.6225 32.6211 97.7186 32.5585 97.8337 32.5166C97.9489 32.4749 98.0833 32.4531 98.2368 32.4531C98.3903 32.4531 98.5375 32.4721 98.6771 32.5111C98.8166 32.5494 98.949 32.6072 99.0746 32.6838C99.3258 32.837 99.5975 32.9967 99.8906 33.164C100.044 33.2406 100.212 33.2983 100.393 33.3366C100.575 33.3749 100.77 33.3946 100.979 33.3946C101.224 33.3946 101.447 33.3642 101.65 33.3049C101.852 33.2456 102.033 33.1576 102.194 33.0391C102.361 32.9206 102.511 32.7913 102.644 32.6519C102.777 32.5125 102.891 32.3627 102.989 32.2024C103.198 31.8679 103.346 31.5613 103.429 31.2826C103.513 31.0037 103.554 30.8156 103.554 30.7182L102.005 30.7184ZM120.512 30.7184V33.4987H123.318V30.7184H120.512ZM125.829 30.7184V43.4507C125.829 43.6668 125.844 43.8705 125.874 44.0622C125.904 44.2539 125.949 44.433 126.008 44.6003C126.067 44.7675 126.141 44.9223 126.23 45.0651C126.319 45.208 126.423 45.3393 126.541 45.4578C126.663 45.5727 126.798 45.6734 126.944 45.7597C127.091 45.846 127.25 45.9175 127.421 45.9751C127.592 46.0327 127.775 46.0754 127.971 46.1042C128.166 46.133 128.373 46.148 128.593 46.148C128.997 46.148 129.452 46.0992 129.954 46.0016C130.205 45.9527 130.441 45.893 130.66 45.8233C130.88 45.7537 131.084 45.6733 131.273 45.5827L130.896 43.451C130.715 43.5346 130.506 43.6043 130.268 43.6599C130.031 43.7156 129.801 43.7431 129.577 43.7431C129.431 43.7431 129.299 43.7219 129.184 43.6806C129.069 43.639 128.97 43.5761 128.886 43.4925C128.802 43.4019 128.74 43.2717 128.698 43.1009C128.656 42.9301 128.635 42.7185 128.635 42.4677V30.7186L125.829 30.7184ZM154.846 30.7184V45.9806H157.652V42.719L159.138 41.2556L162.34 45.9806H165.335L160.959 39.6871L165.041 35.0464H162.069L157.652 39.9595V30.7184H154.846ZM71.4822 30.8441V33.3313H73.8052V30.8441H71.4822ZM75.5017 30.8441V33.3313H77.8247V30.8441H75.5017ZM148.712 34.8155C148.266 34.8155 147.847 34.8528 147.456 34.926C147.065 34.9992 146.702 35.1089 146.367 35.2552C146.039 35.4015 145.746 35.5768 145.488 35.7824C145.23 35.9879 145.006 36.2242 144.817 36.489C144.636 36.7468 144.501 37.0298 144.41 37.3399C144.319 37.65 144.273 37.9871 144.273 38.3495C144.273 38.6491 144.306 38.9224 144.373 39.1698C144.439 39.4172 144.539 39.6385 144.672 39.8337C144.811 40.0218 144.984 40.1942 145.19 40.351C145.396 40.5079 145.634 40.6488 145.906 40.7743C146.45 41.0252 147.127 41.2828 147.937 41.5476C148.425 41.6871 148.837 41.8123 149.172 41.9238C149.347 41.9795 149.501 42.0413 149.633 42.1076C149.766 42.1738 149.878 42.2453 149.968 42.3219C150.059 42.3915 150.127 42.4768 150.172 42.5778C150.217 42.679 150.24 42.7955 150.24 42.9279C150.24 43.123 150.198 43.2934 150.114 43.4397C150.03 43.586 149.905 43.7086 149.737 43.8061C149.577 43.9037 149.388 43.9761 149.172 44.0249C148.956 44.0738 148.711 44.0981 148.439 44.0981C148.146 44.0981 147.846 44.0668 147.539 44.0041C147.232 43.9415 146.918 43.8473 146.597 43.7219C146.283 43.5964 145.965 43.4369 145.644 43.2418C145.323 43.0466 145 42.8164 144.672 42.5516L143.666 44.3705C143.973 44.6702 144.31 44.9326 144.676 45.1591C145.042 45.3856 145.439 45.5757 145.864 45.729C146.29 45.8822 146.727 45.9979 147.173 46.0746C147.62 46.1512 148.077 46.1895 148.544 46.1895C148.879 46.1895 149.197 46.1705 149.498 46.1315C149.799 46.0932 150.083 46.0365 150.349 45.9599C150.616 45.8833 150.867 45.7872 151.1 45.6722C151.333 45.5573 151.548 45.4231 151.747 45.2697C151.946 45.1165 152.12 44.9484 152.269 44.7655C152.419 44.5826 152.542 44.3842 152.642 44.1716C152.741 43.9591 152.817 43.7324 152.866 43.4902C152.916 43.248 152.941 42.9909 152.941 42.7191C152.941 42.3846 152.903 42.0868 152.826 41.8255C152.749 41.5642 152.633 41.3388 152.48 41.1507C152.326 40.9555 152.135 40.7763 151.905 40.6125C151.674 40.4487 151.405 40.3009 151.098 40.1685C150.498 39.9036 149.759 39.6461 148.879 39.3952C148.447 39.2557 148.077 39.1293 147.77 39.0179C147.477 38.9063 147.253 38.781 147.1 38.6416C147.03 38.565 146.977 38.4748 146.942 38.3704C146.907 38.2658 146.89 38.1473 146.89 38.0149C146.89 37.8686 146.91 37.7392 146.947 37.6277C146.986 37.5161 147.044 37.4222 147.12 37.3455C147.204 37.2619 147.298 37.1904 147.403 37.1311C147.508 37.0719 147.622 37.0249 147.748 36.99C148.013 36.9203 148.293 36.886 148.586 36.886C148.844 36.886 149.1 36.9114 149.355 36.9637C149.609 37.016 149.863 37.0943 150.114 37.1989C150.365 37.2965 150.624 37.4238 150.889 37.5806C151.154 37.7374 151.426 37.9246 151.705 38.1406L152.835 36.3632C152.549 36.0914 152.248 35.8584 151.931 35.6633C151.613 35.4681 151.28 35.3103 150.931 35.1919C150.582 35.0664 150.222 34.9724 149.852 34.9097C149.482 34.847 149.103 34.8155 148.712 34.8155ZM99.619 34.8373C99.1724 34.8373 98.7486 34.8754 98.3474 34.9523C97.9461 35.0289 97.5675 35.1436 97.2116 35.2968C96.8557 35.4433 96.5251 35.6195 96.2215 35.8251C95.918 36.0306 95.6414 36.2657 95.3902 36.5305C95.146 36.7953 94.9292 37.0795 94.7408 37.3826C94.5523 37.6857 94.3914 38.008 94.2589 38.3495C94.1263 38.6909 94.0272 39.0425 93.9609 39.4049C93.8946 39.7673 93.8613 40.1406 93.8613 40.5238C93.8613 40.9002 93.8947 41.2675 93.9609 41.6263C94.0272 41.9852 94.1263 42.3349 94.2589 42.6763C94.3914 43.0178 94.5523 43.3412 94.7408 43.6443C94.9292 43.9474 95.146 44.2304 95.3902 44.4952C95.6414 44.7601 95.918 44.9971 96.2215 45.2062C96.5251 45.4153 96.8557 45.5965 97.2116 45.7498C97.5675 45.896 97.9461 46.0058 98.3474 46.079C98.7486 46.1522 99.1724 46.1895 99.619 46.1895C100.066 46.1895 100.489 46.1522 100.891 46.079C101.292 46.0058 101.67 45.8961 102.026 45.7498C102.382 45.5965 102.71 45.4152 103.01 45.2062C103.31 44.9971 103.583 44.7601 103.827 44.4952C104.078 44.2304 104.298 43.9474 104.486 43.6443C104.675 43.3412 104.832 43.0178 104.957 42.6763C105.09 42.3349 105.189 41.9852 105.255 41.6263C105.321 41.2675 105.355 40.9002 105.355 40.5238C105.355 40.1406 105.321 39.7673 105.255 39.4049C105.189 39.0425 105.09 38.6909 104.957 38.3495C104.832 38.008 104.675 37.6857 104.486 37.3826C104.298 37.0795 104.078 36.7953 103.827 36.5305C103.576 36.2657 103.298 36.0307 102.995 35.8251C102.691 35.6196 102.361 35.4432 102.005 35.2968C101.657 35.1436 101.283 35.0289 100.885 34.9523C100.487 34.8756 100.066 34.8373 99.619 34.8373ZM113.478 34.8373C113.066 34.8373 112.677 34.8843 112.311 34.9785C111.944 35.0727 111.601 35.2136 111.28 35.4018C110.959 35.5829 110.666 35.7984 110.401 36.0493C110.135 36.3002 109.898 36.5862 109.689 36.9068V35.0255H107.24V50.4332H110.045V44.0566C110.226 44.3842 110.442 44.6791 110.693 44.9404C110.944 45.2017 111.231 45.4299 111.552 45.625C111.88 45.8132 112.232 45.9543 112.609 46.0483C112.985 46.1423 113.388 46.1895 113.813 46.1895C114.047 46.1895 114.274 46.1747 114.493 46.1425C114.713 46.1112 114.926 46.0642 115.132 46.0014C115.338 45.9387 115.537 45.8602 115.729 45.7662C115.921 45.672 116.105 45.5624 116.283 45.437C116.465 45.3081 116.636 45.1677 116.798 45.017C116.959 44.8663 117.11 44.7049 117.251 44.5325C117.393 44.36 117.524 44.1765 117.646 43.9823C117.767 43.788 117.877 43.5825 117.979 43.3665C118.083 43.1505 118.175 42.9286 118.253 42.7004C118.332 42.4722 118.397 42.2376 118.449 41.9971C118.502 41.7567 118.542 41.5104 118.568 41.2578C118.594 41.0051 118.607 40.746 118.607 40.4812C118.607 40.0909 118.574 39.7148 118.508 39.3525C118.441 38.9901 118.342 38.6424 118.21 38.3079C118.084 37.9664 117.932 37.6451 117.754 37.3454C117.576 37.0458 117.372 36.7676 117.142 36.5098C116.912 36.245 116.66 36.0099 116.388 35.8043C116.116 35.5988 115.823 35.4224 115.509 35.2761C115.202 35.1298 114.879 35.02 114.541 34.9468C114.202 34.8736 113.848 34.8373 113.478 34.8373ZM136.925 34.8373C136.506 34.8373 136.096 34.8667 135.695 34.926C135.294 34.9853 134.902 35.0733 134.518 35.1918C134.141 35.3103 133.767 35.4593 133.397 35.637C133.028 35.8148 132.662 36.0213 132.299 36.2582L133.199 38.0979C133.499 37.8958 133.793 37.7185 134.079 37.5652C134.365 37.412 134.643 37.2826 134.915 37.1781C135.188 37.0735 135.467 36.9952 135.753 36.9429C136.039 36.8906 136.333 36.8652 136.633 36.8652C137.037 36.8652 137.392 36.9122 137.695 37.0064C137.847 37.0534 137.986 37.112 138.112 37.1825C138.239 37.253 138.352 37.3355 138.453 37.4297C138.558 37.5236 138.649 37.6274 138.728 37.7414C138.806 37.8555 138.873 37.9802 138.925 38.1144C138.977 38.2486 139.016 38.3922 139.042 38.5464C139.068 38.7007 139.082 38.8655 139.082 39.0397V39.6248C138.907 39.5482 138.717 39.4815 138.511 39.4256C138.305 39.37 138.084 39.3249 137.846 39.29C137.372 39.2204 136.904 39.185 136.443 39.185C135.983 39.185 135.549 39.2223 135.141 39.2955C134.733 39.3687 134.35 39.4784 133.994 39.6247C133.638 39.7709 133.321 39.9483 133.041 40.1574C132.762 40.3665 132.522 40.6075 132.32 40.8792C132.222 41.0117 132.137 41.1489 132.063 41.2927C131.99 41.4364 131.928 41.5861 131.879 41.7411C131.782 42.0512 131.734 42.3843 131.734 42.7397C131.734 43.0672 131.774 43.3787 131.854 43.6749C131.934 43.971 132.054 44.2522 132.215 44.517C132.382 44.7749 132.579 45.006 132.806 45.2116C133.033 45.4171 133.29 45.5975 133.576 45.7508C133.869 45.8971 134.179 46.0068 134.507 46.08C134.835 46.1532 135.18 46.1894 135.543 46.1894C135.913 46.1894 136.28 46.1473 136.643 46.0637C137.005 45.9801 137.364 45.8548 137.72 45.6875C138.076 45.5203 138.403 45.3185 138.699 45.0815C138.996 44.8446 139.263 44.5722 139.5 44.2656L139.562 44.83C139.597 45.0111 139.659 45.1787 139.746 45.332C139.834 45.4852 139.946 45.6255 140.086 45.7509C140.232 45.8764 140.413 45.9704 140.626 46.0331C140.839 46.0957 141.084 46.1273 141.363 46.1273C141.502 46.1273 141.67 46.1125 141.866 46.0845C142.075 46.0566 142.306 46.0223 142.557 45.9806V43.7012C142.438 43.6864 142.335 43.6608 142.248 43.6225C142.161 43.5842 142.089 43.5342 142.033 43.4716C141.984 43.4089 141.948 43.3255 141.924 43.2211C141.899 43.1166 141.886 42.9901 141.886 42.8438V39.3525C141.886 38.9901 141.859 38.6493 141.804 38.3288C141.749 38.0082 141.667 37.7085 141.557 37.4297C141.447 37.1509 141.31 36.8934 141.145 36.6564C140.98 36.4195 140.787 36.2029 140.568 36.0078C140.351 35.8127 140.113 35.6423 139.853 35.496C139.594 35.3497 139.311 35.2271 139.008 35.1295C138.704 35.032 138.379 34.9585 138.032 34.9097C137.685 34.8608 137.316 34.8373 136.925 34.8373ZM171.029 34.8373C170.582 34.8373 170.159 34.8754 169.757 34.9523C169.356 35.0289 168.977 35.1436 168.621 35.2968C168.266 35.4433 167.936 35.6195 167.632 35.8251C167.329 36.0306 167.051 36.2657 166.8 36.5305C166.556 36.7953 166.339 37.0795 166.151 37.3826C165.962 37.6857 165.802 38.008 165.67 38.3495C165.537 38.6909 165.437 39.0425 165.371 39.4049C165.304 39.7673 165.271 40.1406 165.271 40.5238C165.271 40.9002 165.304 41.2674 165.371 41.6263C165.437 41.9852 165.537 42.3349 165.67 42.6763C165.802 43.0178 165.962 43.3412 166.151 43.6443C166.339 43.9475 166.556 44.2304 166.8 44.4952C167.051 44.7601 167.329 44.9971 167.632 45.2062C167.936 45.4153 168.266 45.5965 168.621 45.7498C168.977 45.896 169.356 46.0058 169.757 46.079C170.159 46.1522 170.582 46.1895 171.029 46.1895C171.475 46.1895 171.899 46.1522 172.3 46.079C172.702 46.0058 173.08 45.8961 173.436 45.7498C173.792 45.5965 174.12 45.4152 174.42 45.2062C174.72 44.9971 174.993 44.7601 175.237 44.4952C175.488 44.2304 175.708 43.9475 175.896 43.6443C176.085 43.3412 176.241 43.0178 176.367 42.6763C176.5 42.3349 176.6 41.9852 176.666 41.6263C176.732 41.2674 176.765 40.9002 176.765 40.5238C176.765 40.1406 176.732 39.7673 176.666 39.4049C176.6 39.0425 176.5 38.6909 176.367 38.3495C176.241 38.008 176.085 37.6857 175.896 37.3826C175.708 37.0795 175.488 36.7953 175.237 36.5305C174.986 36.2657 174.708 36.0307 174.404 35.8251C174.101 35.6196 173.771 35.4432 173.415 35.2968C173.066 35.1436 172.693 35.0289 172.295 34.9523C171.897 34.8756 171.475 34.8373 171.029 34.8373ZM183.108 34.8373C182.731 34.8373 182.371 34.8735 182.025 34.9467C181.68 35.02 181.35 35.1296 181.036 35.276C180.729 35.4155 180.441 35.5858 180.172 35.7879C179.903 35.99 179.654 36.2241 179.424 36.489C179.201 36.7468 179.001 37.0249 178.827 37.3246C178.653 37.6242 178.502 37.9445 178.377 38.286C178.251 38.6274 178.157 38.983 178.094 39.3524C178.032 39.7217 178 40.1058 178 40.503C178 40.8793 178.029 41.2446 178.089 41.6001C178.148 41.9555 178.237 42.3002 178.356 42.6348C178.475 42.9692 178.618 43.2846 178.785 43.5808C178.953 43.877 179.145 44.1542 179.361 44.4121C179.585 44.6699 179.827 44.9001 180.089 45.1022C180.35 45.3044 180.631 45.4787 180.931 45.625C181.238 45.7645 181.559 45.8682 181.894 45.9378C182.229 46.0075 182.578 46.0428 182.941 46.0428C183.311 46.0428 183.671 46.0007 184.019 45.9171C184.368 45.8335 184.707 45.7082 185.035 45.5409C185.37 45.3667 185.666 45.158 185.924 44.9141C186.182 44.6702 186.402 44.391 186.583 44.0774V45.4577C186.583 45.8131 186.545 46.1354 186.468 46.4246C186.392 46.7138 186.277 46.9694 186.123 47.1924C185.977 47.4224 185.803 47.6213 185.604 47.7885C185.405 47.9557 185.181 48.0919 184.93 48.1965C184.685 48.308 184.427 48.3912 184.155 48.4469C183.883 48.5026 183.597 48.5312 183.297 48.5312C182.941 48.5312 182.593 48.4939 182.255 48.4207C181.917 48.3475 181.587 48.2378 181.266 48.0914C180.952 47.9452 180.664 47.7707 180.402 47.5686C180.14 47.3665 179.905 47.1375 179.695 46.8796L178.168 48.3638C178.461 48.7262 178.783 49.0465 179.136 49.3252C179.488 49.604 179.871 49.841 180.282 50.0362C180.488 50.1371 180.706 50.225 180.934 50.3009C181.163 50.3766 181.402 50.4405 181.654 50.4911C181.905 50.5417 182.167 50.5796 182.441 50.605C182.715 50.6302 183 50.6423 183.297 50.6423C183.59 50.6423 183.875 50.6296 184.152 50.6029C184.429 50.5769 184.7 50.5381 184.961 50.4858C185.223 50.4335 185.477 50.3684 185.723 50.29C185.968 50.2117 186.206 50.1201 186.437 50.0155C186.667 49.9146 186.884 49.801 187.089 49.6765C187.294 49.5518 187.487 49.4155 187.667 49.2674C187.846 49.1192 188.014 48.9599 188.168 48.7883C188.323 48.6167 188.464 48.4333 188.593 48.2382C188.726 48.0466 188.842 47.845 188.941 47.6333C189.041 47.4217 189.124 47.2 189.19 46.9683C189.256 46.7366 189.306 46.495 189.339 46.2432C189.372 45.9914 189.388 45.7297 189.388 45.4579V35.0257H186.939V36.9485C186.73 36.6279 186.493 36.341 186.227 36.0866C185.962 35.8323 185.669 35.6109 185.348 35.4227C185.187 35.3251 185.021 35.2398 184.847 35.1668C184.674 35.0935 184.493 35.0317 184.306 34.983C183.933 34.8855 183.534 34.8373 183.108 34.8373ZM69.5348 35.0255V41.8822C69.5348 42.2341 69.553 42.5652 69.5896 42.8753C69.6262 43.1854 69.6817 43.4744 69.755 43.7427C69.8282 44.011 69.92 44.2589 70.0299 44.4853C70.1398 44.7118 70.2678 44.9175 70.4143 45.1022C70.5608 45.2834 70.7244 45.4421 70.905 45.578C71.0855 45.7139 71.2829 45.8265 71.4975 45.9171C71.7121 46.0077 71.9433 46.0762 72.1919 46.1215C72.4405 46.1668 72.7066 46.1893 72.9892 46.1893C73.4498 46.1893 73.8912 46.1422 74.3134 46.0481C74.7356 45.9539 75.1387 45.813 75.5225 45.6248C75.7144 45.5272 75.8979 45.4182 76.0723 45.2988C76.2468 45.1795 76.4126 45.0495 76.5696 44.9084C76.7266 44.7672 76.8747 44.6152 77.0142 44.4523C77.1538 44.2893 77.2842 44.1152 77.4063 43.9306L77.4688 44.8088C77.4967 45.011 77.5566 45.1922 77.6473 45.3524C77.738 45.5127 77.8596 45.6529 78.0131 45.7713C78.1736 45.8829 78.357 45.9661 78.5629 46.0218C78.7688 46.0775 78.9973 46.105 79.2485 46.105C79.402 46.105 79.5698 46.0923 79.7512 46.0635C79.9466 46.0487 80.184 46.0222 80.4631 45.9803V43.701C80.3445 43.6861 80.2415 43.6605 80.1543 43.6222C80.0671 43.5839 79.9954 43.534 79.9396 43.4713C79.8908 43.4087 79.8545 43.3242 79.8301 43.2198C79.8057 43.1152 79.7928 42.9898 79.7928 42.8435V35.0254H76.9879V41.8198C76.8833 42.0427 76.7665 42.2465 76.6374 42.4312C76.5084 42.6159 76.3671 42.7814 76.2136 42.9277C76.0671 43.074 75.911 43.2023 75.747 43.3138C75.583 43.4254 75.4104 43.5204 75.229 43.5971C75.0545 43.6667 74.879 43.7186 74.7011 43.7535C74.5231 43.7884 74.3425 43.806 74.1611 43.806C74.0111 43.806 73.8701 43.7933 73.7383 43.7667C73.6066 43.7406 73.4848 43.7008 73.3714 43.6485C73.2581 43.5963 73.1533 43.5311 73.0582 43.4528C72.9631 43.3745 72.8776 43.2828 72.8008 43.1782C72.7241 43.0703 72.6569 42.9495 72.5993 42.8162C72.5417 42.6828 72.4931 42.5372 72.4547 42.3787C72.378 42.0616 72.3397 41.6943 72.3397 41.2762V35.0254L69.5348 35.0255ZM89.2142 35.0255V45.9805H92.0191V35.0255H89.2142ZM120.512 35.0255V45.9805H123.318V35.0255H120.512ZM191.818 35.0255V41.8822C191.818 42.2341 191.837 42.5652 191.872 42.8753C191.909 43.1855 191.963 43.4744 192.037 43.7427C192.11 44.011 192.202 44.2588 192.311 44.4853C192.421 44.7118 192.55 44.9175 192.697 45.1022C192.844 45.2834 193.007 45.4421 193.188 45.578C193.368 45.7139 193.566 45.8265 193.78 45.9171C193.995 46.0077 194.226 46.0762 194.475 46.1215C194.723 46.1668 194.989 46.1893 195.272 46.1893C195.732 46.1893 196.174 46.1422 196.596 46.0481C197.018 45.9539 197.421 45.813 197.805 45.6248C197.997 45.5272 198.179 45.4182 198.354 45.2988C198.528 45.1795 198.694 45.0495 198.851 44.9084C199.008 44.7672 199.156 44.6152 199.296 44.4523C199.435 44.2893 199.567 44.1152 199.689 43.9306L199.751 44.8088C199.779 45.011 199.839 45.1922 199.93 45.3524C200.021 45.5127 200.142 45.6529 200.296 45.7713C200.456 45.8829 200.64 45.9661 200.845 46.0218C201.051 46.0775 201.28 46.105 201.531 46.105C201.684 46.105 201.852 46.0923 202.034 46.0635C202.229 46.0487 202.467 46.0222 202.746 45.9803V43.701C202.627 43.6861 202.524 43.6605 202.437 43.6222C202.35 43.5839 202.278 43.534 202.222 43.4713C202.173 43.4087 202.136 43.3242 202.112 43.2198C202.087 43.1152 202.075 42.9898 202.075 42.8435V35.0254H199.27V41.8198C199.166 42.0428 199.048 42.2465 198.919 42.4312C198.79 42.6159 198.648 42.7814 198.495 42.9277C198.348 43.074 198.193 43.2023 198.029 43.3138C197.865 43.4254 197.693 43.5204 197.511 43.5971C197.337 43.6667 197.16 43.7186 196.982 43.7535C196.804 43.7884 196.625 43.806 196.444 43.806C196.293 43.806 196.152 43.7933 196.021 43.7667C195.889 43.7406 195.767 43.7008 195.654 43.6485C195.54 43.5963 195.436 43.5311 195.341 43.4528C195.245 43.3742 195.16 43.2828 195.083 43.1782C195.006 43.0703 194.939 42.9495 194.882 42.8162C194.824 42.6828 194.775 42.5372 194.737 42.3787C194.66 42.0616 194.622 41.6943 194.622 41.2762V35.0254L191.818 35.0255ZM99.619 37.2206C99.8841 37.2206 100.137 37.2549 100.378 37.3246C100.619 37.3942 100.847 37.4992 101.064 37.6385C101.28 37.7777 101.473 37.9453 101.644 38.1405C101.815 38.3356 101.963 38.5579 102.089 38.8088C102.221 39.0596 102.321 39.3261 102.388 39.6083C102.454 39.8906 102.486 40.1894 102.486 40.503C102.486 40.8235 102.454 41.1262 102.388 41.4119C102.321 41.6976 102.221 41.966 102.089 42.2169C101.963 42.4608 101.815 42.6802 101.644 42.8753C101.473 43.0705 101.28 43.2409 101.064 43.3872C100.847 43.5267 100.619 43.6314 100.378 43.7011C100.137 43.7708 99.8841 43.8061 99.619 43.8061C99.3468 43.8061 99.0889 43.7708 98.8446 43.7011C98.6004 43.6315 98.3699 43.5265 98.1535 43.3872C97.9372 43.2477 97.7429 43.0823 97.572 42.8906C97.401 42.6991 97.2529 42.4816 97.1273 42.2377C97.0017 41.9868 96.9075 41.7184 96.8447 41.4327C96.7819 41.147 96.7505 40.8443 96.7505 40.5238C96.7505 40.2032 96.7819 39.9014 96.8447 39.6192C96.9075 39.337 97.0017 39.0734 97.1273 38.8295C97.2529 38.5787 97.401 38.3564 97.572 38.1613C97.7429 37.9661 97.9372 37.7986 98.1535 37.6592C98.3699 37.5128 98.6004 37.4032 98.8446 37.33C99.0889 37.2568 99.3468 37.2206 99.619 37.2206ZM112.703 37.2206C112.919 37.2206 113.127 37.2418 113.326 37.2831C113.525 37.325 113.715 37.3876 113.897 37.4712C114.085 37.5548 114.262 37.6558 114.426 37.7742C114.59 37.8927 114.741 38.0288 114.88 38.1822C115.02 38.3284 115.142 38.4872 115.247 38.6579C115.352 38.8288 115.439 39.0108 115.509 39.2059C115.586 39.4011 115.643 39.6059 115.682 39.8184C115.72 40.031 115.739 40.2513 115.739 40.4812C115.739 40.6973 115.721 40.9098 115.686 41.1189C115.651 41.328 115.599 41.5337 115.53 41.7358C115.467 41.9309 115.386 42.1181 115.289 42.2958C115.191 42.4736 115.076 42.6419 114.944 42.8022C114.818 42.9554 114.68 43.0937 114.53 43.2156C114.38 43.3375 114.218 43.4433 114.043 43.5339C113.869 43.6245 113.683 43.6931 113.488 43.7384C113.293 43.7837 113.087 43.8061 112.87 43.8061C112.675 43.8061 112.482 43.7824 112.29 43.7371C112.098 43.6918 111.908 43.6243 111.719 43.5337C111.531 43.4361 111.353 43.3216 111.186 43.1892C111.018 43.0567 110.861 42.9069 110.715 42.7396C110.575 42.5724 110.449 42.396 110.337 42.2114C110.225 42.0266 110.128 41.8338 110.045 41.6316V39.0603C110.128 38.7954 110.261 38.5515 110.442 38.3285C110.638 38.1055 110.861 37.9095 111.112 37.7423C111.364 37.5751 111.622 37.4497 111.887 37.366C112.166 37.2684 112.438 37.2206 112.703 37.2206ZM171.029 37.2206C171.294 37.2206 171.547 37.2549 171.788 37.3246C172.029 37.3942 172.257 37.499 172.473 37.6385C172.69 37.7777 172.883 37.9453 173.054 38.1405C173.225 38.3356 173.373 38.5579 173.499 38.8088C173.631 39.0596 173.731 39.3261 173.798 39.6083C173.864 39.8906 173.897 40.1894 173.897 40.503C173.897 40.8235 173.864 41.1262 173.798 41.4119C173.731 41.6976 173.631 41.966 173.499 42.2169C173.373 42.4608 173.225 42.6802 173.054 42.8753C172.883 43.0705 172.69 43.2409 172.473 43.3872C172.257 43.5267 172.029 43.6314 171.788 43.7011C171.547 43.7708 171.294 43.8061 171.029 43.8061C170.757 43.8061 170.499 43.7708 170.255 43.7011C170.01 43.6315 169.78 43.5265 169.563 43.3872C169.347 43.2477 169.153 43.0823 168.982 42.8906C168.811 42.6989 168.663 42.4816 168.537 42.2377C168.411 41.9868 168.317 41.7184 168.255 41.4327C168.192 41.147 168.16 40.8443 168.16 40.5238C168.16 40.2032 168.192 39.9015 168.255 39.6192C168.317 39.337 168.411 39.0735 168.537 38.8295C168.663 38.5787 168.811 38.3564 168.982 38.1613C169.153 37.9661 169.347 37.7986 169.563 37.6592C169.78 37.5128 170.01 37.4032 170.255 37.33C170.499 37.2568 170.757 37.2206 171.029 37.2206ZM183.715 37.2206C183.917 37.2206 184.115 37.2431 184.306 37.2884C184.498 37.3337 184.686 37.4012 184.867 37.4918C185.056 37.5754 185.233 37.6782 185.401 37.8002C185.568 37.9221 185.725 38.0632 185.872 38.2235C186.025 38.3837 186.161 38.5581 186.28 38.7463C186.399 38.9345 186.5 39.1362 186.583 39.3522V41.9663C186.486 42.2032 186.347 42.4403 186.165 42.6772C185.984 42.9002 185.774 43.0951 185.536 43.2624C185.299 43.4296 185.041 43.5619 184.762 43.6594C184.483 43.757 184.19 43.8061 183.883 43.8061C183.673 43.8061 183.469 43.7845 183.27 43.7426C183.072 43.7007 182.878 43.638 182.69 43.5544C182.508 43.4708 182.337 43.372 182.176 43.2569C182.016 43.142 181.866 43.0117 181.726 42.8653C181.593 42.7191 181.476 42.5603 181.371 42.3896C181.267 42.2188 181.175 42.0357 181.098 41.8405C181.022 41.6454 180.964 41.4436 180.925 41.2346C180.887 41.0255 180.868 40.809 180.868 40.586C180.868 40.37 180.883 40.1594 180.915 39.9538C180.947 39.7483 180.994 39.5474 181.057 39.3522C181.126 39.1501 181.21 38.9592 181.308 38.778C181.405 38.5968 181.517 38.4253 181.643 38.265C181.768 38.0978 181.907 37.9499 182.057 37.821C182.207 37.6921 182.369 37.5824 182.543 37.4918C182.717 37.4012 182.903 37.3337 183.098 37.2884C183.294 37.2431 183.499 37.2206 183.715 37.2206ZM136.884 40.795C137.232 40.795 137.602 40.8371 137.993 40.9207C138.384 40.9904 138.747 41.0951 139.082 41.2346V42.3426C139.082 42.4819 139.033 42.6347 138.935 42.802C138.837 42.9692 138.712 43.1368 138.558 43.304C138.433 43.4225 138.287 43.5322 138.123 43.6332C137.959 43.7342 137.777 43.8263 137.575 43.91C137.372 43.9866 137.167 44.0443 136.961 44.0829C136.756 44.1212 136.549 44.1398 136.339 44.1398C136.137 44.1398 135.949 44.1207 135.774 44.0829C135.6 44.0446 135.439 43.9868 135.292 43.91C135.146 43.8333 135.016 43.7453 134.905 43.6442C134.793 43.5432 134.699 43.4294 134.622 43.304C134.545 43.1785 134.488 43.0492 134.45 42.9168C134.412 42.7843 134.392 42.6493 134.392 42.51C134.392 42.3811 134.407 42.2583 134.436 42.1424C134.465 42.0267 134.508 41.9171 134.565 41.8143C134.623 41.7114 134.694 41.6154 134.781 41.5256C134.867 41.4358 134.968 41.3529 135.083 41.2762C135.32 41.116 135.589 40.9954 135.889 40.9153C136.189 40.835 136.521 40.795 136.884 40.795Z" fill="#EEEEEE"/>
</svg>
