<svg width="230" height="73" viewBox="0 0 230 73" fill="none" xmlns="http://www.w3.org/2000/svg">
<g clip-path="url(#clip0_407_2396)">
<path d="M43.9473 0V11.3496H55.3809V0H43.9473ZM151.211 0V62.2949H162.645V48.9824L168.703 43.0097L181.76 62.2949H193.963L176.127 36.6093L192.768 17.664H180.65L162.645 37.7187V0H151.211ZM105.984 0.51366V10.6679H115.455V0.51366H105.984ZM122.367 0.51366V10.6679H131.84V0.51366H122.367ZM68.2656 3.07226V17.5801H62.3789V26.3691H68.2656V52.0546C68.2656 52.7089 68.2993 53.332 68.3632 53.9258C68.4272 54.5195 68.5223 55.0839 68.6503 55.6172C68.7783 56.1505 68.9388 56.6541 69.1308 57.1269C69.3228 57.5998 69.5467 58.0426 69.8027 58.455C70.0729 58.8533 70.3648 59.2234 70.6777 59.5683C70.9906 59.9132 71.3241 60.2318 71.6796 60.5234C72.0352 60.815 72.4123 61.0801 72.8105 61.3183C73.2087 61.5566 73.6274 61.7682 74.0683 61.9531C74.9501 62.3229 75.8747 62.6002 76.8418 62.7851C77.8089 62.97 78.8186 63.0625 79.871 63.0625C80.6675 63.0625 81.458 63.019 82.2402 62.9336C83.0224 62.8487 83.7964 62.7215 84.5644 62.5508C85.3608 62.4086 86.1296 62.2382 86.8691 62.0391C87.6087 61.8399 88.3193 61.6115 89.0019 61.3555C90.3672 60.8436 91.5348 60.3885 92.5019 59.9902L90.1972 50.9453C89.5146 51.2297 88.6045 51.5705 87.4668 51.9687C86.8979 52.1678 86.3214 52.3164 85.7383 52.416C85.1551 52.5155 84.5641 52.5664 83.9668 52.5664C83.3694 52.5664 82.822 52.4812 82.3242 52.3105C81.8264 52.1398 81.3786 51.8843 80.9804 51.543C80.7813 51.3723 80.606 51.1752 80.4531 50.9512C80.3002 50.7272 80.1711 50.4765 80.0644 50.1992C79.8511 49.6445 79.7296 48.9828 79.7011 48.2148V26.3691H89.0879V17.5801H79.7011V3.07226H68.2656ZM43.9473 17.5801V62.2949H55.3809V17.5801H43.9473ZM98.0469 17.5801V45.5683C98.0469 47.0048 98.1222 48.3573 98.2715 49.623C98.4208 50.8888 98.6447 52.0689 98.9434 53.164C99.242 54.2591 99.6165 55.2689 100.064 56.1933C100.512 57.1178 101.034 57.9571 101.631 58.711C102.228 59.4505 102.895 60.0977 103.631 60.6523C104.367 61.207 105.172 61.6692 106.047 62.0391C106.922 62.4088 107.866 62.6862 108.879 62.8711C109.892 63.056 110.975 63.1485 112.127 63.1485C113.066 63.1485 113.985 63.1001 114.885 63.0039C115.784 62.9081 116.665 62.7643 117.525 62.5722C118.386 62.3802 119.226 62.1396 120.047 61.8515C120.868 61.5635 121.671 61.2277 122.453 60.8437C123.235 60.4455 123.982 60.0027 124.693 59.5156C125.404 59.0285 126.081 58.4979 126.721 57.9219C127.361 57.3458 127.964 56.7253 128.533 56.0605C129.102 55.3956 129.635 54.6854 130.133 53.9316L130.389 57.5156C130.446 57.928 130.535 58.3197 130.656 58.6894C130.777 59.0592 130.93 59.4072 131.115 59.7344C131.3 60.0615 131.517 60.3679 131.766 60.6523C132.014 60.9368 132.295 61.1996 132.607 61.4414C132.935 61.669 133.285 61.8684 133.658 62.0391C134.032 62.2097 134.428 62.351 134.848 62.4648C135.267 62.5786 135.71 62.6638 136.176 62.7206C136.642 62.7779 137.131 62.8066 137.643 62.8066C138.268 62.8066 138.95 62.7483 139.689 62.6347C140.486 62.5774 141.454 62.4654 142.592 62.2948V52.9921C142.108 52.9352 141.69 52.8302 141.334 52.6737C140.978 52.5173 140.687 52.3106 140.459 52.0546C140.26 51.7986 140.109 51.4558 140.01 51.0292C139.91 50.6025 139.861 50.0914 139.861 49.494V17.5799H128.426V45.3124C127.999 46.2226 127.524 47.0547 126.998 47.8085C126.472 48.5622 125.895 49.2385 125.27 49.8358C124.672 50.4332 124.04 50.9588 123.371 51.4139C122.703 51.869 121.997 52.2534 121.258 52.5663C120.547 52.8508 119.829 53.0647 119.104 53.2069C118.378 53.3491 117.646 53.4198 116.906 53.4198C116.295 53.4198 115.72 53.3663 115.184 53.2596C114.647 53.153 114.148 52.9925 113.686 52.7792C113.223 52.5658 112.798 52.3004 112.41 51.9804C112.023 51.6604 111.672 51.2859 111.359 50.8592C111.047 50.4184 110.774 49.9267 110.539 49.3827C110.304 48.8387 110.108 48.2427 109.951 47.5956C109.795 46.9485 109.678 46.2501 109.6 45.4999C109.521 44.7497 109.482 43.947 109.482 43.0937V17.5799L98.0469 17.5801Z" fill="#EEEEEE"/>
<path d="M0 15.959V28.0762L19.3711 40.1934L0 51.7989V64.5977L36.0098 43.2656V37.7188L0 15.959ZM198.229 62.295V72.6192H229.547V62.295H198.229Z" fill="#870042"/>
</g>
<defs>
<clipPath id="clip0_407_2396">
<rect width="229.547" height="72.6192" fill="white"/>
</clipPath>
</defs>
</svg>
