<svg width="541" height="240" viewBox="0 0 541 240" fill="none" xmlns="http://www.w3.org/2000/svg">
<rect x="35" y="37" width="471" height="170" fill="#EEEEEE"/>
<path fill-rule="evenodd" clip-rule="evenodd" d="M70 72V172H170.137V72H70ZM83.0177 93.9999L122.1 116.533V123.467L83.0177 146V130.398L101.056 120L83.0177 109.6V93.9999ZM122.1 146H157.119V159H122.1V146Z" fill="#870042"/>
<path fill-rule="evenodd" clip-rule="evenodd" d="M122.1 146V159H157.119V146H122.1Z" fill="#EEEEEE"/>
<path fill-rule="evenodd" clip-rule="evenodd" d="M83.0176 94V109.6L101.056 120L83.0176 130.398V146L122.1 123.467V116.533L83.0176 94Z" fill="#EEEEEE"/>
<path d="M313.836 89.5195V100.645C313.512 100.097 313.123 99.6003 312.668 99.1523C312.214 98.7043 311.693 98.3055 311.108 97.957C310.821 97.7767 310.525 97.6199 310.22 97.4844C309.914 97.3491 309.599 97.2349 309.275 97.1446C308.627 96.9643 307.942 96.8751 307.22 96.8751C306.796 96.8751 306.384 96.9016 305.984 96.959C305.583 97.015 305.195 97.0989 304.818 97.2111C304.441 97.323 304.074 97.4632 303.721 97.631C303.367 97.7992 303.026 97.995 302.696 98.2189C302.366 98.443 302.053 98.6869 301.759 98.9513C301.465 99.2159 301.188 99.5 300.93 99.8049C300.671 100.11 300.431 100.436 300.208 100.781C299.986 101.127 299.779 101.491 299.592 101.877C299.405 102.257 299.241 102.648 299.101 103.051C298.961 103.454 298.844 103.869 298.751 104.295C298.658 104.721 298.588 105.158 298.542 105.608C298.495 106.057 298.471 106.519 298.471 106.992C298.471 107.702 298.527 108.389 298.639 109.055C298.751 109.721 298.92 110.364 299.144 110.987C299.381 111.596 299.661 112.168 299.985 112.703C300.309 113.238 300.677 113.737 301.088 114.197C301.512 114.658 301.969 115.069 302.461 115.43C302.953 115.791 303.48 116.102 304.041 116.363C304.614 116.625 305.212 116.821 305.835 116.951C306.458 117.082 307.106 117.147 307.779 117.147C308.452 117.147 309.11 117.066 309.752 116.904C310.394 116.743 311.019 116.499 311.63 116.176C311.941 116.014 312.237 115.834 312.516 115.637C312.795 115.439 313.058 115.224 313.304 114.99C313.55 114.757 313.779 114.506 313.992 114.236C314.206 113.967 314.402 113.68 314.583 113.375L314.659 114.608C314.697 114.969 314.795 115.296 314.957 115.588C315.119 115.881 315.343 116.139 315.63 116.363C315.929 116.588 316.267 116.755 316.641 116.867C317.015 116.979 317.424 117.036 317.873 117.036C318.421 117.036 319.133 116.948 320.005 116.774V112.703C319.793 112.677 319.613 112.633 319.463 112.565C319.314 112.496 319.194 112.405 319.107 112.293C319.02 112.181 318.955 112.032 318.912 111.846C318.868 111.659 318.845 111.435 318.845 111.174V89.5198L313.836 89.5195ZM365.352 89.5195V116.773H370.36V110.949L373.016 108.336L378.735 116.773H384.082L376.269 105.535L383.558 97.2481H378.25L370.36 106.022V89.5195H365.352ZM194.842 90.2676V116.773H200.001V90.2676H194.842ZM203.291 90.2676V94.7832H211.777V116.773H216.899V94.7832H225.385V90.2676H203.291ZM242.843 90.8633V97.2109H240.263V101.057H242.843V112.293C242.843 112.865 242.899 113.385 243.011 113.852C243.123 114.318 243.291 114.733 243.516 115.094C243.752 115.442 244.027 115.743 244.339 115.998C244.65 116.253 244.999 116.463 245.385 116.625C245.772 116.787 246.176 116.907 246.6 116.988C247.023 117.069 247.467 117.109 247.928 117.109C248.626 117.109 249.31 117.034 249.983 116.885C250.681 116.76 251.329 116.587 251.927 116.363C252.526 116.139 253.037 115.94 253.461 115.766L252.452 111.808C252.152 111.933 251.753 112.082 251.255 112.256C250.756 112.43 250.245 112.518 249.721 112.518C249.46 112.518 249.22 112.48 249.002 112.406C248.783 112.331 248.587 112.219 248.413 112.07C248.238 111.921 248.105 111.725 248.012 111.482C247.918 111.24 247.866 110.949 247.853 110.613V101.057H251.965V97.2108H247.853V90.8632L242.843 90.8633ZM354.397 96.8379C353.6 96.8379 352.854 96.9025 352.156 97.0333C351.458 97.1641 350.81 97.3599 350.212 97.6212C349.626 97.8824 349.102 98.1975 348.641 98.5645C348.18 98.9315 347.781 99.3515 347.444 99.8244C347.12 100.285 346.877 100.792 346.715 101.346C346.553 101.9 346.472 102.5 346.472 103.147C346.472 103.682 346.532 104.17 346.65 104.611C346.769 105.053 346.945 105.449 347.182 105.797C347.431 106.133 347.74 106.441 348.107 106.721C348.475 107.001 348.902 107.253 349.388 107.477C350.36 107.925 351.569 108.387 353.014 108.86C353.887 109.109 354.622 109.332 355.22 109.531C355.532 109.631 355.807 109.739 356.044 109.858C356.281 109.976 356.478 110.104 356.64 110.24C356.802 110.365 356.925 110.517 357.006 110.697C357.087 110.878 357.127 111.086 357.127 111.322C357.127 111.671 357.052 111.977 356.902 112.238C356.753 112.5 356.529 112.717 356.229 112.891C355.943 113.065 355.606 113.196 355.22 113.283C354.834 113.37 354.398 113.414 353.912 113.414C353.388 113.414 352.852 113.358 352.304 113.246C351.756 113.134 351.195 112.966 350.622 112.742C350.061 112.518 349.494 112.231 348.921 111.883C348.347 111.535 347.768 111.123 347.182 110.651L345.388 113.899C345.937 114.434 346.538 114.904 347.192 115.309C347.846 115.713 348.554 116.053 349.314 116.326C350.074 116.6 350.853 116.805 351.651 116.942C352.448 117.078 353.265 117.147 354.1 117.147C354.698 117.147 355.266 117.113 355.803 117.045C356.34 116.977 356.846 116.874 357.323 116.737C357.799 116.6 358.247 116.428 358.662 116.223C359.078 116.018 359.463 115.778 359.818 115.504C360.173 115.231 360.485 114.931 360.751 114.604C361.018 114.277 361.239 113.925 361.416 113.545C361.594 113.166 361.728 112.759 361.817 112.327C361.906 111.894 361.95 111.435 361.95 110.95C361.95 110.352 361.882 109.821 361.744 109.354C361.607 108.887 361.4 108.487 361.126 108.151C360.852 107.802 360.511 107.48 360.1 107.188C359.688 106.895 359.208 106.631 358.66 106.395C357.589 105.922 356.266 105.462 354.696 105.014C353.923 104.765 353.263 104.541 352.715 104.342C352.191 104.143 351.794 103.919 351.52 103.67C351.395 103.534 351.3 103.371 351.238 103.184C351.176 102.997 351.146 102.786 351.146 102.549C351.146 102.288 351.18 102.059 351.248 101.86C351.316 101.661 351.42 101.493 351.557 101.356C351.706 101.207 351.874 101.079 352.061 100.973C352.248 100.867 352.453 100.783 352.677 100.721C353.151 100.597 353.65 100.534 354.173 100.534C354.635 100.534 355.092 100.581 355.546 100.674C356.001 100.767 356.453 100.907 356.902 101.094C357.35 101.268 357.811 101.496 358.285 101.776C358.758 102.056 359.245 102.388 359.744 102.774L361.762 99.5999C361.251 99.1146 360.711 98.6984 360.145 98.3499C359.578 98.0015 358.984 97.7216 358.361 97.5101C357.738 97.286 357.095 97.1182 356.434 97.0062C355.774 96.8943 355.095 96.8379 354.397 96.8379ZM264.937 96.8757C264.408 96.8757 263.895 96.9059 263.4 96.9638C262.905 97.0227 262.426 97.1112 261.965 97.2295C261.503 97.3478 261.059 97.4956 260.633 97.6728C260.206 97.8501 259.797 98.0575 259.404 98.2939C259.018 98.5241 258.654 98.7748 258.311 99.0439C257.968 99.313 257.648 99.6011 257.349 99.9091C257.05 100.217 256.771 100.545 256.516 100.892C256.26 101.239 256.027 101.605 255.816 101.991C255.61 102.377 255.43 102.773 255.276 103.179C255.122 103.585 254.993 104.001 254.89 104.427C254.788 104.853 254.711 105.289 254.66 105.735C254.608 106.182 254.581 106.638 254.581 107.104C254.581 107.776 254.641 108.434 254.759 109.075C254.878 109.716 255.055 110.34 255.291 110.95C255.541 111.547 255.84 112.114 256.189 112.649C256.538 113.184 256.937 113.688 257.386 114.161C257.835 114.622 258.33 115.034 258.872 115.401C259.414 115.768 260.003 116.09 260.638 116.364C261.274 116.625 261.947 116.821 262.657 116.952C263.367 117.083 264.115 117.148 264.9 117.148C265.623 117.148 266.315 117.095 266.975 116.989C267.636 116.883 268.264 116.724 268.863 116.513C269.461 116.288 270.018 116.025 270.535 115.72C271.052 115.415 271.53 115.07 271.966 114.684C272.415 114.299 272.809 113.884 273.152 113.442C273.494 113.001 273.785 112.53 274.022 112.032L269.723 110.839C269.561 111.237 269.326 111.597 269.021 111.921C268.716 112.244 268.339 112.531 267.891 112.78C267.454 113.017 267.002 113.193 266.535 113.311C266.068 113.43 265.584 113.489 265.086 113.489C264.65 113.489 264.228 113.442 263.817 113.349C263.405 113.255 263.006 113.115 262.62 112.929C262.246 112.729 261.902 112.486 261.591 112.2C261.279 111.914 260.999 111.585 260.75 111.212C260.513 110.838 260.324 110.434 260.181 109.999C260.038 109.563 259.941 109.096 259.891 108.598H275.031C275.056 108.399 275.08 108.151 275.105 107.852C275.13 107.529 275.143 107.217 275.143 106.919C275.143 106.477 275.118 106.042 275.066 105.616C275.015 105.19 274.938 104.771 274.836 104.36C274.733 103.95 274.604 103.546 274.45 103.151C274.296 102.756 274.116 102.371 273.91 101.991C273.711 101.605 273.488 101.238 273.243 100.891C272.999 100.544 272.731 100.217 272.442 99.909C272.152 99.601 271.84 99.3129 271.505 99.0438C271.17 98.7747 270.813 98.524 270.433 98.2938C270.053 98.0572 269.653 97.85 269.234 97.6727C268.815 97.4955 268.376 97.3476 267.918 97.2293C267.46 97.111 266.983 97.023 266.486 96.9636C265.989 96.9047 265.473 96.8757 264.937 96.8757ZM286.134 96.8757C285.387 96.8757 284.654 96.9282 283.938 97.0341C283.221 97.1399 282.521 97.299 281.835 97.5107C281.163 97.7223 280.495 97.9863 279.835 98.3036C279.174 98.6211 278.521 98.9918 277.873 99.415L279.481 102.7C280.016 102.339 280.538 102.021 281.049 101.747C281.56 101.473 282.059 101.244 282.545 101.058C283.031 100.871 283.531 100.731 284.042 100.638C284.552 100.544 285.074 100.497 285.61 100.497C286.333 100.497 286.967 100.581 287.509 100.749C287.78 100.833 288.028 100.938 288.254 101.064C288.48 101.189 288.682 101.337 288.863 101.505C289.049 101.673 289.213 101.86 289.353 102.064C289.493 102.267 289.612 102.488 289.705 102.728C289.799 102.967 289.868 103.226 289.915 103.501C289.961 103.776 289.985 104.069 289.985 104.38V105.425C289.674 105.288 289.334 105.171 288.966 105.071C288.599 104.972 288.203 104.89 287.779 104.827C286.932 104.703 286.096 104.642 285.274 104.642C284.451 104.642 283.677 104.706 282.948 104.837C282.219 104.968 281.536 105.164 280.9 105.425C280.265 105.686 279.697 106.005 279.199 106.378C278.7 106.752 278.271 107.18 277.91 107.665C277.736 107.902 277.583 108.149 277.452 108.405C277.322 108.662 277.211 108.927 277.124 109.204C276.949 109.758 276.864 110.353 276.864 110.988C276.864 111.572 276.936 112.131 277.079 112.659C277.222 113.188 277.436 113.688 277.722 114.161C278.021 114.622 278.373 115.036 278.778 115.404C279.183 115.771 279.642 116.091 280.153 116.364C280.677 116.626 281.23 116.822 281.816 116.952C282.401 117.083 283.02 117.148 283.668 117.148C284.328 117.148 284.982 117.074 285.63 116.925C286.278 116.776 286.919 116.55 287.554 116.251C288.19 115.953 288.773 115.592 289.303 115.169C289.832 114.746 290.309 114.262 290.732 113.714L290.844 114.722C290.906 115.046 291.016 115.345 291.172 115.618C291.328 115.892 291.529 116.141 291.778 116.365C292.04 116.589 292.362 116.756 292.743 116.868C293.123 116.98 293.56 117.037 294.059 117.037C294.308 117.037 294.608 117.014 294.956 116.963C295.33 116.913 295.742 116.85 296.191 116.775V112.705C295.979 112.678 295.795 112.634 295.639 112.566C295.483 112.498 295.355 112.407 295.256 112.295C295.169 112.183 295.104 112.034 295.06 111.847C295.017 111.661 294.993 111.437 294.993 111.176V104.941C294.993 104.294 294.945 103.684 294.847 103.111C294.749 102.539 294.601 102.003 294.405 101.506C294.208 101.008 293.964 100.548 293.669 100.125C293.375 99.7017 293.031 99.315 292.638 98.9666C292.252 98.6181 291.827 98.3139 291.363 98.0525C290.899 97.7914 290.395 97.5725 289.853 97.3983C289.311 97.224 288.731 97.0947 288.111 97.0076C287.491 96.9203 286.832 96.8757 286.134 96.8757ZM394.25 96.8757C393.453 96.8757 392.694 96.9438 391.978 97.081C391.261 97.2178 390.587 97.4226 389.952 97.6962C389.316 97.9574 388.726 98.2725 388.183 98.6396C387.641 99.0066 387.148 99.4264 386.699 99.8993C386.263 100.372 385.876 100.88 385.539 101.421C385.203 101.962 384.915 102.538 384.679 103.147C384.442 103.757 384.265 104.385 384.147 105.032C384.028 105.679 383.969 106.346 383.969 107.03C383.969 107.702 384.028 108.358 384.147 108.999C384.265 109.64 384.442 110.266 384.679 110.876C384.916 111.486 385.203 112.061 385.539 112.602C385.876 113.144 386.263 113.651 386.699 114.124C387.148 114.597 387.641 115.02 388.183 115.393C388.726 115.767 389.316 116.09 389.952 116.364C390.587 116.625 391.261 116.821 391.978 116.952C392.694 117.083 393.453 117.147 394.25 117.147C395.048 117.147 395.805 117.083 396.521 116.952C397.238 116.821 397.914 116.625 398.549 116.364C399.185 116.091 399.77 115.767 400.305 115.393C400.841 115.02 401.328 114.597 401.765 114.124C402.213 113.651 402.605 113.144 402.942 112.602C403.278 112.061 403.559 111.486 403.783 110.876C404.02 110.266 404.197 109.64 404.315 108.999C404.433 108.358 404.493 107.702 404.493 107.03C404.493 106.346 404.433 105.679 404.315 105.032C404.196 104.385 404.02 103.757 403.783 103.147C403.558 102.538 403.278 101.962 402.942 101.421C402.605 100.88 402.213 100.372 401.765 99.8993C401.316 99.4264 400.82 99.0067 400.278 98.6396C399.736 98.2726 399.148 97.9575 398.512 97.6962C397.889 97.4225 397.222 97.2178 396.511 97.081C395.801 96.9441 395.048 96.8757 394.25 96.8757ZM420.157 96.8757C419.596 96.8757 419.048 96.9158 418.512 96.9966C417.976 97.0775 417.452 97.1981 416.941 97.3598C416.443 97.5091 415.974 97.6966 415.531 97.9204C415.089 98.1445 414.674 98.405 414.287 98.7036C413.901 98.9898 413.549 99.3119 413.231 99.6665C412.913 100.021 412.63 100.409 412.381 100.833V97.2115H407.857V116.774H412.868V105.35C412.992 104.952 413.153 104.577 413.353 104.229C413.552 103.881 413.79 103.557 414.064 103.258C414.339 102.947 414.628 102.671 414.933 102.428C415.238 102.186 415.559 101.977 415.895 101.803C416.244 101.629 416.591 101.498 416.934 101.411C417.276 101.324 417.614 101.28 417.951 101.28C418.194 101.28 418.425 101.303 418.641 101.348C418.858 101.393 419.061 101.461 419.251 101.551C419.441 101.642 419.618 101.754 419.781 101.889C419.945 102.024 420.094 102.183 420.231 102.364C420.368 102.544 420.488 102.75 420.591 102.983C420.694 103.216 420.781 103.478 420.849 103.764C420.986 104.337 421.055 105.013 421.055 105.797V116.774H426.063V104.565C426.063 103.619 425.978 102.687 425.803 101.766C425.729 101.306 425.618 100.87 425.475 100.459C425.331 100.049 425.155 99.6622 424.943 99.3013C424.743 98.9279 424.495 98.5956 424.196 98.3032C423.897 98.0106 423.546 97.7589 423.148 97.5473C422.761 97.3232 422.32 97.1555 421.822 97.0435C421.323 96.9316 420.767 96.8757 420.157 96.8757ZM442.736 96.8757C442.176 96.8757 441.627 96.9158 441.092 96.9966C440.556 97.0775 440.034 97.1981 439.523 97.3598C439.025 97.5091 438.553 97.6966 438.111 97.9204C437.669 98.1445 437.253 98.405 436.867 98.7036C436.481 98.9898 436.129 99.3119 435.811 99.6665C435.493 100.021 435.211 100.409 434.962 100.833V97.2115H430.438V116.774H435.447V105.35C435.572 104.952 435.735 104.577 435.934 104.229C436.134 103.881 436.37 103.557 436.644 103.258C436.918 102.947 437.207 102.671 437.512 102.428C437.818 102.186 438.138 101.977 438.475 101.803C438.824 101.629 439.171 101.498 439.513 101.411C439.856 101.324 440.196 101.28 440.532 101.28C440.775 101.28 441.004 101.303 441.221 101.348C441.437 101.393 441.641 101.461 441.831 101.551C442.021 101.642 442.197 101.754 442.361 101.889C442.524 102.024 442.676 102.183 442.813 102.364C442.95 102.544 443.07 102.75 443.173 102.983C443.276 103.216 443.36 103.478 443.429 103.764C443.566 104.337 443.634 105.013 443.634 105.797V116.774H448.645V104.565C448.645 103.619 448.558 102.687 448.383 101.766C448.308 101.306 448.2 100.87 448.056 100.459C447.913 100.049 447.734 99.6622 447.522 99.3013C447.323 98.9279 447.074 98.5956 446.775 98.3032C446.476 98.0106 446.128 97.7589 445.729 97.5473C445.343 97.3232 444.899 97.1555 444.401 97.0435C443.902 96.9316 443.347 96.8757 442.736 96.8757ZM460.943 96.8757C460.195 96.8757 459.463 96.9282 458.747 97.0341C458.03 97.1399 457.329 97.299 456.644 97.5107C455.971 97.7223 455.304 97.9863 454.643 98.3036C453.983 98.6207 453.33 98.9918 452.682 99.415L454.289 102.7C454.825 102.339 455.349 102.021 455.86 101.747C456.371 101.473 456.868 101.244 457.354 101.058C457.84 100.871 458.339 100.731 458.85 100.638C459.361 100.544 459.885 100.497 460.421 100.497C461.143 100.497 461.776 100.581 462.318 100.749C462.589 100.833 462.837 100.938 463.063 101.064C463.289 101.189 463.492 101.337 463.673 101.505C463.86 101.673 464.024 101.86 464.164 102.064C464.304 102.267 464.421 102.488 464.514 102.728C464.608 102.967 464.677 103.226 464.723 103.501C464.77 103.776 464.794 104.069 464.794 104.38V105.425C464.482 105.288 464.142 105.171 463.775 105.071C463.407 104.972 463.011 104.89 462.588 104.827C461.74 104.703 460.907 104.642 460.084 104.642C459.262 104.642 458.486 104.706 457.757 104.837C457.028 104.968 456.345 105.164 455.709 105.425C455.074 105.686 454.508 106.005 454.01 106.378C453.511 106.752 453.08 107.18 452.719 107.665C452.544 107.902 452.392 108.149 452.261 108.405C452.13 108.662 452.022 108.927 451.934 109.204C451.76 109.758 451.673 110.353 451.673 110.988C451.673 111.572 451.744 112.131 451.888 112.659C452.031 113.188 452.244 113.688 452.531 114.161C452.83 114.622 453.182 115.036 453.587 115.404C453.992 115.771 454.451 116.091 454.962 116.364C455.485 116.626 456.041 116.822 456.626 116.952C457.212 117.083 457.829 117.148 458.477 117.148C459.137 117.148 459.79 117.074 460.438 116.925C461.086 116.776 461.729 116.552 462.365 116.253C463 115.955 463.582 115.592 464.111 115.169C464.641 114.746 465.117 114.262 465.541 113.714L465.654 114.722C465.717 115.046 465.825 115.345 465.981 115.618C466.137 115.892 466.34 116.141 466.589 116.365C466.851 116.589 467.172 116.756 467.552 116.868C467.932 116.98 468.371 117.037 468.87 117.037C469.119 117.037 469.417 117.014 469.766 116.963C470.139 116.913 470.551 116.85 471 116.775V112.707C470.788 112.68 470.604 112.635 470.448 112.566C470.292 112.498 470.164 112.407 470.065 112.295C469.978 112.183 469.913 112.034 469.869 111.847C469.826 111.661 469.802 111.437 469.802 111.176V104.941C469.802 104.294 469.754 103.684 469.656 103.111C469.558 102.539 469.41 102.003 469.214 101.506C469.018 101.008 468.773 100.548 468.479 100.125C468.184 99.7018 467.84 99.3151 467.448 98.9667C467.062 98.6182 466.637 98.3139 466.173 98.0526C465.709 97.7914 465.205 97.5725 464.663 97.3983C464.121 97.2241 463.54 97.0948 462.92 97.0077C462.3 96.9204 461.641 96.8757 460.943 96.8757ZM323.593 97.2117V109.456C323.593 110.084 323.628 110.676 323.691 111.229C323.757 111.783 323.856 112.301 323.986 112.78C324.117 113.259 324.281 113.7 324.477 114.104C324.674 114.509 324.902 114.876 325.164 115.206C325.425 115.529 325.717 115.813 326.04 116.055C326.362 116.298 326.715 116.501 327.098 116.663C327.481 116.825 327.896 116.945 328.34 117.026C328.784 117.107 329.257 117.147 329.762 117.147C330.584 117.147 331.372 117.063 332.126 116.895C332.88 116.727 333.6 116.475 334.286 116.139C334.628 115.965 334.956 115.772 335.267 115.559C335.579 115.346 335.875 115.112 336.155 114.86C336.436 114.608 336.7 114.336 336.949 114.045C337.198 113.754 337.431 113.445 337.649 113.116L337.763 114.684C337.813 115.045 337.918 115.368 338.08 115.655C338.242 115.941 338.461 116.189 338.735 116.401C339.021 116.6 339.347 116.748 339.715 116.848C340.082 116.947 340.491 116.999 340.939 116.999C341.213 116.999 341.513 116.972 341.837 116.922C342.186 116.896 342.61 116.848 343.108 116.774V112.703C342.896 112.677 342.712 112.633 342.557 112.565C342.401 112.496 342.273 112.405 342.173 112.293C342.086 112.181 342.022 112.032 341.978 111.846C341.934 111.659 341.911 111.435 341.911 111.174V97.2112H336.902V109.344C336.715 109.742 336.507 110.106 336.276 110.436C336.046 110.766 335.794 111.061 335.519 111.323C335.258 111.584 334.979 111.815 334.686 112.014C334.393 112.213 334.085 112.381 333.761 112.518C333.45 112.642 333.136 112.735 332.818 112.797C332.501 112.859 332.178 112.891 331.854 112.891C331.586 112.891 331.335 112.868 331.099 112.821C330.864 112.774 330.647 112.705 330.444 112.612C330.242 112.518 330.055 112.4 329.885 112.26C329.715 112.12 329.562 111.958 329.425 111.772C329.288 111.579 329.168 111.363 329.065 111.125C328.962 110.887 328.876 110.625 328.807 110.342C328.67 109.776 328.602 109.12 328.602 108.373V97.2112L323.593 97.2117ZM264.863 100.497C265.324 100.497 265.764 100.549 266.181 100.655C266.599 100.761 266.995 100.92 267.368 101.132C267.742 101.331 268.078 101.574 268.378 101.86C268.677 102.146 268.938 102.475 269.162 102.849C269.399 103.21 269.59 103.605 269.733 104.034C269.876 104.463 269.973 104.927 270.022 105.425H259.778C259.828 104.927 259.923 104.463 260.06 104.034C260.197 103.605 260.377 103.209 260.601 102.849C260.838 102.475 261.106 102.147 261.405 101.86C261.704 101.574 262.033 101.331 262.395 101.132C262.769 100.92 263.161 100.761 263.572 100.655C263.983 100.549 264.414 100.497 264.863 100.497ZM308.79 101.132C309.127 101.132 309.463 101.175 309.799 101.262C310.136 101.349 310.472 101.481 310.808 101.655C311.145 101.817 311.465 102.009 311.771 102.233C312.076 102.457 312.365 102.712 312.639 102.999C312.913 103.285 313.152 103.589 313.351 103.913C313.55 104.236 313.711 104.579 313.836 104.94V109.606C313.662 110.079 313.401 110.527 313.052 110.95C312.728 111.348 312.341 111.696 311.892 111.995C311.468 112.269 311.008 112.493 310.509 112.667C310.036 112.816 309.563 112.891 309.089 112.891C308.703 112.891 308.328 112.853 307.967 112.78C307.605 112.705 307.257 112.593 306.92 112.444C306.596 112.294 306.292 112.116 306.005 111.91C305.719 111.705 305.45 111.473 305.201 111.211C304.952 110.95 304.729 110.667 304.536 110.362C304.343 110.057 304.179 109.73 304.041 109.381C303.917 109.02 303.824 108.651 303.762 108.272C303.699 107.892 303.668 107.502 303.668 107.104C303.668 106.706 303.694 106.317 303.752 105.938C303.808 105.558 303.892 105.187 304.004 104.826C304.129 104.466 304.278 104.126 304.452 103.809C304.627 103.491 304.827 103.196 305.051 102.922C305.288 102.649 305.543 102.404 305.817 102.186C306.091 101.968 306.384 101.777 306.696 101.616C307.007 101.454 307.338 101.333 307.687 101.252C308.036 101.171 308.404 101.132 308.79 101.132ZM394.25 101.132C394.724 101.132 395.176 101.193 395.606 101.317C396.036 101.442 396.444 101.629 396.83 101.878C397.216 102.127 397.561 102.426 397.867 102.774C398.172 103.123 398.436 103.522 398.661 103.97C398.898 104.418 399.076 104.893 399.195 105.397C399.313 105.901 399.371 106.433 399.371 106.993C399.371 107.565 399.313 108.106 399.195 108.616C399.076 109.126 398.898 109.606 398.661 110.053C398.436 110.489 398.172 110.881 397.867 111.229C397.561 111.578 397.216 111.884 396.83 112.145C396.444 112.394 396.036 112.579 395.606 112.704C395.176 112.828 394.724 112.891 394.25 112.891C393.764 112.891 393.302 112.828 392.866 112.704C392.43 112.58 392.02 112.394 391.634 112.145C391.247 111.897 390.9 111.601 390.595 111.259C390.29 110.917 390.025 110.526 389.801 110.091C389.577 109.643 389.408 109.165 389.296 108.655C389.184 108.145 389.128 107.602 389.128 107.03C389.128 106.458 389.184 105.919 389.296 105.415C389.408 104.911 389.577 104.442 389.801 104.007C390.025 103.559 390.29 103.16 390.595 102.811C390.9 102.463 391.247 102.164 391.634 101.915C392.02 101.653 392.43 101.458 392.866 101.327C393.302 101.196 393.764 101.132 394.25 101.132ZM225.984 104.268V108.784H237.31V104.268H225.984ZM286.06 107.514C286.683 107.514 287.343 107.59 288.041 107.739C288.739 107.863 289.387 108.05 289.985 108.299V110.278C289.985 110.527 289.897 110.802 289.723 111.1C289.549 111.399 289.325 111.696 289.05 111.995C288.826 112.206 288.567 112.402 288.274 112.583C287.981 112.763 287.656 112.93 287.294 113.079C286.933 113.216 286.567 113.317 286.199 113.385C285.831 113.454 285.462 113.489 285.088 113.489C284.727 113.489 284.39 113.455 284.079 113.385C283.767 113.317 283.48 113.216 283.218 113.079C282.957 112.942 282.725 112.782 282.526 112.602C282.326 112.422 282.158 112.219 282.021 111.995C281.884 111.771 281.783 111.542 281.714 111.305C281.646 111.069 281.611 110.826 281.611 110.577C281.611 110.347 281.637 110.127 281.689 109.921C281.74 109.714 281.817 109.518 281.92 109.335C282.023 109.151 282.151 108.979 282.305 108.819C282.46 108.659 282.639 108.511 282.845 108.374C283.269 108.088 283.749 107.872 284.284 107.729C284.82 107.586 285.412 107.514 286.06 107.514ZM460.869 107.514C461.492 107.514 462.152 107.59 462.85 107.739C463.548 107.863 464.196 108.05 464.794 108.299V110.278C464.794 110.527 464.706 110.802 464.532 111.1C464.357 111.399 464.133 111.696 463.859 111.995C463.634 112.206 463.377 112.402 463.084 112.583C462.791 112.763 462.464 112.93 462.102 113.079C461.741 113.216 461.377 113.317 461.009 113.385C460.642 113.454 460.27 113.489 459.896 113.489C459.535 113.489 459.199 113.455 458.887 113.385C458.576 113.317 458.288 113.216 458.027 113.079C457.765 112.942 457.536 112.782 457.336 112.602C457.137 112.422 456.969 112.219 456.832 111.995C456.695 111.771 456.591 111.542 456.522 111.305C456.454 111.069 456.419 110.826 456.419 110.577C456.419 110.347 456.445 110.127 456.497 109.921C456.549 109.714 456.625 109.518 456.728 109.335C456.831 109.151 456.959 108.979 457.113 108.819C457.267 108.659 457.447 108.511 457.653 108.374C458.077 108.088 458.557 107.872 459.092 107.729C459.628 107.586 460.221 107.514 460.869 107.514ZM217.421 126.854V149.591C217.421 149.976 217.449 150.34 217.502 150.682C217.554 151.025 217.634 151.345 217.74 151.643C217.846 151.942 217.978 152.218 218.137 152.473C218.296 152.729 218.481 152.963 218.693 153.175C218.911 153.38 219.151 153.56 219.412 153.714C219.674 153.868 219.958 153.996 220.263 154.098C220.568 154.201 220.896 154.278 221.245 154.329C221.594 154.38 221.963 154.407 222.356 154.407C223.079 154.407 223.89 154.32 224.787 154.146C225.236 154.058 225.656 153.952 226.048 153.827C226.441 153.703 226.805 153.559 227.142 153.398L226.469 149.591C226.145 149.74 225.772 149.865 225.348 149.964C224.925 150.064 224.513 150.113 224.114 150.113C223.852 150.113 223.618 150.075 223.412 150.001C223.206 149.927 223.03 149.814 222.88 149.665C222.73 149.503 222.618 149.271 222.544 148.966C222.469 148.661 222.432 148.283 222.432 147.835V126.855L217.421 126.854ZM229.311 126.854V131.819H234.319V126.854H229.311ZM252.152 126.854C252.152 126.904 252.101 127.079 252.002 127.378C251.927 127.676 251.754 127.974 251.48 128.272C251.342 128.422 251.164 128.533 250.946 128.608C250.728 128.683 250.47 128.722 250.171 128.722C249.872 128.722 249.588 128.688 249.32 128.618C249.052 128.55 248.8 128.447 248.563 128.31C248.115 128.011 247.64 127.714 247.142 127.415C246.892 127.266 246.611 127.154 246.293 127.079C245.975 127.004 245.623 126.966 245.237 126.966C244.825 126.966 244.445 127.017 244.096 127.116C243.748 127.216 243.429 127.364 243.142 127.563C242.868 127.763 242.619 127.983 242.395 128.226C242.171 128.468 241.971 128.734 241.796 129.02C241.472 129.568 241.236 130.101 241.086 130.624C240.937 131.147 240.862 131.521 240.862 131.745H243.629C243.629 131.719 243.654 131.557 243.703 131.259C243.778 130.96 243.939 130.675 244.188 130.401C244.325 130.252 244.497 130.14 244.703 130.065C244.908 129.991 245.148 129.952 245.422 129.952C245.697 129.952 245.959 129.986 246.209 130.055C246.458 130.124 246.694 130.227 246.919 130.364C247.367 130.638 247.852 130.923 248.376 131.221C248.65 131.358 248.949 131.461 249.273 131.53C249.597 131.598 249.946 131.633 250.32 131.633C250.756 131.633 251.155 131.579 251.517 131.473C251.878 131.367 252.202 131.21 252.489 130.998C252.788 130.787 253.056 130.556 253.293 130.307C253.529 130.058 253.734 129.791 253.909 129.504C254.282 128.907 254.545 128.359 254.695 127.862C254.844 127.364 254.918 127.028 254.918 126.854L252.152 126.854ZM285.199 126.854V131.819H290.21V126.854H285.199ZM294.695 126.854V149.591C294.695 149.976 294.721 150.34 294.775 150.682C294.828 151.025 294.908 151.345 295.014 151.643C295.12 151.942 295.252 152.218 295.411 152.473C295.57 152.729 295.754 152.963 295.966 153.175C296.184 153.38 296.424 153.56 296.686 153.714C296.947 153.868 297.231 153.996 297.537 154.098C297.842 154.201 298.17 154.278 298.519 154.329C298.867 154.38 299.237 154.407 299.629 154.407C300.352 154.407 301.163 154.32 302.06 154.146C302.509 154.058 302.929 153.952 303.322 153.827C303.714 153.703 304.079 153.559 304.415 153.398L303.742 149.591C303.418 149.74 303.045 149.865 302.622 149.964C302.198 150.064 301.786 150.113 301.388 150.113C301.126 150.113 300.891 150.075 300.686 150.001C300.48 149.927 300.303 149.814 300.154 149.665C300.004 149.503 299.892 149.271 299.817 148.966C299.742 148.661 299.705 148.283 299.705 147.835V126.855L294.695 126.854ZM346.509 126.854V154.108H351.52V148.284L354.174 145.671L359.893 154.108H365.24L357.427 142.87L364.716 134.583H359.408L351.52 143.356V126.854H346.509ZM197.646 127.079V131.52H201.795V127.079H197.646ZM204.824 127.079V131.52H208.972V127.079H204.824ZM335.557 134.171C334.76 134.171 334.012 134.237 333.314 134.368C332.616 134.499 331.968 134.694 331.37 134.956C330.784 135.217 330.26 135.53 329.799 135.897C329.338 136.264 328.939 136.686 328.602 137.159C328.278 137.619 328.037 138.125 327.875 138.678C327.713 139.232 327.63 139.834 327.63 140.481C327.63 141.016 327.69 141.504 327.808 141.946C327.927 142.388 328.105 142.783 328.342 143.132C328.591 143.468 328.9 143.775 329.267 144.055C329.635 144.335 330.06 144.587 330.546 144.811C331.518 145.259 332.727 145.719 334.172 146.192C335.045 146.441 335.78 146.665 336.378 146.864C336.69 146.963 336.965 147.074 337.202 147.192C337.439 147.31 337.638 147.438 337.8 147.575C337.962 147.699 338.083 147.851 338.164 148.032C338.245 148.213 338.285 148.42 338.285 148.657C338.285 149.005 338.21 149.31 338.06 149.571C337.911 149.832 337.687 150.051 337.387 150.225C337.101 150.399 336.765 150.529 336.378 150.616C335.992 150.703 335.556 150.747 335.07 150.747C334.546 150.747 334.01 150.691 333.462 150.579C332.914 150.467 332.353 150.299 331.78 150.075C331.219 149.851 330.652 149.566 330.079 149.217C329.505 148.869 328.928 148.458 328.342 147.985L326.547 151.233C327.095 151.768 327.696 152.237 328.35 152.641C329.004 153.046 329.712 153.385 330.472 153.659C331.232 153.933 332.011 154.139 332.809 154.276C333.606 154.413 334.423 154.481 335.258 154.481C335.856 154.481 336.424 154.447 336.961 154.378C337.499 154.309 338.004 154.208 338.481 154.071C338.957 153.934 339.405 153.763 339.82 153.558C340.236 153.352 340.621 153.113 340.976 152.839C341.331 152.565 341.643 152.265 341.909 151.938C342.176 151.612 342.397 151.257 342.574 150.878C342.752 150.498 342.886 150.093 342.975 149.661C343.064 149.229 343.108 148.769 343.108 148.284C343.108 147.687 343.04 147.155 342.902 146.688C342.765 146.222 342.558 145.819 342.284 145.483C342.01 145.135 341.669 144.815 341.258 144.522C340.846 144.23 340.366 143.966 339.818 143.729C338.747 143.256 337.426 142.797 335.856 142.349C335.083 142.099 334.423 141.874 333.875 141.675C333.351 141.476 332.952 141.252 332.678 141.003C332.553 140.866 332.458 140.705 332.396 140.518C332.334 140.332 332.304 140.12 332.304 139.884C332.304 139.623 332.338 139.391 332.406 139.192C332.474 138.993 332.578 138.825 332.715 138.688C332.864 138.539 333.032 138.411 333.219 138.306C333.406 138.2 333.611 138.116 333.835 138.053C334.309 137.929 334.808 137.868 335.332 137.868C335.793 137.868 336.25 137.913 336.704 138.007C337.159 138.1 337.611 138.24 338.06 138.427C338.508 138.601 338.971 138.828 339.445 139.108C339.918 139.388 340.403 139.722 340.902 140.108L342.92 136.934C342.409 136.449 341.872 136.033 341.305 135.684C340.738 135.336 340.142 135.054 339.519 134.843C338.896 134.618 338.253 134.451 337.592 134.339C336.932 134.227 336.255 134.171 335.557 134.171ZM247.891 134.209C247.093 134.209 246.336 134.278 245.62 134.415C244.903 134.552 244.227 134.756 243.592 135.03C242.956 135.292 242.366 135.606 241.824 135.973C241.282 136.34 240.788 136.76 240.339 137.233C239.903 137.706 239.516 138.213 239.18 138.755C238.843 139.296 238.556 139.871 238.319 140.481C238.082 141.091 237.905 141.719 237.787 142.366C237.669 143.013 237.609 143.68 237.609 144.364C237.609 145.036 237.669 145.692 237.787 146.333C237.905 146.974 238.082 147.598 238.319 148.208C238.556 148.817 238.843 149.395 239.18 149.936C239.516 150.478 239.903 150.983 240.339 151.456C240.788 151.929 241.282 152.352 241.824 152.725C242.366 153.099 242.956 153.422 243.592 153.696C244.227 153.957 244.903 154.153 245.62 154.284C246.336 154.415 247.093 154.481 247.891 154.481C248.688 154.481 249.445 154.415 250.161 154.284C250.878 154.153 251.554 153.957 252.189 153.696C252.825 153.422 253.41 153.099 253.946 152.725C254.482 152.352 254.969 151.929 255.405 151.456C255.853 150.983 256.246 150.478 256.582 149.936C256.919 149.395 257.199 148.817 257.423 148.208C257.66 147.598 257.837 146.974 257.955 146.333C258.074 145.692 258.133 145.036 258.133 144.364C258.133 143.68 258.074 143.013 257.955 142.366C257.837 141.719 257.66 141.091 257.423 140.481C257.199 139.871 256.919 139.296 256.582 138.755C256.246 138.213 255.853 137.706 255.405 137.233C254.956 136.76 254.46 136.34 253.918 135.973C253.376 135.606 252.788 135.291 252.152 135.03C251.529 134.756 250.862 134.552 250.152 134.415C249.441 134.278 248.688 134.209 247.891 134.209ZM272.639 134.209C271.904 134.209 271.209 134.293 270.554 134.462C269.9 134.63 269.287 134.881 268.714 135.217C268.141 135.541 267.617 135.926 267.143 136.374C266.67 136.822 266.246 137.333 265.872 137.905V134.546H261.499V162.059H266.508V150.673C266.832 151.257 267.217 151.784 267.666 152.251C268.114 152.717 268.626 153.125 269.199 153.473C269.785 153.809 270.413 154.061 271.086 154.229C271.759 154.397 272.478 154.481 273.238 154.481C273.655 154.481 274.06 154.455 274.452 154.397C274.845 154.341 275.225 154.258 275.592 154.145C275.96 154.033 276.316 153.893 276.658 153.725C277.001 153.557 277.33 153.361 277.648 153.137C277.972 152.907 278.279 152.657 278.567 152.387C278.855 152.118 279.125 151.83 279.377 151.522C279.629 151.214 279.864 150.887 280.081 150.54C280.298 150.193 280.495 149.826 280.676 149.44C280.863 149.054 281.026 148.658 281.166 148.251C281.307 147.843 281.423 147.424 281.517 146.995C281.61 146.566 281.681 146.126 281.728 145.675C281.774 145.223 281.798 144.761 281.798 144.288C281.798 143.591 281.739 142.919 281.62 142.272C281.502 141.625 281.325 141.004 281.088 140.407C280.864 139.797 280.592 139.223 280.275 138.688C279.957 138.153 279.593 137.656 279.181 137.196C278.77 136.723 278.322 136.303 277.836 135.936C277.35 135.569 276.826 135.254 276.265 134.993C275.717 134.732 275.141 134.536 274.536 134.405C273.932 134.274 273.3 134.209 272.639 134.209ZM314.509 134.209C313.761 134.209 313.029 134.262 312.312 134.368C311.596 134.474 310.895 134.631 310.21 134.842C309.537 135.054 308.87 135.32 308.209 135.637C307.549 135.955 306.896 136.324 306.248 136.747L307.855 140.032C308.391 139.671 308.915 139.355 309.426 139.081C309.937 138.807 310.434 138.576 310.92 138.389C311.406 138.203 311.905 138.063 312.416 137.969C312.927 137.876 313.451 137.831 313.987 137.831C314.709 137.831 315.342 137.915 315.884 138.083C316.155 138.167 316.403 138.271 316.629 138.397C316.855 138.523 317.056 138.671 317.237 138.839C317.424 139.007 317.588 139.192 317.728 139.395C317.868 139.599 317.987 139.822 318.08 140.061C318.174 140.301 318.242 140.557 318.289 140.833C318.336 141.108 318.36 141.403 318.36 141.714V142.759C318.048 142.622 317.708 142.503 317.341 142.403C316.973 142.304 316.577 142.223 316.154 142.161C315.306 142.036 314.471 141.973 313.648 141.973C312.826 141.973 312.052 142.04 311.323 142.171C310.594 142.301 309.911 142.497 309.275 142.758C308.64 143.02 308.072 143.336 307.574 143.71C307.075 144.083 306.646 144.513 306.285 144.999C306.11 145.235 305.958 145.48 305.827 145.737C305.696 145.994 305.586 146.261 305.499 146.538C305.324 147.091 305.239 147.686 305.239 148.321C305.239 148.906 305.31 149.462 305.453 149.991C305.597 150.52 305.81 151.022 306.097 151.495C306.396 151.955 306.748 152.368 307.153 152.735C307.558 153.102 308.017 153.424 308.528 153.698C309.051 153.959 309.605 154.155 310.19 154.286C310.776 154.416 311.393 154.481 312.041 154.481C312.701 154.481 313.356 154.406 314.004 154.257C314.652 154.107 315.293 153.884 315.929 153.585C316.564 153.286 317.148 152.926 317.677 152.503C318.207 152.08 318.683 151.593 319.107 151.046L319.218 152.053C319.281 152.377 319.391 152.676 319.547 152.95C319.703 153.224 319.904 153.474 320.153 153.698C320.414 153.922 320.737 154.09 321.117 154.202C321.497 154.314 321.935 154.37 322.433 154.37C322.682 154.37 322.982 154.344 323.331 154.294C323.705 154.244 324.117 154.183 324.565 154.108V150.038C324.353 150.011 324.169 149.966 324.014 149.897C323.858 149.829 323.73 149.74 323.63 149.628C323.543 149.516 323.478 149.367 323.435 149.181C323.391 148.994 323.368 148.768 323.368 148.507V142.272C323.368 141.625 323.32 141.017 323.221 140.444C323.123 139.872 322.976 139.337 322.779 138.839C322.583 138.341 322.338 137.881 322.044 137.458C321.749 137.035 321.406 136.648 321.013 136.3C320.627 135.951 320.202 135.647 319.738 135.386C319.274 135.124 318.77 134.906 318.228 134.731C317.686 134.557 317.105 134.426 316.485 134.339C315.866 134.251 315.207 134.209 314.509 134.209ZM375.408 134.209C374.611 134.209 373.854 134.278 373.138 134.415C372.421 134.552 371.745 134.756 371.109 135.03C370.474 135.292 369.885 135.606 369.343 135.973C368.801 136.34 368.306 136.76 367.857 137.233C367.421 137.706 367.034 138.213 366.697 138.755C366.361 139.296 366.075 139.871 365.839 140.481C365.602 141.091 365.423 141.719 365.305 142.366C365.186 143.013 365.127 143.68 365.127 144.364C365.127 145.036 365.186 145.692 365.305 146.333C365.423 146.974 365.602 147.598 365.839 148.208C366.075 148.817 366.361 149.395 366.697 149.936C367.034 150.478 367.421 150.983 367.857 151.456C368.306 151.929 368.801 152.352 369.343 152.725C369.885 153.099 370.474 153.422 371.109 153.696C371.745 153.957 372.421 154.153 373.138 154.284C373.854 154.415 374.611 154.481 375.408 154.481C376.206 154.481 376.962 154.415 377.679 154.284C378.395 154.153 379.072 153.957 379.707 153.696C380.343 153.422 380.928 153.099 381.463 152.725C381.999 152.352 382.486 151.929 382.922 151.456C383.371 150.983 383.763 150.478 384.1 149.936C384.436 149.395 384.716 148.817 384.941 148.208C385.178 147.598 385.356 146.974 385.475 146.333C385.593 145.692 385.651 145.036 385.651 144.364C385.651 143.68 385.593 143.013 385.475 142.366C385.356 141.719 385.178 141.091 384.941 140.481C384.716 139.871 384.436 139.296 384.1 138.755C383.763 138.213 383.371 137.706 382.922 137.233C382.474 136.76 381.978 136.34 381.436 135.973C380.894 135.606 380.305 135.291 379.67 135.03C379.047 134.756 378.379 134.552 377.669 134.415C376.959 134.278 376.206 134.209 375.408 134.209ZM396.979 134.209C396.306 134.209 395.661 134.274 395.044 134.405C394.428 134.536 393.839 134.731 393.278 134.993C392.73 135.242 392.215 135.546 391.735 135.907C391.255 136.268 390.811 136.686 390.399 137.159C390.001 137.619 389.645 138.116 389.334 138.651C389.022 139.186 388.754 139.758 388.53 140.368C388.305 140.978 388.137 141.613 388.025 142.272C387.913 142.932 387.857 143.617 387.857 144.327C387.857 144.999 387.909 145.651 388.015 146.286C388.121 146.92 388.281 147.536 388.492 148.133C388.704 148.731 388.96 149.294 389.259 149.823C389.558 150.352 389.902 150.847 390.288 151.307C390.687 151.768 391.119 152.179 391.587 152.54C392.054 152.901 392.555 153.212 393.091 153.473C393.639 153.722 394.212 153.907 394.81 154.032C395.408 154.156 396.031 154.219 396.679 154.219C397.34 154.219 397.983 154.144 398.606 153.995C399.229 153.846 399.833 153.622 400.419 153.323C401.017 153.012 401.546 152.639 402.007 152.204C402.468 151.768 402.86 151.27 403.184 150.71V153.174C403.184 153.809 403.116 154.385 402.979 154.901C402.842 155.417 402.637 155.874 402.363 156.272C402.101 156.683 401.791 157.038 401.436 157.337C401.081 157.635 400.68 157.878 400.231 158.065C399.795 158.264 399.334 158.413 398.848 158.512C398.362 158.612 397.851 158.663 397.315 158.663C396.679 158.663 396.059 158.596 395.455 158.466C394.851 158.335 394.262 158.139 393.689 157.878C393.128 157.616 392.613 157.305 392.146 156.944C391.678 156.583 391.258 156.174 390.884 155.714L388.156 158.364C388.679 159.011 389.256 159.583 389.885 160.081C390.514 160.579 391.197 161.002 391.933 161.35C392.3 161.531 392.688 161.687 393.096 161.823C393.504 161.958 393.933 162.072 394.381 162.163C394.83 162.253 395.298 162.321 395.787 162.366C396.277 162.411 396.785 162.433 397.315 162.433C397.838 162.433 398.347 162.41 398.842 162.362C399.338 162.316 399.82 162.247 400.288 162.153C400.755 162.06 401.208 161.943 401.647 161.804C402.086 161.664 402.511 161.5 402.922 161.313C403.333 161.133 403.722 160.93 404.088 160.708C404.454 160.485 404.798 160.242 405.119 159.977C405.439 159.713 405.739 159.428 406.014 159.122C406.29 158.815 406.543 158.488 406.773 158.14C407.01 157.798 407.217 157.437 407.395 157.06C407.573 156.682 407.721 156.286 407.839 155.872C407.957 155.458 408.046 155.027 408.105 154.577C408.164 154.128 408.193 153.66 408.193 153.175V134.546H403.82V137.979C403.446 137.407 403.022 136.895 402.548 136.44C402.075 135.986 401.551 135.591 400.978 135.255C400.691 135.081 400.394 134.928 400.084 134.798C399.774 134.667 399.451 134.557 399.118 134.47C398.451 134.295 397.739 134.209 396.979 134.209ZM194.169 134.545V146.79C194.169 147.418 194.201 148.009 194.267 148.563C194.332 149.117 194.431 149.633 194.562 150.112C194.693 150.591 194.857 151.034 195.053 151.438C195.249 151.843 195.478 152.21 195.739 152.54C196.001 152.863 196.293 153.147 196.616 153.389C196.938 153.632 197.291 153.833 197.674 153.995C198.057 154.157 198.47 154.279 198.914 154.36C199.358 154.441 199.833 154.481 200.338 154.481C201.16 154.481 201.948 154.397 202.702 154.229C203.456 154.06 204.176 153.809 204.861 153.473C205.204 153.299 205.532 153.104 205.843 152.891C206.155 152.678 206.451 152.445 206.731 152.194C207.011 151.941 207.276 151.67 207.525 151.379C207.774 151.088 208.007 150.777 208.225 150.447L208.337 152.016C208.387 152.377 208.493 152.7 208.655 152.986C208.817 153.273 209.035 153.523 209.309 153.735C209.595 153.934 209.923 154.082 210.291 154.182C210.658 154.281 211.066 154.33 211.515 154.33C211.789 154.33 212.089 154.308 212.413 154.256C212.761 154.23 213.185 154.183 213.684 154.108V150.037C213.472 150.011 213.288 149.965 213.132 149.897C212.977 149.828 212.849 149.739 212.749 149.627C212.662 149.515 212.597 149.365 212.553 149.178C212.51 148.991 212.487 148.768 212.487 148.506V134.545H207.478V146.678C207.291 147.076 207.083 147.44 206.852 147.77C206.622 148.1 206.369 148.395 206.095 148.657C205.834 148.918 205.555 149.147 205.262 149.346C204.969 149.545 204.661 149.715 204.337 149.852C204.026 149.976 203.712 150.069 203.394 150.131C203.077 150.194 202.754 150.225 202.43 150.225C202.162 150.225 201.91 150.202 201.675 150.155C201.44 150.108 201.223 150.037 201.02 149.944C200.818 149.85 200.63 149.734 200.461 149.594C200.291 149.454 200.138 149.291 200.001 149.104C199.864 148.911 199.744 148.695 199.641 148.457C199.538 148.219 199.452 147.959 199.383 147.676C199.246 147.11 199.178 146.454 199.178 145.707V134.545L194.169 134.545ZM229.311 134.545V154.108H234.319V134.545H229.311ZM285.199 134.545V154.108H290.21V134.545H285.199ZM412.531 134.545V146.79C412.531 147.418 412.565 148.009 412.629 148.563C412.694 149.117 412.791 149.633 412.922 150.112C413.053 150.591 413.217 151.034 413.413 151.438C413.609 151.843 413.84 152.21 414.101 152.54C414.363 152.863 414.655 153.147 414.978 153.389C415.3 153.632 415.653 153.833 416.036 153.995C416.419 154.157 416.832 154.279 417.276 154.36C417.72 154.441 418.195 154.481 418.699 154.481C419.522 154.481 420.31 154.397 421.064 154.229C421.818 154.06 422.538 153.809 423.223 153.473C423.566 153.299 423.892 153.104 424.203 152.891C424.515 152.678 424.811 152.445 425.091 152.194C425.371 151.941 425.636 151.67 425.885 151.379C426.134 151.088 426.369 150.777 426.587 150.447L426.698 152.016C426.748 152.377 426.855 152.7 427.017 152.986C427.179 153.273 427.396 153.523 427.67 153.735C427.957 153.934 428.285 154.082 428.652 154.182C429.02 154.281 429.428 154.33 429.876 154.33C430.151 154.33 430.45 154.308 430.774 154.256C431.123 154.23 431.547 154.183 432.046 154.108V150.037C431.834 150.011 431.65 149.965 431.494 149.897C431.338 149.828 431.21 149.739 431.111 149.627C431.024 149.515 430.957 149.365 430.913 149.178C430.87 148.991 430.848 148.768 430.848 148.506V134.545H425.839V146.678C425.653 147.076 425.442 147.44 425.212 147.77C424.981 148.1 424.729 148.395 424.455 148.657C424.193 148.918 423.917 149.147 423.624 149.346C423.331 149.545 423.023 149.715 422.699 149.852C422.387 149.976 422.072 150.069 421.754 150.131C421.436 150.194 421.116 150.225 420.792 150.225C420.524 150.225 420.272 150.202 420.037 150.155C419.802 150.108 419.584 150.037 419.382 149.944C419.179 149.85 418.992 149.734 418.822 149.594C418.652 149.454 418.5 149.291 418.363 149.104C418.226 148.911 418.106 148.695 418.003 148.457C417.9 148.219 417.813 147.959 417.744 147.676C417.607 147.11 417.539 146.454 417.539 145.707V134.545L412.531 134.545ZM247.891 138.465C248.364 138.465 248.816 138.527 249.246 138.651C249.676 138.775 250.084 138.963 250.47 139.212C250.857 139.46 251.202 139.76 251.507 140.108C251.812 140.456 252.077 140.853 252.301 141.301C252.538 141.749 252.716 142.225 252.835 142.729C252.953 143.233 253.011 143.767 253.011 144.327C253.011 144.899 252.953 145.44 252.835 145.95C252.716 146.46 252.538 146.939 252.301 147.387C252.077 147.823 251.812 148.215 251.507 148.563C251.202 148.912 250.857 149.216 250.47 149.477C250.084 149.726 249.676 149.913 249.246 150.038C248.816 150.162 248.364 150.225 247.891 150.225C247.405 150.225 246.944 150.162 246.508 150.038C246.072 149.913 245.66 149.726 245.274 149.477C244.887 149.228 244.541 148.933 244.235 148.59C243.93 148.248 243.666 147.86 243.441 147.424C243.217 146.976 243.049 146.497 242.937 145.987C242.824 145.477 242.768 144.936 242.768 144.364C242.768 143.791 242.824 143.253 242.937 142.749C243.049 142.245 243.217 141.774 243.441 141.338C243.666 140.89 243.93 140.494 244.235 140.145C244.541 139.797 244.887 139.497 245.274 139.249C245.66 138.987 246.072 138.791 246.508 138.661C246.944 138.53 247.405 138.465 247.891 138.465ZM271.255 138.465C271.641 138.465 272.012 138.503 272.367 138.577C272.723 138.652 273.062 138.764 273.386 138.913C273.723 139.062 274.038 139.242 274.331 139.454C274.624 139.666 274.893 139.909 275.143 140.182C275.392 140.444 275.611 140.727 275.798 141.032C275.985 141.337 276.141 141.662 276.265 142.011C276.402 142.359 276.506 142.725 276.574 143.104C276.643 143.484 276.676 143.877 276.676 144.288C276.676 144.674 276.645 145.053 276.582 145.427C276.52 145.8 276.427 146.167 276.302 146.528C276.19 146.877 276.047 147.211 275.872 147.528C275.698 147.846 275.493 148.146 275.256 148.432C275.032 148.706 274.785 148.953 274.517 149.171C274.249 149.388 273.96 149.577 273.648 149.739C273.337 149.901 273.006 150.023 272.657 150.104C272.308 150.185 271.94 150.225 271.554 150.225C271.205 150.225 270.86 150.183 270.517 150.102C270.174 150.021 269.835 149.901 269.498 149.739C269.162 149.565 268.845 149.36 268.546 149.124C268.247 148.887 267.966 148.619 267.705 148.321C267.456 148.022 267.229 147.707 267.03 147.377C266.831 147.047 266.657 146.703 266.508 146.342V141.75C266.657 141.278 266.894 140.842 267.218 140.444C267.567 140.046 267.966 139.696 268.415 139.397C268.863 139.098 269.324 138.874 269.797 138.725C270.296 138.551 270.781 138.465 271.255 138.465ZM375.408 138.465C375.882 138.465 376.334 138.527 376.764 138.651C377.194 138.775 377.602 138.962 377.988 139.212C378.374 139.46 378.719 139.76 379.025 140.108C379.33 140.456 379.594 140.853 379.819 141.301C380.055 141.749 380.234 142.225 380.353 142.729C380.471 143.233 380.53 143.767 380.53 144.327C380.53 144.899 380.471 145.44 380.353 145.95C380.234 146.46 380.055 146.939 379.819 147.387C379.594 147.823 379.33 148.215 379.025 148.563C378.719 148.912 378.374 149.216 377.988 149.477C377.602 149.726 377.194 149.913 376.764 150.038C376.334 150.162 375.882 150.225 375.408 150.225C374.922 150.225 374.462 150.162 374.026 150.038C373.589 149.913 373.178 149.726 372.791 149.477C372.405 149.228 372.058 148.933 371.753 148.59C371.447 148.248 371.183 147.86 370.959 147.424C370.734 146.976 370.566 146.497 370.454 145.987C370.342 145.477 370.286 144.936 370.286 144.364C370.286 143.791 370.342 143.253 370.454 142.749C370.566 142.245 370.734 141.774 370.959 141.338C371.183 140.89 371.448 140.494 371.753 140.145C372.058 139.797 372.405 139.497 372.791 139.249C373.178 138.987 373.589 138.791 374.026 138.661C374.462 138.53 374.922 138.465 375.408 138.465ZM398.062 138.465C398.424 138.465 398.776 138.505 399.118 138.586C399.461 138.667 399.796 138.788 400.12 138.95C400.456 139.099 400.773 139.283 401.072 139.5C401.371 139.718 401.651 139.97 401.913 140.256C402.187 140.542 402.431 140.854 402.643 141.19C402.855 141.526 403.035 141.886 403.184 142.272V146.94C403.01 147.363 402.761 147.786 402.437 148.209C402.113 148.608 401.738 148.956 401.315 149.254C400.891 149.553 400.43 149.789 399.932 149.963C399.434 150.137 398.91 150.225 398.361 150.225C397.988 150.225 397.623 150.187 397.268 150.112C396.913 150.037 396.568 149.925 396.232 149.776C395.908 149.626 395.601 149.45 395.314 149.244C395.028 149.039 394.76 148.807 394.51 148.545C394.274 148.284 394.064 148.001 393.877 147.696C393.69 147.391 393.527 147.064 393.39 146.715C393.253 146.367 393.149 146.006 393.081 145.633C393.012 145.26 392.979 144.873 392.979 144.475C392.979 144.089 393.005 143.713 393.063 143.346C393.119 142.979 393.203 142.62 393.315 142.272C393.44 141.911 393.589 141.57 393.763 141.246C393.938 140.923 394.137 140.617 394.362 140.33C394.586 140.032 394.833 139.768 395.101 139.537C395.369 139.307 395.658 139.111 395.969 138.95C396.281 138.788 396.612 138.667 396.961 138.586C397.31 138.505 397.676 138.465 398.062 138.465ZM314.435 144.848C315.058 144.848 315.718 144.923 316.416 145.073C317.114 145.197 317.762 145.384 318.36 145.633V147.612C318.36 147.86 318.272 148.133 318.098 148.432C317.923 148.731 317.699 149.03 317.425 149.329C317.201 149.54 316.942 149.736 316.649 149.916C316.356 150.097 316.03 150.261 315.669 150.411C315.307 150.547 314.941 150.651 314.574 150.719C314.206 150.788 313.837 150.821 313.463 150.821C313.101 150.821 312.765 150.787 312.453 150.719C312.142 150.651 311.855 150.548 311.593 150.411C311.331 150.274 311.1 150.117 310.901 149.936C310.701 149.756 310.533 149.553 310.396 149.329C310.259 149.104 310.158 148.874 310.089 148.637C310.021 148.401 309.985 148.16 309.985 147.911C309.985 147.68 310.012 147.461 310.064 147.254C310.115 147.048 310.192 146.852 310.295 146.668C310.397 146.485 310.525 146.313 310.68 146.153C310.834 145.993 311.014 145.844 311.22 145.708C311.643 145.421 312.123 145.206 312.659 145.063C313.195 144.92 313.787 144.848 314.435 144.848Z" fill="#4C4C4E"/>
<path d="M122 240V0" stroke="#4C4C4E"/>
<path d="M35 240L35 0" stroke="#4C4C4E"/>
<path d="M70 240V0" stroke="#4C4C4E"/>
<path d="M157 240L157 0" stroke="#4C4C4E"/>
<path d="M471 240V0" stroke="#4C4C4E"/>
<path d="M506 240L506 0" stroke="#4C4C4E"/>
<path d="M0 37H541" stroke="#4C4C4E"/>
<path d="M0 72H541" stroke="#4C4C4E"/>
<path d="M0 172H541" stroke="#4C4C4E"/>
<path d="M0 207H541" stroke="#4C4C4E"/>
</svg>
