<svg width="40" height="40" viewBox="0 0 40 40" fill="none" xmlns="http://www.w3.org/2000/svg">
<path fill-rule="evenodd" clip-rule="evenodd" d="M17.4545 7.35738e-10C15.9272 7.35738e-10 14.5907 -3.99996e-05 13.4087 0.018533C12.8174 0.0278262 12.2653 0.0417393 11.747 0.0626389C11.2283 0.0835453 10.7444 0.111458 10.2896 0.148637C9.83494 0.185797 9.40955 0.231969 9.00922 0.290635C8.60856 0.348694 8.2335 0.417966 7.87851 0.501965C7.70118 0.543764 7.52851 0.589297 7.36052 0.637963C7.19252 0.687022 7.02919 0.739961 6.86986 0.796627C6.71053 0.853519 6.5552 0.914625 6.4032 0.979957C6.2512 1.04528 6.10254 1.11529 5.95654 1.18929C5.69988 1.31995 5.44921 1.46062 5.20529 1.60995C4.96129 1.75994 4.72329 1.91861 4.49283 2.08661C4.26217 2.2546 4.03817 2.43127 3.82191 2.61593C3.60525 2.80059 3.39658 2.99392 3.19525 3.19525C2.99392 3.39658 2.80059 3.60525 2.61593 3.82191C2.43127 4.03857 2.2546 4.2619 2.0866 4.49283C1.91861 4.72349 1.75994 4.96149 1.60995 5.20529C1.45995 5.44928 1.31995 5.69994 1.18929 5.95654C1.11529 6.10254 1.04529 6.2512 0.979957 6.4032C0.914644 6.5552 0.853959 6.71053 0.796626 6.86986C0.739727 7.02919 0.686628 7.19252 0.637962 7.36052C0.588903 7.52851 0.543297 7.70051 0.501965 7.87851C0.418633 8.23384 0.348634 8.60889 0.290635 9.00922C0.232576 9.40988 0.18597 9.83487 0.148637 10.2896C0.111485 10.7443 0.083565 11.2287 0.062639 11.747C0.0417393 12.2656 0.0278262 12.8177 0.0185397 13.4087C-3.99996e-05 14.5907 7.3574e-10 15.9272 7.3574e-10 17.4545V22.5453C7.3574e-10 24.0727 -3.99996e-05 25.4092 0.018533 26.5912C0.0278262 27.1825 0.0417393 27.7346 0.0626389 28.2529C0.0835384 28.7716 0.111458 29.2555 0.148637 29.7103C0.185797 30.1649 0.231969 30.5903 0.290635 30.9907C0.348694 31.3913 0.417966 31.7664 0.501965 32.1214C0.543764 32.2987 0.589297 32.4714 0.637962 32.6394C0.687021 32.8074 0.739961 32.9707 0.796626 33.13C0.853519 33.2893 0.914624 33.4447 0.979957 33.5967C1.04528 33.7487 1.11529 33.8973 1.18929 34.0433C1.31995 34.3 1.46062 34.5507 1.60995 34.7947C1.75994 35.0387 1.91861 35.2767 2.0866 35.5072C2.2546 35.7378 2.43127 35.9618 2.61593 36.1781C2.80059 36.3948 2.99392 36.6034 3.19525 36.8048C3.39658 37.0061 3.60525 37.1994 3.82191 37.3841C4.03857 37.5687 4.2619 37.7454 4.49283 37.9134C4.72349 38.0814 4.96149 38.2401 5.20529 38.3901C5.44928 38.5401 5.69994 38.6801 5.95654 38.8107C6.10254 38.8847 6.2512 38.9547 6.4032 39.0201C6.5552 39.0854 6.71053 39.1467 6.86986 39.2034C7.02919 39.2603 7.19252 39.3134 7.36052 39.362C7.52851 39.4111 7.70051 39.4567 7.87851 39.498C8.23383 39.5814 8.60889 39.6514 9.00922 39.7094C9.40988 39.7674 9.83487 39.814 10.2896 39.8514C10.7443 39.8885 11.2287 39.9164 11.747 39.9374C12.2656 39.9583 12.8177 39.9722 13.4087 39.9815C14.5907 40.0001 15.9272 40 17.4545 40H22.5453C24.0727 40 25.4092 40 26.5912 39.9815C27.1825 39.9722 27.7346 39.9583 28.2529 39.9374C28.7716 39.9165 29.2555 39.8885 29.7103 39.8514C30.1649 39.8142 30.5903 39.768 30.9907 39.7094C31.3913 39.6513 31.7664 39.582 32.1214 39.498C32.2987 39.4562 32.4714 39.4107 32.6394 39.362C32.8074 39.313 32.9707 39.26 33.13 39.2034C33.2893 39.1465 33.4447 39.0854 33.5967 39.0201C33.7487 38.9547 33.8973 38.8854 34.0433 38.8107C34.3 38.6801 34.5507 38.5394 34.7947 38.3901C35.0387 38.2401 35.2767 38.0814 35.5072 37.9134C35.7378 37.7454 35.9618 37.5687 36.1781 37.3841C36.3948 37.1994 36.6034 37.0061 36.8048 36.8048C37.0061 36.6034 37.1994 36.3948 37.3841 36.1781C37.5687 35.9614 37.7454 35.7381 37.9134 35.5072C38.0814 35.2765 38.2401 35.0385 38.3901 34.7947C38.5401 34.5507 38.6801 34.3001 38.8107 34.0433C38.8847 33.8973 38.9547 33.7487 39.02 33.5967C39.0854 33.4447 39.1467 33.2893 39.2034 33.13C39.2603 32.9707 39.3134 32.8074 39.362 32.6394C39.4111 32.4714 39.4567 32.2994 39.498 32.1214C39.5814 31.766 39.6514 31.391 39.7094 30.9907C39.7674 30.59 39.814 30.165 39.8514 29.7103C39.8885 29.2556 39.9164 28.7712 39.9374 28.2529C39.9583 27.7342 39.9722 27.1822 39.9815 26.5912C40 25.4092 40 24.0727 40 22.5453V17.4545C40 15.9272 40 14.5907 39.9815 13.4087C39.9718 12.8174 39.9579 12.2653 39.937 11.747C39.916 11.2283 39.8881 10.7444 39.851 10.2896C39.8138 9.83494 39.7676 9.40955 39.709 9.00922C39.6509 8.60856 39.5816 8.2335 39.4976 7.87851C39.4558 7.70118 39.4103 7.52851 39.3616 7.36052C39.3126 7.19252 39.2596 7.02919 39.203 6.86986C39.1461 6.71053 39.085 6.5552 39.0196 6.4032C38.9543 6.2512 38.885 6.10254 38.8103 5.95654C38.6796 5.69988 38.539 5.44921 38.3896 5.20529C38.2396 4.96129 38.081 4.72329 37.913 4.49283C37.745 4.26217 37.5683 4.03817 37.3837 3.82191C37.199 3.60525 37.0057 3.39658 36.8043 3.19525C36.603 2.99392 36.3943 2.80059 36.1777 2.61593C35.961 2.43127 35.7377 2.2546 35.5068 2.08661C35.2761 1.91861 35.0381 1.75994 34.7943 1.60995C34.5503 1.45995 34.2996 1.31995 34.0429 1.18929C33.8969 1.11529 33.7483 1.04529 33.5963 0.979957C33.4443 0.914645 33.2889 0.853959 33.1296 0.796627C32.9703 0.739728 32.8069 0.686628 32.6389 0.637963C32.4709 0.588903 32.299 0.543298 32.121 0.501965C31.7656 0.418633 31.3906 0.348634 30.9902 0.290635C30.5896 0.232576 30.1646 0.18597 29.7099 0.148638C29.2552 0.111485 28.7708 0.0835653 28.2525 0.062639C27.7338 0.0417393 27.1818 0.0278262 26.5908 0.018533C25.4088 -3.99996e-05 24.0723 7.35738e-10 22.5449 7.35738e-10H17.4545ZM17.4545 3.63627H22.5453C24.1028 3.63627 25.4109 3.63697 26.5341 3.65439C27.0954 3.66309 27.6111 3.67601 28.0884 3.69508C28.5658 3.71415 29.005 3.73942 29.4141 3.77308C29.8128 3.80564 30.1627 3.84508 30.4723 3.88974C30.7816 3.93471 31.0509 3.98574 31.288 4.04107C31.5253 4.09683 31.73 4.15774 31.9113 4.2224C32.0926 4.28731 32.25 4.3564 32.392 4.42907C32.5633 4.5164 32.73 4.60973 32.8926 4.70973C33.0553 4.80973 33.2139 4.91572 33.3673 5.02772C33.5213 5.13972 33.6699 5.25705 33.8146 5.38038C33.9586 5.50371 34.0979 5.63238 34.2326 5.76638C34.3666 5.90037 34.4953 6.03971 34.6186 6.18437C34.7419 6.32837 34.8599 6.4777 34.9712 6.6317C35.0832 6.78569 35.1892 6.94369 35.2892 7.10702C35.3892 7.26968 35.4826 7.43701 35.5699 7.60768C35.6426 7.74968 35.7112 7.90767 35.7766 8.089C35.8415 8.27033 35.9026 8.47566 35.9579 8.71233C36.0137 8.94965 36.0646 9.21898 36.1092 9.52818C36.1542 9.83751 36.1932 10.1875 36.2259 10.586C36.2593 10.9954 36.2846 11.4344 36.3039 11.9117C36.323 12.3891 36.3359 12.9045 36.3446 13.4662C36.362 14.5894 36.3627 15.8976 36.3627 17.455V22.5458C36.3627 24.1032 36.362 25.4113 36.3445 26.5346C36.3358 27.0959 36.3229 27.6115 36.3038 28.0889C36.2848 28.5662 36.2595 29.0054 36.2258 29.4146C36.1933 29.8132 36.1545 30.1632 36.1092 30.4727C36.0642 30.782 36.0132 31.0513 35.9578 31.2884C35.9021 31.5257 35.8412 31.7304 35.7765 31.9117C35.7116 32.0931 35.6425 32.2504 35.5699 32.3924C35.4825 32.5637 35.3892 32.7304 35.2892 32.8931C35.1892 33.0557 35.0832 33.2144 34.9712 33.3677C34.8592 33.5217 34.7419 33.6704 34.6185 33.815C34.4952 33.959 34.3665 34.0984 34.2325 34.233C34.0985 34.367 33.9592 34.4957 33.8145 34.619C33.6706 34.7424 33.5212 34.8604 33.3672 34.9717C33.2132 35.0837 33.0552 35.1897 32.8926 35.2897C32.7299 35.3897 32.5626 35.483 32.3919 35.5703C32.2499 35.643 32.0919 35.7117 31.9112 35.777C31.7299 35.8419 31.5246 35.903 31.2879 35.9583C31.0506 36.0141 30.7819 36.065 30.4722 36.1097C30.1629 36.1546 29.8129 36.1937 29.4141 36.2263C29.0048 36.2597 28.5657 36.285 28.0884 36.3043C27.6111 36.3234 27.0957 36.3363 26.5341 36.345C25.4108 36.3625 24.1027 36.3632 22.5453 36.3632H17.4545C15.8971 36.3632 14.589 36.3625 13.4657 36.345C12.9044 36.3363 12.3886 36.3234 11.9113 36.3043C11.4339 36.2853 10.9947 36.26 10.5855 36.2263C10.1869 36.1938 9.83715 36.1543 9.52769 36.1097C9.21836 36.0647 8.94904 36.0137 8.71184 35.9583C8.47451 35.9026 8.26985 35.8417 8.08852 35.777C7.90719 35.7121 7.74986 35.643 7.60719 35.5703C7.43586 35.483 7.2692 35.3897 7.10653 35.2897C6.94387 35.1897 6.78521 35.0837 6.63121 34.9717C6.47721 34.8597 6.32855 34.7424 6.18388 34.619C6.03988 34.4957 5.90055 34.367 5.76589 34.233C5.63189 34.099 5.50256 33.9597 5.3799 33.815C5.25656 33.671 5.13923 33.5217 5.02723 33.3677C4.91524 33.2137 4.80924 33.0557 4.70924 32.8931C4.60924 32.7304 4.51591 32.5631 4.42858 32.3924C4.35591 32.2504 4.28725 32.0924 4.22192 31.9117C4.157 31.7304 4.09592 31.5251 4.04059 31.2884C3.98482 31.0511 3.93392 30.7824 3.88925 30.4727C3.84427 30.1634 3.80526 29.8134 3.77259 29.4146C3.73916 29.0053 3.71389 28.5662 3.69459 28.0889C3.67552 27.6115 3.66261 27.0961 3.6539 26.5346C3.63648 25.4113 3.63579 24.1032 3.63579 22.5458V17.455C3.63579 15.8976 3.63648 14.5895 3.6539 13.4662C3.6626 12.9049 3.67552 12.3891 3.69459 11.9117C3.71366 11.4344 3.73894 10.9952 3.77259 10.586C3.80515 10.1874 3.84459 9.83764 3.88925 9.52818C3.93423 9.21885 3.98525 8.94952 4.04059 8.71233C4.09634 8.475 4.15725 8.27033 4.22192 8.089C4.28683 7.90767 4.35591 7.75034 4.42858 7.60768C4.51591 7.43635 4.60924 7.26968 4.70924 7.10702C4.80924 6.94436 4.91524 6.78569 5.02723 6.6317C5.13923 6.4777 5.25656 6.32903 5.3799 6.18437C5.50323 6.04037 5.63189 5.90104 5.76589 5.76638C5.89989 5.63238 6.03922 5.50305 6.18388 5.38038C6.32788 5.25705 6.47721 5.13972 6.63121 5.02772C6.78521 4.91572 6.9432 4.80973 7.10653 4.70973C7.2692 4.60973 7.43653 4.5164 7.60719 4.42907C7.74919 4.3564 7.90719 4.28773 8.08852 4.2224C8.26985 4.15748 8.47518 4.0964 8.71184 4.04107C8.94917 3.98531 9.2185 3.93441 9.52769 3.88974C9.83702 3.84476 10.187 3.80574 10.5855 3.77308C10.9949 3.73965 11.4339 3.71438 11.9113 3.69508C12.3886 3.67601 12.904 3.66309 13.4657 3.65439C14.589 3.63697 15.8972 3.63627 17.4545 3.63627ZM30.9089 7.27254C30.7835 7.27254 30.6609 7.28528 30.5422 7.30951C30.4235 7.33373 30.3095 7.3695 30.2009 7.41551C30.0922 7.46151 29.9889 7.51751 29.8922 7.58284C29.7955 7.64818 29.7055 7.72284 29.6229 7.80484C29.5409 7.88683 29.4662 7.9775 29.4009 8.07416C29.3355 8.17083 29.2789 8.27416 29.2329 8.38282C29.1869 8.49149 29.1509 8.60549 29.1269 8.72415C29.1034 8.84282 29.0907 8.96482 29.0907 9.09081C29.0907 9.21614 29.1034 9.33881 29.1276 9.45747C29.1518 9.57614 29.1875 9.69014 29.2336 9.7988C29.2796 9.90747 29.3363 10.0108 29.4016 10.1075C29.467 10.2041 29.5416 10.2941 29.6236 10.3768C29.7056 10.4588 29.7963 10.5335 29.893 10.5988C29.9896 10.6641 30.0929 10.7201 30.2016 10.7661C30.3103 10.8121 30.4243 10.8481 30.5429 10.8721C30.6616 10.8963 30.7836 10.9091 30.9096 10.9091C31.0349 10.9091 31.1576 10.8963 31.2763 10.8721C31.3949 10.8479 31.5089 10.8121 31.6176 10.7661C31.7263 10.7201 31.8296 10.6641 31.9262 10.5988C32.0229 10.5334 32.1129 10.4588 32.1956 10.3768C32.2776 10.2948 32.3522 10.2041 32.4176 10.1075C32.4829 10.0108 32.5396 9.90747 32.5856 9.7988C32.6316 9.69014 32.6676 9.57614 32.6916 9.45747C32.7143 9.33881 32.7271 9.21681 32.7271 9.09081C32.7271 8.96548 32.7143 8.84282 32.6901 8.72415C32.6659 8.60549 32.6302 8.49149 32.5841 8.38282C32.5381 8.27416 32.4814 8.17083 32.4161 8.07416C32.3507 7.9775 32.2761 7.8875 32.1941 7.80484C32.1121 7.72284 32.0214 7.64817 31.9248 7.58284C31.8281 7.51749 31.7248 7.46151 31.6161 7.41551C31.5074 7.36951 31.3934 7.33351 31.2748 7.30951C31.1561 7.28529 31.0349 7.27254 30.9089 7.27254ZM19.9999 9.09071C19.8119 9.09071 19.6246 9.09546 19.4386 9.10487C19.2526 9.11429 19.0679 9.12844 18.8846 9.14706C18.518 9.1843 18.1566 9.23972 17.8015 9.31239C17.4462 9.38505 17.0976 9.47505 16.756 9.58105C16.4147 9.68705 16.08 9.80971 15.7537 9.94771C15.4277 10.0857 15.1091 10.239 14.8001 10.407C14.4908 10.575 14.1908 10.7577 13.9007 10.9537C13.6107 11.1497 13.33 11.3597 13.0609 11.5817C12.7916 11.8037 12.5329 12.039 12.2862 12.2857C12.0395 12.5324 11.8042 12.7911 11.5821 13.0605C11.3601 13.3298 11.1501 13.6098 10.9541 13.9002C10.7582 14.1902 10.5755 14.4902 10.4075 14.7997C10.2395 15.109 10.0862 15.427 9.94816 15.7533C9.81017 16.0793 9.6875 16.4139 9.5815 16.7555C9.47551 17.0969 9.38551 17.446 9.31284 17.801C9.24018 18.1564 9.18484 18.5174 9.14751 18.8842C9.12889 19.0675 9.11475 19.2522 9.10533 19.4382C9.0959 19.6242 9.09116 19.8115 9.09116 19.9995C9.09116 20.1875 9.09591 20.3748 9.10532 20.5608C9.11474 20.7468 9.12889 20.9315 9.14751 21.1148C9.18475 21.4815 9.24017 21.8428 9.31284 22.1979C9.3855 22.5532 9.4755 22.9018 9.5815 23.2434C9.6875 23.5848 9.81016 23.9194 9.94816 24.2457C10.0862 24.5717 10.2395 24.8903 10.4075 25.1993C10.5755 25.5086 10.7581 25.8086 10.9541 26.0987C11.1501 26.3887 11.3601 26.6694 11.5821 26.9385C11.8041 27.2078 12.0395 27.4665 12.2862 27.7132C12.5328 27.9599 12.7915 28.1952 13.0609 28.4173C13.3302 28.6393 13.6102 28.8493 13.9007 29.0453C14.1907 29.2413 14.4907 29.4239 14.8001 29.5919C15.1095 29.7599 15.4275 29.9132 15.7537 30.0512C16.0797 30.1892 16.4144 30.3119 16.756 30.4179C17.0973 30.5239 17.4464 30.6139 17.8015 30.6866C18.1568 30.7592 18.5179 30.8146 18.8846 30.8519C19.0679 30.8705 19.2526 30.8847 19.4386 30.8941C19.6246 30.9035 19.8119 30.9083 19.9999 30.9083C20.1879 30.9083 20.3752 30.9035 20.5612 30.8941C20.7472 30.8846 20.9319 30.8705 21.1152 30.8519C21.4819 30.8147 21.8433 30.7592 22.1984 30.6866C22.5537 30.6139 22.9023 30.5239 23.2439 30.4179C23.5852 30.3119 23.9199 30.1892 24.2461 30.0512C24.5721 29.9132 24.8908 29.7599 25.1997 29.5919C25.509 29.4239 25.809 29.2413 26.0992 29.0453C26.3891 28.8493 26.6698 28.6393 26.9389 28.4173C27.2083 28.1953 27.4669 27.9599 27.7137 27.7132C27.9603 27.4666 28.1957 27.2079 28.4177 26.9385C28.6397 26.6692 28.8497 26.3892 29.0457 26.0987C29.2417 25.8087 29.4244 25.5087 29.5924 25.1993C29.7604 24.8899 29.9137 24.5719 30.0517 24.2457C30.1897 23.9197 30.3123 23.585 30.4183 23.2434C30.5243 22.9021 30.6143 22.553 30.687 22.1979C30.7597 21.8426 30.815 21.4815 30.8523 21.1148C30.871 20.9315 30.8851 20.7468 30.8945 20.5608C30.904 20.3748 30.9087 20.1875 30.9087 19.9995C30.9087 19.8115 30.904 19.6242 30.8945 19.4382C30.8851 19.2522 30.871 19.0675 30.8523 18.8842C30.8151 18.5175 30.7597 18.1561 30.687 17.801C30.6143 17.4457 30.5243 17.0971 30.4183 16.7555C30.3123 16.4142 30.1897 16.0795 30.0517 15.7533C29.9137 15.4273 29.7604 15.1086 29.5924 14.7997C29.4244 14.4904 29.2417 14.1904 29.0457 13.9002C28.8497 13.6103 28.6397 13.3296 28.4177 13.0605C28.1957 12.7911 27.9604 12.5325 27.7137 12.2857C27.467 12.0391 27.2083 11.8037 26.9389 11.5817C26.6696 11.3597 26.3896 11.1497 26.0992 10.9537C25.8092 10.7577 25.5092 10.575 25.1998 10.407C24.8904 10.239 24.5724 10.0857 24.2462 9.94771C23.9202 9.80971 23.5855 9.68705 23.2439 9.58105C22.9026 9.47505 22.5535 9.38505 22.1984 9.31239C21.8431 9.23972 21.482 9.18439 21.1153 9.14706C20.932 9.12844 20.7473 9.1143 20.5613 9.10487C20.3753 9.09545 20.188 9.09071 19.9999 9.09071ZM19.9999 12.727C20.2513 12.727 20.4993 12.7398 20.7435 12.7646C20.9882 12.7894 21.2288 12.8263 21.4656 12.8746C21.7022 12.923 21.9349 12.9833 22.1625 13.0539C22.3905 13.1246 22.6132 13.2066 22.8307 13.2986C23.048 13.3906 23.2607 13.4926 23.4667 13.6046C23.6727 13.7166 23.8727 13.8379 24.066 13.9686C24.2593 14.0992 24.4467 14.2392 24.626 14.3872C24.8053 14.5352 24.978 14.6919 25.1426 14.8566C25.3073 15.0212 25.464 15.1932 25.612 15.3732C25.76 15.5525 25.9 15.7399 26.0306 15.9332C26.1613 16.1265 26.2826 16.3265 26.3946 16.5332C26.5066 16.7392 26.6086 16.9512 26.7006 17.1692C26.7926 17.3865 26.8746 17.6098 26.9453 17.8374C27.0159 18.0654 27.0759 18.2974 27.1246 18.5343C27.173 18.771 27.2099 19.0116 27.2346 19.2563C27.2594 19.501 27.2722 19.749 27.2722 19.9999C27.2722 20.2513 27.2595 20.4993 27.2346 20.7435C27.2098 20.9882 27.1729 21.2288 27.1246 21.4656C27.0762 21.7022 27.0159 21.9349 26.9453 22.1625C26.8746 22.3905 26.7926 22.6132 26.7006 22.8307C26.6086 23.048 26.5066 23.2607 26.3946 23.4667C26.2826 23.6727 26.1613 23.8727 26.0306 24.066C25.9 24.2593 25.76 24.4467 25.612 24.626C25.464 24.8053 25.3073 24.978 25.1426 25.1426C24.978 25.3073 24.806 25.464 24.626 25.612C24.4467 25.76 24.2593 25.9 24.066 26.0306C23.8727 26.1613 23.6727 26.2826 23.4667 26.3946C23.2607 26.5066 23.0487 26.6086 22.8307 26.7006C22.6134 26.7926 22.39 26.8746 22.1625 26.9453C21.9345 27.016 21.7025 27.076 21.4656 27.1246C21.2289 27.1731 20.9882 27.2099 20.7435 27.2346C20.4989 27.2594 20.2509 27.2722 19.9999 27.2722C19.7486 27.2722 19.5006 27.2595 19.2563 27.2346C19.0117 27.2098 18.771 27.1729 18.5343 27.1246C18.2976 27.0762 18.065 27.016 17.8374 26.9453C17.6094 26.8746 17.3867 26.7926 17.1692 26.7006C16.9518 26.6086 16.7392 26.5066 16.5332 26.3946C16.3272 26.2826 16.1272 26.1613 15.9332 26.0306C15.7399 25.9 15.5532 25.76 15.3732 25.612C15.1939 25.464 15.0212 25.3073 14.8565 25.1426C14.6919 24.978 14.5352 24.806 14.3872 24.626C14.2392 24.4467 14.0992 24.2593 13.9686 24.066C13.8379 23.8727 13.7166 23.6727 13.6046 23.4667C13.4926 23.2607 13.3906 23.0487 13.2986 22.8307C13.2066 22.6134 13.1246 22.39 13.0539 22.1625C12.9832 21.9345 12.9232 21.7025 12.8746 21.4656C12.8266 21.2289 12.7899 20.9883 12.7646 20.7435C12.7398 20.4989 12.727 20.2509 12.727 19.9999C12.727 19.7486 12.7398 19.5006 12.7646 19.2563C12.7894 19.0117 12.8263 18.771 12.8746 18.5343C12.923 18.2976 12.9832 18.065 13.0539 17.8374C13.1246 17.6094 13.2066 17.3867 13.2986 17.1692C13.3906 16.9519 13.4926 16.7392 13.6046 16.5332C13.7166 16.3272 13.8379 16.1272 13.9686 15.9332C14.0992 15.7399 14.2392 15.5532 14.3872 15.3732C14.5352 15.1939 14.6919 15.0212 14.8565 14.8566C15.0212 14.6919 15.1932 14.5352 15.3732 14.3872C15.5525 14.2392 15.7399 14.0992 15.9332 13.9686C16.1265 13.8379 16.3265 13.7166 16.5332 13.6046C16.7392 13.4926 16.9512 13.3906 17.1692 13.2986C17.3865 13.2066 17.6098 13.1246 17.8374 13.0539C18.0654 12.9833 18.2974 12.9233 18.5343 12.8746C18.771 12.8261 19.0116 12.7893 19.2563 12.7646C19.501 12.7398 19.749 12.727 19.9999 12.727Z" fill="#EEEEEE"/>
</svg>
