<svg width="128" height="384" viewBox="0 0 128 384" fill="none" xmlns="http://www.w3.org/2000/svg">
<path d="M53.3333 192C53.3333 197.891 58.109 202.667 64 202.667C69.891 202.667 74.6667 197.891 74.6667 192C74.6667 186.109 69.891 181.333 64 181.333C58.109 181.333 53.3333 186.109 53.3333 192ZM62 0V192H66V0H62Z" fill="#EEEEEE"/>
<path d="M53.3333 192C53.3333 197.891 58.109 202.667 64 202.667C69.891 202.667 74.6667 197.891 74.6667 192C74.6667 186.109 69.891 181.333 64 181.333C58.109 181.333 53.3333 186.109 53.3333 192ZM62 192V384H66V192H62Z" fill="#EEEEEE"/>
</svg>
